<?xml version="1.0" encoding="utf-8"?>
<!-- Generator: Adobe Illustrator 24.2.3, SVG Export Plug-In . SVG Version: 6.00 Build 0)  -->
<svg version="1.1" id="Calque_1" xmlns="http://www.w3.org/2000/svg" xmlns:xlink="http://www.w3.org/1999/xlink" x="0px" y="0px"
	 viewBox="0 0 448.3 328.1" style="enable-background:new 0 0 448.3 328.1;" xml:space="preserve">
<style type="text/css">
	.st0{fill:#FFFFFF;}
	.st1{fill:none;stroke:#C1D219;stroke-width:14;stroke-linecap:round;stroke-linejoin:round;stroke-miterlimit:10;}
	.st2{fill:#C1D219;}
	.st3{fill:none;stroke:#C1D219;stroke-width:13;stroke-linecap:round;stroke-linejoin:round;stroke-miterlimit:10;}
	.st4{fill:none;stroke:#FFFFFF;stroke-width:0.5;stroke-miterlimit:10;}
</style>
<g id="CDIR1M.tif_2_">
	
		<image style="overflow:visible;" width="230" height="178" id="Layer_0_1_" xlink:href="A532175BDE016FD9.png"  transform="matrix(0.1192 0 0 0.1192 179.1582 208.4428)">
	</image>
</g>
<path class="st0" d="M296.6,213.3C296.6,213.4,296.6,213.4,296.6,213.3c0,0.1,0,0.1,0,0.1C296.5,213.4,296.5,213.4,296.6,213.3
	C296.5,213.3,296.5,213.3,296.6,213.3z"/>
<path class="st0" d="M291.2,216.5C291.2,216.6,291.3,216.6,291.2,216.5c0,0.1,0,0.1,0,0.2c0,0-0.1-0.1-0.1-0.1
	C291.1,216.5,291.2,216.5,291.2,216.5z"/>
<path class="st1" d="M285.7,97.1c5.3,7,6.2,16.8,1.5,24.9c-6.3,10.8-20.1,14.4-30.9,8.2c-10.8-6.3-14.4-20.1-8.2-30.9"/>
<path class="st1" d="M295.5,183c-13,23.6-38.1,39.6-67,39.6c-1.5,0-3,0-4.4-0.1"/>
<path class="st2" d="M292.4,167.2l-0.5,1c-0.2,0.4-0.6,0.6-1.1,0.6l0,0c-0.8-0.1-1.2-0.9-0.8-1.6l3.5-6.2c0.4-0.6,1.1-1,1.8-0.9l0,0
	c0.7,0.1,1.3,0.6,1.5,1.3l2,6.7c0.2,0.8-0.4,1.5-1.2,1.5h0c-0.5-0.1-0.9-0.4-1-0.8l-0.3-1L292.4,167.2z M295,162.2l-1.7,3.2l2.6,0.3
	L295,162.2z"/>
<path class="st2" d="M304.6,172.5l-0.4-6.4l-2.5,3.8c-0.3,0.5-1,0.6-1.5,0.3l0,0c-0.5-0.3-0.6-1-0.3-1.5l3.7-5.6
	c0.4-0.6,1.3-0.8,1.9-0.4l0,0c0.4,0.2,0.6,0.6,0.6,1.1l0.4,6.4l2.5-3.8c0.3-0.5,1-0.6,1.5-0.3l0,0c0.5,0.3,0.6,1,0.3,1.5l-3.7,5.6
	c-0.4,0.6-1.3,0.8-1.9,0.4l0,0C304.9,173.3,304.6,172.9,304.6,172.5z"/>
<path class="st2" d="M316.5,177.5L316.5,177.5c-0.5,0-1-0.4-1.1-0.9c-0.1-0.8-0.3-1.6-0.5-2.1c-0.3-0.5-0.7-0.8-1.1-0.6
	c-1.4,0.8,1.7,4.6-1.2,6.2c-1.6,0.9-3.2-0.1-4.2-1.9c-0.6-1.1-0.9-2.3-0.8-3.4c0-0.5,0.4-1,1-1l0,0c0.6,0,1,0.4,1,1
	c0,0.9,0.2,1.9,0.5,2.5c0.4,0.6,0.8,0.9,1.3,0.7c1.4-0.8-1.8-4.6,1.1-6.1c1.5-0.8,3.1-0.1,4.2,1.9c0.4,0.8,0.7,1.7,0.8,2.6
	C317.5,176.9,317,177.4,316.5,177.5z"/>
<path class="st3" d="M183.6,108.1c0.1-2.4,0.6-4.8,1.6-7.1c3.6-9.4,12.6-15.1,22.1-15.1c0,0,0.1,0,0.2,0c10.7,0.4,22,8.5,22.1,20.8
	c0.1,13.2-12.8,39.1-37.6,73.4c0,0,32.8,25.5,67.9-3.2"/>
<g>
	<circle class="st4" cx="223.4" cy="135.9" r="87.6"/>
	<circle class="st4" cx="223.4" cy="135.9" r="54.5"/>
	<circle class="st4" cx="223.4" cy="135.9" r="75"/>
	<circle class="st4" cx="267.6" cy="109.5" r="23.6"/>
	<circle class="st4" cx="206.6" cy="109.5" r="23.6"/>
</g>
</svg>
