<?xml version="1.0" encoding="utf-8"?>
<!-- Generator: Adobe Illustrator 24.2.3, SVG Export Plug-In . SVG Version: 6.00 Build 0)  -->
<svg version="1.1" id="Calque_1" xmlns="http://www.w3.org/2000/svg" xmlns:xlink="http://www.w3.org/1999/xlink" x="0px" y="0px"
	 viewBox="0 0 1190.6 506.1" style="enable-background:new 0 0 1190.6 506.1;" xml:space="preserve">
<style type="text/css">
	.st0{fill:#C1D219;}
</style>
<path class="st0" d="M741.4,99.7c-2.6,26.8-6.4,51.3-16.9,74.6c-7.7,17.1-17.5,32.7-30.2,46.2c-11,11.6-23.7,21.2-38.3,28.3
	c-18,8.8-36.9,13.4-56.7,14.1c-12.6,0.5-25.6,0.4-38-1.8c-26.1-4.5-49.7-15.1-69.5-33.4c-19.5-18-32.9-39.7-42.1-64.4
	c-6-16.2-8.5-33-11.1-49.9c-1.8-11.5-0.9-22.6,1.9-33.3c4.8-18.4,16.7-31.5,33.7-40c11.6-5.8,23.9-9.2,36.5-12.2
	c18.2-4.3,36.6-4.8,55.1-5.7c9.3-0.4,18.7-1.4,28-1c21.9,1.1,43.9,1.6,65.5,4.9c21.6,3.3,42.9,9.1,60.1,24.1
	c10.5,9.2,17.5,20.5,19.6,34.6C739.8,90.3,740.7,95.8,741.4,99.7z M575.1,96c2.6,0,5.1,0,7.7,0c2.7,0,5.4,0.1,8.2,0
	c5.6-0.3,9.9-4.3,9.8-9.1c0-4.7-4.4-8.6-10.1-8.7c-7.1-0.1-14.3-0.3-21.4,0c-11.4,0.5-22.5,2-32.9,7.5
	c-17.4,9.2-28.1,23.6-31.5,42.5c-2.2,12.5-0.9,25.1,4.4,37.3c7.6,17.5,20.8,28.3,38.4,33.8c14.7,4.6,30,2.7,45.1,2.6
	c4.6,0,7.4-3.3,8-7.9c0.5-4-2.4-7.8-6.8-8.8c-2-0.5-4-0.5-6.1-0.5c-9.8-0.4-19.7-0.3-29.5-1.2c-11.8-1.2-21.8-6.5-28.6-16.4
	c-7.8-11.2-10.1-23.6-7.2-37.2c2.7-13.2,9.9-22.3,21.4-28.6C553.7,96.1,564.3,95.9,575.1,96z M669.4,98.7c-0.1,0-0.3-0.1-0.4-0.1
	c0-1.2,0.1-2.4,0-3.6c-0.4-7.4-7-13.6-14.1-13.3c-7.4,0.3-13.3,6.6-12.7,14.4c1,12,2.1,24,3.7,35.9c0.9,6.9,2.8,13.6,4.8,20.3
	c0.6,2.1,2.9,3.8,4.5,5.6c1.4-1.7,3.2-3.2,4.2-5.1c1.1-2.2,1.8-4.7,2.3-7.1c1-5.1,1.8-10.3,2.6-15.5
	C666.1,119.7,667.8,109.2,669.4,98.7z M642.2,190.5c0,7.2,6.1,13.6,13,13.6c6.9,0,13.6-6.4,13.7-13.1c0.1-6.5-7-13.9-13.2-13.9
	C648.9,177.2,642.3,183.8,642.2,190.5z"/>
<g>
	<path class="st0" d="M179.7,398.1c0-25.9,0-51.7,0.1-77.6c0-2.1,0.5-4.4,1.3-6.4c2-4.8,6.2-7.1,10.5-6.1c4.2,0.9,7.4,4.8,7.4,9.8
		c0.1,11.7,0,23.5,0,35.2c0,8,0,8,8.1,8c11.4,0,22.8-0.3,34.2,0.2c5,0.2,10.2,1.3,14.8,3.2c9.6,3.9,14.9,11.6,16.2,21.8
		c1,7.2,1.8,14.5,1.9,21.7c0.2,22.8,0.1,45.6,0.1,68.4c0,6.4-0.6,7.1-7,7.1c-13.8,0.1-12,0.2-12-11.7c0-22.5,0.1-44.9,0-67.4
		c0-3.9,0-8-1.2-11.6c-3.4-10.9-8.6-14.7-20.2-15c-9.9-0.3-19.7,0.1-29.6-0.1c-4.2-0.1-5.5,1.5-5.5,5.7c0.2,30.5,0.1,60.9,0.1,91.4
		c0,8.6-0.1,8.7-8.4,8.7c-10.8,0-10.8,0-10.8-10.8C179.8,447.8,179.8,422.9,179.7,398.1C179.8,398.1,179.7,398.1,179.7,398.1z"/>
	<path class="st0" d="M350,423c-12.1,0-24.1,0-36.2,0c-7.5,0-7.4,0-6.7,7.3c0.7,8.7,3.4,16.6,8.1,23.8c7.1,10.6,18.1,12.4,29.6,12.4
		c14.1,0.1,28.2,0.2,42.3-0.1c4.5-0.1,6.4,1.1,6.4,5.9c0,10.9,0.2,10.9-10.9,10.9c-11.2,0-22.4,0.2-33.7,0
		c-10.7-0.1-21.2-1.3-31.1-6.2c-11.1-5.6-18.3-14.6-22.6-25.8c-8.5-22.5-7.9-45.1,3-66.5c7.6-14.9,20.5-24,37.8-24.5
		c8.2-0.2,16.6,0.4,24.5,2.3c13.6,3.3,22.1,13.4,26.8,25.8c3.4,8.9,4.1,18.7,5.9,28.2c0.8,4.6-1,6.6-6.1,6.5
		C374.8,422.8,362.4,423,350,423C350,423,350,423,350,423z M341.8,408.1C341.8,408,341.8,408,341.8,408.1c9.7-0.1,19.4-0.3,29.1,0
		c4.5,0.1,5.7-1.6,5-5.7c-1.4-8-5.1-14.8-11.5-19.7c-10.2-7.7-21.4-8.3-33.7-5c-12.9,3.4-19,12.3-22.7,23.7
		c-1.7,5.3-0.4,6.6,5.3,6.6C322.8,408.1,332.3,408.1,341.8,408.1z"/>
	<path class="st0" d="M468.7,423c-12.6,0-25.2,0.1-37.8-0.1c-4.2-0.1-5.7,1.4-5.6,5.6c0.3,11,4.2,20.6,11,28.9
		c4.6,5.7,11.5,8.2,18.5,8.5c16.7,0.6,33.3,0.5,50,0.6c6.4,0,6.7,0.2,6.7,6.5c0,11.7,0.7,10.4-10.5,10.4c-12.3,0-24.5,0.3-36.7-0.1
		c-6.4-0.2-12.9-1.1-19.1-2.7c-15.2-3.9-25.1-14.3-31.1-28.4c-7.5-17.6-7.9-35.9-2.9-53.9c4.1-14.9,12.6-27.5,27.4-34.3
		c7.9-3.6,16.4-3.9,24.9-4.1c24.7-0.5,39.6,16.5,44.7,34c2.3,8,2.4,16.7,3.3,25.1c0.4,3.6-2,4.1-4.9,4
		C493.9,422.9,481.3,422.9,468.7,423C468.7,422.9,468.7,423,468.7,423z M459.2,408C459.2,408,459.2,408,459.2,408c10,0,20,0,30.1,0
		c2.5,0,4.8,0,4.9-3.5c0.5-9.5-9.5-23.2-18.6-26.3c-9.9-3.5-19.5-3.1-29.3,0.2c-11.6,4-17.2,13-20.3,24.1c-1,3.7,0.3,5.6,4.7,5.5
		C440.2,407.9,449.7,408,459.2,408z"/>
	<path class="st0" d="M587.1,422.9c-12.6,0-25.2,0-37.8,0c-3,0-5.6,0.2-5.4,4.2c0.5,10.4,2.6,20.2,9.3,28.5c7,8.8,16.8,10.9,27.3,11
		c14.5,0.1,28.9,0.2,43.4-0.1c4.8-0.1,6.2,1.6,6.1,6.2c-0.1,10.8,0.1,10.8-10.7,10.8c-12.6,0-25.2,0.4-37.8-0.1
		c-9.8-0.4-19.6-1.7-28.4-6.9c-12.4-7.4-19.9-18.4-23.5-31.9c-3.7-13.8-3.8-27.7-0.9-41.9c5-24.6,23.7-43.7,52.8-43
		c24.4,0.6,39.3,15.6,45.2,34.3c2.5,7.9,2.2,16.7,3.1,25.1c0.4,3.7-2.2,4-5,4C612.3,422.9,599.7,423,587.1,422.9
		C587.1,423,587.1,422.9,587.1,422.9z M578.3,408C578.3,408,578.3,408,578.3,408c10,0.1,20.1,0,30.1,0.1c3.5,0,4.9-1.2,4.5-4.9
		c-1.1-9.6-6-16.8-13.7-22.2c-12.1-8.6-31.4-6-41.8,1.3c-7.3,5.1-11.4,12.4-12.8,21.2c-0.5,3.3,0.7,4.6,4.1,4.6
		C558.6,407.9,568.5,408,578.3,408z"/>
	<path class="st0" d="M1038.4,423c-12.6,0-25.2,0.1-37.8-0.1c-4.6-0.1-6.1,1.7-5.6,6c1.8,15.8,8,31.8,24.2,36
		c4.5,1.2,9.4,1.5,14.1,1.6c14,0.2,27.9,0.2,41.9,0c4.5-0.1,6,1.6,5.9,6c-0.2,12.6,0.8,10.9-11,10.9c-12.3,0.1-24.5,0.5-36.8-0.1
		c-10.1-0.5-20.4-1.5-29.3-7.2c-13.7-8.7-21.2-21.6-24.2-37.3c-2.2-11.3-2.3-22.5-0.1-33.9c3.4-18.3,11.6-33.8,29.2-40.9
		c25.9-10.4,57.4-4.8,68.5,28.2c2.8,8.3,2.6,17.6,3.6,26.5c0.4,3.5-1.9,4.2-4.8,4.2C1063.6,422.9,1051,422.9,1038.4,423
		C1038.4,423,1038.4,423,1038.4,423z M1030.1,408.1c9.7,0,19.4-0.1,29,0c3.5,0,5.7-0.9,5.3-4.9c-1.3-13.1-13.4-26.1-26.5-27.2
		c-19.7-1.6-35,3.6-41.9,25.3c-1.6,5-0.8,6.7,4.5,6.7C1010.4,408.1,1020.2,408.1,1030.1,408.1z"/>
	<path class="st0" d="M823.4,422.9c-11.9,0-23.8,0-35.7,0c-7.2,0-7.1,0-6.7,7c0.5,9.4,3.4,17.9,9.2,25.4
		c5.1,6.6,11.9,10.3,20.1,10.6c16.6,0.6,33.3,0.6,50,0.6c4.8,0,6.7,1.2,6.6,6.3c-0.3,12.1,0.8,10.6-10.8,10.6
		c-12.2,0.1-24.5,0.2-36.7,0c-28.4-0.7-47.8-14.7-53.7-44.8c-3-15.4-2.1-30.1,2.8-44.6c8-23.5,25.2-34.5,50.1-34.3
		c19.6,0.2,33.4,9.3,42.1,26c5.4,10.4,6.5,22.1,6.1,33.8c-0.1,3.5-2.5,3.5-5,3.4C848.9,422.9,836.1,422.9,823.4,422.9z M815.4,408.1
		c9.7,0,19.4-0.1,29.1,0c4.3,0.1,6.2-1,5.3-5.9c-1.5-8.5-5.5-15.4-12.4-20.2c-10.3-7.2-21.4-7.7-33.4-4.1
		c-12.5,3.7-18.9,12.4-22.4,24c-1.5,4.9-0.3,6.1,4.7,6.2C796,408.1,805.7,408.1,815.4,408.1z"/>
	<path class="st0" d="M705.5,422.9c-12.6,0-25.2,0.1-37.8-0.1c-4.6-0.1-5.9,1.6-5.5,6.1c0.9,10.4,3.8,19.8,10.8,27.9
		c5,5.8,11.5,8.8,18.7,9.1c16.8,0.7,33.7,0.6,50.5,0.6c4.6,0,6.3,1.3,6.2,6c-0.3,13,1,10.7-10.9,10.9c-12.6,0.1-25.2,0.5-37.8,0
		c-19.5-0.8-36.3-7.2-46.1-25.6c-8.3-15.6-9.6-32.3-7.3-49.5c1.4-10.1,4.5-19.4,10.3-27.8c10.5-15.4,25.5-20.7,43.4-20.7
		c26.6,0.1,41.9,18.1,45.9,38.2c1.3,6.6,1.6,13.4,2.4,20.1c0.5,3.9-1.3,5-5,5C730.7,422.8,718.1,422.9,705.5,422.9z M697.2,408.1
		c9.8,0,19.7-0.1,29.5,0.1c4,0.1,5.4-1.6,4.4-5.2c-1.2-4.2-2.1-8.6-4.4-12.3c-8.3-13.5-21.2-16.6-35.8-14.4
		c-14.7,2.3-23.6,11.5-27.9,25.4c-1.5,4.7-0.3,6.3,4.6,6.3C677.5,408.1,687.3,408.1,697.2,408.1z"/>
	<path class="st0" d="M910.2,483.4c-7.8,0-15.6-0.1-23.5,0.1c-3.8,0.1-5.1-1.4-5.2-5.1c-0.4-11.9-0.5-11.8,11.2-11.8
		c14.4-0.1,28.9-0.2,43.3-0.5c1.7,0,3.4-0.4,4.9-1.1c5.6-2.3,9.6-6.4,10-12.5c0.4-6-3.1-11.1-8.1-13.9c-7.4-4-15.4-7-23.2-10
		c-10.8-4.2-22.4-6.1-31.4-14.7c-9.8-9.4-9.3-28.5-0.3-38.5c10.2-11.3,23.5-13.5,37.3-14.4c10.7-0.7,21.4,0,32.1-0.2
		c4.1-0.1,5.3,1.7,5.4,5.5c0.3,11.3,0.4,11.2-10.8,11.3c-12.2,0.1-24.5,0.2-36.7,0.7c-6.9,0.2-13.8,6.4-15.5,12.9
		c-1.4,5.7,1.7,12,8.3,14.7c11.1,4.5,22.6,8.1,33.8,12.5c11.2,4.5,22.1,9.2,26.5,22.4c4.2,12.6-0.3,25.7-9.8,33.9
		c-7.7,6.7-17.2,7.8-26.6,8.5C924.9,483.9,917.5,483.4,910.2,483.4C910.2,483.4,910.2,483.4,910.2,483.4z"/>
	<path class="st0" d="M141.5,484.9c-12-1.8-24.4-2.4-35.9-5.8c-16.2-4.9-27.8-16-34.6-32c-6.3-14.9-7.1-30.2-2.1-45.2
		c5.8-17.4,17.7-29.6,35.2-36.2c16.1-6.1,32.8-4.5,49.3-4.6c12-0.1,11-2.2,11.1,11.7c0,3.8-1.7,4.9-5.3,4.9
		c-12.7,0.1-25.5,0-38.2,0.8c-14.3,0.9-27.9,13-32.1,26.7c-3.8,12.5-3.8,24.9,1.2,36.8c6.8,16.1,19.6,24.2,37.1,24.5
		c10.4,0.2,20.7,0.2,31.1-0.1c4.5-0.1,6.4,1.2,6.4,6c-0.1,10.8,0.2,10.8-10.6,10.8c-4.1,0-8.2,0-12.2,0
		C141.6,483.9,141.5,484.4,141.5,484.9z"/>
	<path class="st0" d="M1100.6,330.9c0-2.7-0.2-5.4,0-8.1c0.5-7.4,5.9-12.1,13.2-11.9c6.7,0.2,12.2,5.6,12,12.6
		c-0.5,15.4-0.9,30.9-2.4,46.3c-2,21.8-4.9,43.4-7.6,65.1c-0.2,1.5-1.8,2.8-2.7,4.2c-0.8-1.3-2.2-2.6-2.4-4
		c-2-13.7-4.3-27.4-5.6-41.2c-2-20.9-3.3-42-4.8-62.9C1100.4,330.9,1100.5,330.9,1100.6,330.9z"/>
	<path class="st0" d="M1100.6,472.3c0-6.8,5.9-12.9,12.5-12.9c7-0.1,12.9,6,12.9,13.1c0,7.4-4.9,12.3-12.5,12.4
		C1105.8,485,1100.6,480,1100.6,472.3z"/>
</g>
</svg>
