<?xml version="1.0" encoding="utf-8"?>
<!-- Generator: Adobe Illustrator 24.2.3, SVG Export Plug-In . SVG Version: 6.00 Build 0)  -->
<svg version="1.1" id="Calque_1" xmlns="http://www.w3.org/2000/svg" xmlns:xlink="http://www.w3.org/1999/xlink" x="0px" y="0px"
	 viewBox="0 0 829.9 252.4" style="enable-background:new 0 0 829.9 252.4;" xml:space="preserve">
<style type="text/css">
	.st0{fill:#FFFFFF;}
	.st1{fill:none;stroke:#C1D219;stroke-width:11;stroke-linecap:round;stroke-linejoin:round;stroke-miterlimit:10;}
	.st2{fill:#C1D219;}
</style>
<g id="CDIR1M.tif_2_">
	
		<image style="overflow:visible;" width="230" height="178" id="Layer_0_1_" xlink:href="C2D0A4947F20564C.png"  transform="matrix(0.1521 0 0 0.1521 331.716 185.7995)">
	</image>
</g>
<path class="st0" d="M481.5,192c0,0,0,0.1,0,0.1c0,0-0.1,0.1-0.1,0.1c0-0.1,0-0.1-0.1-0.2C481.5,192,481.5,192,481.5,192z"/>
<path class="st0" d="M474.7,196.1c0,0,0.1,0.1,0.1,0.1c0,0-0.1,0.1-0.1,0.1c0-0.1-0.1-0.1-0.1-0.2
	C474.6,196.1,474.7,196.1,474.7,196.1z"/>
<path class="st1" d="M467.6,43.7c6.7,9,7.9,21.5,1.9,31.8c-8,13.7-25.6,18.4-39.4,10.4s-18.4-25.6-10.4-39.4"/>
<path class="st1" d="M480.2,153.3c-16.6,30.2-48.7,50.6-85.5,50.6c-1.9,0-3.8-0.1-5.7-0.2"/>
<path class="st2" d="M476.2,133.1l-0.6,1.2c-0.3,0.5-0.8,0.8-1.4,0.7l0,0c-1-0.1-1.6-1.2-1.1-2.1l4.5-7.9c0.5-0.8,1.3-1.3,2.3-1.2
	l0,0c0.9,0.1,1.7,0.7,2,1.6l2.6,8.6c0.3,1-0.5,2-1.5,1.9l0,0c-0.6-0.1-1.1-0.5-1.2-1.1l-0.3-1.3L476.2,133.1z M479.5,126.8l-2.2,4.1
	l3.4,0.4L479.5,126.8z"/>
<path class="st2" d="M491.8,139.9l-0.5-8.1l-3.2,4.9c-0.4,0.6-1.3,0.8-1.9,0.4l0,0c-0.6-0.4-0.8-1.3-0.4-1.9l4.7-7.2
	c0.5-0.8,1.6-1,2.4-0.5l0,0c0.5,0.3,0.8,0.8,0.8,1.4l0.5,8.1l3.2-4.9c0.4-0.6,1.3-0.8,1.9-0.4l0,0c0.6,0.4,0.8,1.3,0.4,1.9l-4.7,7.2
	c-0.5,0.8-1.6,1-2.4,0.5l0,0C492.1,141,491.9,140.4,491.8,139.9z"/>
<path class="st2" d="M506.9,146.3L506.9,146.3c-0.7,0-1.3-0.5-1.4-1.2c-0.1-1-0.4-2-0.7-2.6c-0.4-0.7-0.9-1-1.4-0.7
	c-1.8,1,2.2,5.8-1.5,7.9c-2.1,1.1-4.1-0.1-5.4-2.4c-0.7-1.3-1.1-2.9-1.1-4.4c0-0.7,0.6-1.2,1.2-1.2l0,0c0.7,0,1.3,0.6,1.3,1.3
	c0,1.2,0.2,2.4,0.6,3.2c0.4,0.8,1,1.2,1.6,0.8c1.8-1-2.2-5.8,1.4-7.8c1.9-1,4-0.1,5.3,2.4c0.6,1,0.9,2.2,1,3.3
	C508.2,145.6,507.7,146.2,506.9,146.3z"/>
<path class="st1" d="M337.4,57.8c0.2-3,0.8-6.1,2-9.1c4.6-12,16-19.3,28.1-19.3c0,0,0.2,0,0.3,0c13.7,0.5,28.1,10.8,28.2,26.5
	c0.2,16.9-16.3,49.9-48,93.7c0,0,41.9,32.6,86.6-4.1"/>
</svg>
