<?xml version="1.0" encoding="utf-8"?>
<!-- Generator: Adobe Illustrator 24.2.3, SVG Export Plug-In . SVG Version: 6.00 Build 0)  -->
<svg version="1.1" id="Calque_1" xmlns="http://www.w3.org/2000/svg" xmlns:xlink="http://www.w3.org/1999/xlink" x="0px" y="0px"
	 viewBox="0 0 1190.6 328.1" style="enable-background:new 0 0 1190.6 328.1;" xml:space="preserve">
<style type="text/css">
	.st0{fill:#FFFFFF;}
	.st1{fill:none;stroke:#C1D219;stroke-width:14;stroke-linecap:round;stroke-linejoin:round;stroke-miterlimit:10;}
	.st2{fill:#C1D219;}
	.st3{fill:none;stroke:#C1D219;stroke-width:13;stroke-linecap:round;stroke-linejoin:round;stroke-miterlimit:10;}
	.st4{fill:none;stroke:#FFFFFF;stroke-width:0.5;stroke-miterlimit:10;}
</style>
<g id="CDIR1M.tif_2_">
	
		<image style="overflow:visible;" width="230" height="178" id="Layer_0_1_" xlink:href="6961168A009D31E7.png"  transform="matrix(0.1521 0 0 0.1521 537.1613 252.6605)">
	</image>
</g>
<path class="st0" d="M687,258.9c0,0,0,0.1,0,0.1c0,0-0.1,0.1-0.1,0.1c0-0.1,0-0.1-0.1-0.2C686.9,258.9,687,258.9,687,258.9z"/>
<path class="st0" d="M680.2,263c0,0,0.1,0.1,0.1,0.1c0,0-0.1,0.1-0.1,0.1c0-0.1-0.1-0.1-0.1-0.2C680.1,263,680.1,263,680.2,263z"/>
<path class="st1" d="M673.1,110.6c6.7,9,7.9,21.5,1.9,31.8c-8,13.7-25.6,18.4-39.4,10.4c-13.7-8-18.4-25.6-10.4-39.4"/>
<path class="st1" d="M685.7,220.1c-16.6,30.2-48.7,50.6-85.5,50.6c-1.9,0-3.8-0.1-5.7-0.2"/>
<path class="st2" d="M681.7,200l-0.6,1.2c-0.3,0.5-0.8,0.8-1.4,0.7l0,0c-1-0.1-1.6-1.2-1.1-2.1l4.5-7.9c0.5-0.8,1.3-1.3,2.3-1.2l0,0
	c0.9,0.1,1.7,0.7,2,1.6l2.6,8.6c0.3,1-0.5,2-1.5,1.9l0,0c-0.6-0.1-1.1-0.5-1.2-1.1l-0.3-1.3L681.7,200z M685,193.7l-2.2,4.1l3.4,0.4
	L685,193.7z"/>
<path class="st2" d="M697.3,206.8l-0.5-8.1l-3.2,4.9c-0.4,0.6-1.3,0.8-1.9,0.4h0c-0.6-0.4-0.8-1.3-0.4-1.9l4.7-7.2
	c0.5-0.8,1.6-1,2.4-0.5l0,0c0.5,0.3,0.8,0.8,0.8,1.4l0.5,8.1l3.2-4.9c0.4-0.6,1.3-0.8,1.9-0.4l0,0c0.6,0.4,0.8,1.3,0.4,1.9l-4.7,7.2
	c-0.5,0.8-1.6,1-2.4,0.5l0,0C697.6,207.8,697.3,207.3,697.3,206.8z"/>
<path class="st2" d="M712.4,213.1L712.4,213.1c-0.7,0-1.3-0.5-1.4-1.2c-0.1-1-0.4-2-0.7-2.6c-0.4-0.7-0.9-1-1.4-0.7
	c-1.8,1,2.2,5.8-1.5,7.9c-2.1,1.1-4.1-0.1-5.4-2.4c-0.7-1.3-1.1-2.9-1.1-4.4c0-0.7,0.6-1.2,1.2-1.2l0,0c0.7,0,1.3,0.6,1.3,1.3
	c0,1.2,0.2,2.4,0.6,3.2c0.4,0.8,1,1.2,1.6,0.8c1.8-1-2.2-5.8,1.4-7.8c1.9-1,4-0.1,5.3,2.4c0.6,1,0.9,2.2,1,3.3
	C713.7,212.4,713.1,213.1,712.4,213.1z"/>
<path class="st3" d="M542.9,124.7c0.2-3,0.8-6.1,2-9.1c4.6-12,16-19.3,28.1-19.3c0,0,0.2,0,0.3,0c13.7,0.5,28.1,10.8,28.2,26.5
	c0.2,16.9-16.3,49.9-48,93.7c0,0,41.9,32.6,86.6-4.1"/>
<g>
	<circle class="st4" cx="593.7" cy="160" r="111.7"/>
	<circle class="st4" cx="593.7" cy="160" r="69.6"/>
	<circle class="st4" cx="593.7" cy="160" r="95.7"/>
	<circle class="st4" cx="650.1" cy="126.4" r="30.2"/>
	<circle class="st4" cx="572.1" cy="126.4" r="30.2"/>
</g>
</svg>
