<?xml version="1.0" encoding="utf-8"?>
<!-- Generator: Adobe Illustrator 24.2.3, SVG Export Plug-In . SVG Version: 6.00 Build 0)  -->
<svg version="1.1" id="Calque_1" xmlns="http://www.w3.org/2000/svg" xmlns:xlink="http://www.w3.org/1999/xlink" x="0px" y="0px"
	 viewBox="0 0 1190.6 408.9" style="enable-background:new 0 0 1190.6 408.9;" xml:space="preserve">
<style type="text/css">
	.st0{fill:none;}
	.st1{fill:#C1D219;}
	.st2{fill:#FFFFFF;}
	.st3{fill:url(#SVGID_1_);}
	.st4{fill:url(#SVGID_2_);}
	.st5{fill:url(#SVGID_3_);}
	.st6{fill:url(#SVGID_4_);}
	.st7{fill:url(#SVGID_5_);}
	.st8{fill:url(#SVGID_6_);}
	.st9{fill:url(#SVGID_7_);}
	.st10{fill:url(#SVGID_8_);}
	.st11{fill:url(#SVGID_9_);}
	.st12{fill:url(#SVGID_10_);}
	.st13{fill:url(#SVGID_11_);}
	.st14{fill:url(#SVGID_12_);}
	.st15{fill:url(#SVGID_13_);}
	.st16{fill:url(#SVGID_14_);}
	.st17{fill:url(#SVGID_15_);}
	.st18{fill:url(#SVGID_16_);}
	.st19{fill:url(#SVGID_17_);}
	.st20{fill:url(#SVGID_18_);}
	.st21{fill:url(#SVGID_19_);}
	.st22{fill:url(#SVGID_20_);}
	.st23{fill:url(#SVGID_21_);}
	.st24{fill:url(#SVGID_22_);}
	.st25{fill:url(#SVGID_23_);}
	.st26{fill:url(#SVGID_24_);}
	.st27{fill:url(#SVGID_25_);}
	.st28{fill:url(#SVGID_26_);}
	.st29{fill:url(#SVGID_27_);}
	.st30{fill:url(#SVGID_28_);}
	.st31{fill:url(#SVGID_29_);}
	.st32{fill:url(#SVGID_30_);}
	.st33{fill:url(#SVGID_31_);}
	.st34{fill:url(#SVGID_32_);}
	.st35{fill:url(#SVGID_33_);}
	.st36{fill:url(#SVGID_34_);}
</style>
<pattern  y="-216.5" width="485.3" height="370.7" patternUnits="userSpaceOnUse" id="Nouveau_motif" viewBox="0 -447 485.3 370.7" style="overflow:visible;">
	<g>
		<rect x="0" y="-447" class="st0" width="485.3" height="370.7"/>
		<g>
			<path class="st1" d="M460.3-74.3c-1.8,0-3.6-0.2-5.4-0.6c-6.3-1.4-11.6-5.2-15-10.6c-3.4-5.4-4.5-11.9-3.1-18.1
				c0.6-2.6,3.2-4.3,5.9-3.7c2.6,0.6,4.3,3.2,3.7,5.9c-1.7,7.6,3.1,15.2,10.7,17c1.1,0.2,2.1,0.4,3.1,0.4c6.5,0,12.3-4.5,13.8-11.1
				c1.3-5.6-0.9-11.3-5.6-14.7c-2.2-1.6-2.7-4.7-1.1-6.9c1.6-2.2,4.7-2.7,6.9-1.1c7.9,5.6,11.6,15.4,9.4,24.8
				c-1.4,6.3-5.2,11.6-10.6,15C469.2-75.6,464.8-74.3,460.3-74.3z"/>
			<path class="st1" d="M422.7-24.7c-4.2,0-8.3-0.7-12.4-2c-10.5-3.5-16.8-10.5-17.1-10.8c-1.5-1.7-1.7-4.3-0.3-6.1
				c9-12.5,16.5-25.5,21.4-37.5c3.9-9.5,6.3-18.3,6.2-23.5c-0.1-9.9-7.7-11.1-11-11.2c-3-0.1-5.8,1-8,3.1c-2.2,2.1-3.4,4.8-3.5,7.8
				c-0.1,2.2,0.5,4.4,1.8,6.3c1.5,2.3,0.8,5.3-1.5,6.8c-2.3,1.5-5.3,0.8-6.8-1.5c-2.3-3.5-3.4-7.6-3.3-11.8
				c0.1-5.6,2.5-10.8,6.5-14.7c4.1-3.9,9.4-5.9,15-5.8c5.8,0.1,10.8,2.1,14.5,5.6c3.9,3.8,6.1,9.1,6.1,15.3c0.1,6.7-2.4,16.4-7,27.4
				c-4.8,11.6-11.7,23.9-20,35.9c2.3,1.8,5.9,4.1,10.4,5.6c10.7,3.4,21.8,0.6,33-8.4c2.1-1.7,5.2-1.4,6.9,0.7
				c1.7,2.1,1.4,5.2-0.7,6.9c-7.7,6.2-15.5,10-23.4,11.4C427.2-24.9,424.9-24.7,422.7-24.7z"/>
		</g>
		<g>
			<path class="st1" d="M363.3-49.6c-1.8,0-3.6-0.2-5.4-0.6c-6.3-1.4-11.6-5.2-15-10.6c-3.4-5.4-4.5-11.9-3.1-18.1
				c0.6-2.6,3.2-4.3,5.9-3.7c2.6,0.6,4.3,3.2,3.7,5.9c-1.7,7.6,3.1,15.2,10.7,17c1.1,0.2,2.1,0.4,3.1,0.4c6.5,0,12.3-4.5,13.8-11.1
				c1.3-5.6-0.9-11.3-5.6-14.7c-2.2-1.6-2.7-4.7-1.1-6.9c1.6-2.2,4.7-2.7,6.9-1.1c7.9,5.6,11.6,15.4,9.4,24.8
				c-1.4,6.3-5.2,11.6-10.6,15C372.1-50.8,367.7-49.6,363.3-49.6z"/>
			<path class="st1" d="M325.6,0c-4.2,0-8.3-0.7-12.4-2c-10.5-3.5-16.8-10.5-17.1-10.8c-1.5-1.7-1.7-4.3-0.3-6.1
				c9-12.5,16.5-25.5,21.4-37.5c3.9-9.5,6.3-18.3,6.2-23.5c-0.1-9.9-7.7-11.1-11-11.2c-3-0.1-5.8,1-8,3.1c-2.2,2.1-3.4,4.8-3.5,7.8
				c-0.1,2.2,0.5,4.4,1.8,6.3c1.5,2.3,0.8,5.3-1.5,6.8c-2.3,1.5-5.3,0.8-6.8-1.5c-2.3-3.5-3.4-7.6-3.3-11.8
				c0.1-5.6,2.5-10.8,6.5-14.7c4.1-3.9,9.4-5.9,15-5.8c5.8,0.1,10.8,2.1,14.5,5.6c3.9,3.8,6.1,9.1,6.1,15.3c0.1,6.7-2.4,16.4-7,27.4
				c-4.8,11.6-11.7,23.9-20,35.9c2.3,1.8,5.9,4.1,10.4,5.6c10.7,3.4,21.8,0.6,33-8.4c2.1-1.7,5.2-1.4,6.9,0.7
				c1.7,2.1,1.4,5.2-0.7,6.9c-7.7,6.2-15.5,10-23.4,11.4C330.2-0.2,327.9,0,325.6,0z"/>
		</g>
		<g>
			<path class="st2" d="M481.3-138.3C481.3-138.3,481.3-138.3,481.3-138.3c0,0.1,0,0.1,0,0.1C481.2-138.3,481.2-138.3,481.3-138.3
				C481.2-138.3,481.2-138.3,481.3-138.3z"/>
			<path class="st2" d="M476.9-135.7C476.9-135.7,476.9-135.7,476.9-135.7c0,0.1,0,0.1,0,0.1C476.8-135.6,476.8-135.7,476.9-135.7
				C476.8-135.7,476.8-135.7,476.9-135.7z"/>
			<path class="st1" d="M460.3-197.8c-1.8,0-3.6-0.2-5.4-0.6c-6.3-1.4-11.6-5.2-15-10.6c-3.4-5.4-4.5-11.9-3.1-18.1
				c0.6-2.6,3.2-4.3,5.9-3.7c2.6,0.6,4.3,3.2,3.7,5.9c-1.7,7.6,3.1,15.2,10.7,17c1.1,0.2,2.1,0.4,3.1,0.4c6.5,0,12.3-4.5,13.8-11.1
				c1.3-5.6-0.9-11.3-5.6-14.7c-2.2-1.6-2.7-4.7-1.1-6.9c1.6-2.2,4.7-2.7,6.9-1.1c7.9,5.6,11.6,15.4,9.4,24.8
				c-1.4,6.3-5.2,11.6-10.6,15C469.2-199.1,464.8-197.8,460.3-197.8z"/>
			<path class="st1" d="M422.7-148.3c-4.2,0-8.3-0.7-12.4-2c-10.5-3.5-16.8-10.5-17.1-10.8c-1.5-1.7-1.7-4.3-0.3-6.1
				c9-12.5,16.5-25.5,21.4-37.5c3.9-9.5,6.3-18.3,6.2-23.5c-0.1-9.9-7.7-11.1-11-11.2c-3-0.1-5.8,1-8,3.1c-2.2,2.1-3.4,4.8-3.5,7.8
				c-0.1,2.2,0.5,4.4,1.8,6.3c1.5,2.3,0.8,5.3-1.5,6.8c-2.3,1.5-5.3,0.8-6.8-1.5c-2.3-3.5-3.4-7.6-3.3-11.8
				c0.1-5.6,2.5-10.8,6.5-14.7c4.1-3.9,9.4-5.9,15-5.8c5.8,0.1,10.8,2.1,14.5,5.6c3.9,3.8,6.1,9.1,6.1,15.3c0.1,6.7-2.4,16.4-7,27.4
				c-4.8,11.6-11.7,23.9-20,35.9c2.3,1.8,5.9,4.1,10.4,5.6c10.7,3.4,21.8,0.6,33-8.4c2.1-1.7,5.2-1.4,6.9,0.7
				c1.7,2.1,1.4,5.2-0.7,6.9c-7.7,6.2-15.5,10-23.4,11.4C427.2-148.5,424.9-148.3,422.7-148.3z"/>
			<path class="st1" d="M425.2-125.8c-1.3,0-2.6,0-3.9-0.1c-2.7-0.2-4.8-2.5-4.6-5.2c0.2-2.7,2.5-4.8,5.2-4.6
				c1.1,0.1,2.3,0.1,3.4,0.1c10.6,0,21-2.9,30-8.3c8.8-5.3,16-12.8,20.9-21.8c1.3-2.4,4.3-3.2,6.7-1.9c2.4,1.3,3.2,4.3,1.9,6.7
				c-5.8,10.5-14.2,19.3-24.5,25.5C449.7-129.2,437.6-125.8,425.2-125.8z"/>
		</g>
		<g>
			<path class="st2" d="M384.2-113.6C384.2-113.6,384.2-113.6,384.2-113.6c0,0.1,0,0.1,0,0.1C384.2-113.6,384.1-113.6,384.2-113.6
				C384.2-113.6,384.2-113.6,384.2-113.6z"/>
			<path class="st2" d="M379.8-111C379.8-111,379.8-110.9,379.8-111c0,0.1,0,0.1,0,0.1C379.8-110.9,379.7-110.9,379.8-111
				C379.7-111,379.8-111,379.8-111z"/>
			<path class="st1" d="M363.3-173.1c-1.8,0-3.6-0.2-5.4-0.6c-6.3-1.4-11.6-5.2-15-10.6c-3.4-5.4-4.5-11.9-3.1-18.1
				c0.6-2.6,3.2-4.3,5.9-3.7c2.6,0.6,4.3,3.2,3.7,5.9c-1.7,7.6,3.1,15.2,10.7,17c1.1,0.2,2.1,0.4,3.1,0.4c6.5,0,12.3-4.5,13.8-11.1
				c1.3-5.6-0.9-11.3-5.6-14.7c-2.2-1.6-2.7-4.7-1.1-6.9c1.6-2.2,4.7-2.7,6.9-1.1c7.9,5.6,11.6,15.4,9.4,24.8
				c-1.4,6.3-5.2,11.6-10.6,15C372.1-174.4,367.7-173.1,363.3-173.1z"/>
			<path class="st1" d="M325.6-123.6c-4.2,0-8.3-0.7-12.4-2c-10.5-3.5-16.8-10.5-17.1-10.8c-1.5-1.7-1.7-4.3-0.3-6.1
				c9-12.5,16.5-25.5,21.4-37.5c3.9-9.5,6.3-18.3,6.2-23.5c-0.1-9.9-7.7-11.1-11-11.2c-3-0.1-5.8,1-8,3.1c-2.2,2.1-3.4,4.8-3.5,7.8
				c-0.1,2.2,0.5,4.4,1.8,6.3c1.5,2.3,0.8,5.3-1.5,6.8c-2.3,1.5-5.3,0.8-6.8-1.5c-2.3-3.5-3.4-7.6-3.3-11.8
				c0.1-5.6,2.5-10.8,6.5-14.7c4.1-3.9,9.4-5.9,15-5.8c5.8,0.1,10.8,2.1,14.5,5.6c3.9,3.8,6.1,9.1,6.1,15.3c0.1,6.7-2.4,16.4-7,27.4
				c-4.8,11.6-11.7,23.9-20,35.9c2.3,1.8,5.9,4.1,10.4,5.6c10.7,3.4,21.8,0.6,33-8.4c2.1-1.7,5.2-1.4,6.9,0.7
				c1.7,2.1,1.4,5.2-0.7,6.9c-7.7,6.2-15.5,10-23.4,11.4C330.2-123.8,327.9-123.6,325.6-123.6z"/>
			<path class="st1" d="M328.1-101.1c-1.3,0-2.6,0-3.9-0.1c-2.7-0.2-4.8-2.5-4.6-5.2c0.2-2.7,2.5-4.8,5.2-4.6
				c1.1,0.1,2.3,0.1,3.4,0.1c10.6,0,21-2.9,30-8.3c8.8-5.3,16-12.8,20.9-21.8c1.3-2.4,4.3-3.2,6.7-1.9c2.4,1.3,3.2,4.3,1.9,6.7
				c-5.8,10.5-14.2,19.3-24.5,25.5C352.6-104.5,340.5-101.1,328.1-101.1z"/>
		</g>
		<g>
			<path class="st2" d="M287.1-88.9C287.1-88.9,287.2-88.9,287.1-88.9c0,0.1,0,0.1,0,0.1C287.1-88.8,287.1-88.9,287.1-88.9
				C287.1-88.9,287.1-88.9,287.1-88.9z"/>
			<path class="st2" d="M282.7-86.3C282.7-86.3,282.8-86.2,282.7-86.3c0,0.1,0,0.1,0,0.1C282.7-86.2,282.7-86.2,282.7-86.3
				C282.7-86.3,282.7-86.3,282.7-86.3z"/>
			<path class="st1" d="M266.2-148.4c-1.8,0-3.6-0.2-5.4-0.6c-6.3-1.4-11.6-5.2-15-10.6c-3.4-5.4-4.5-11.9-3.1-18.1
				c0.6-2.6,3.2-4.3,5.9-3.7c2.6,0.6,4.3,3.2,3.7,5.9c-1.7,7.6,3.1,15.2,10.7,17c1.1,0.2,2.1,0.4,3.1,0.4c6.5,0,12.3-4.5,13.8-11.1
				c1.3-5.6-0.9-11.3-5.6-14.7c-2.2-1.6-2.7-4.7-1.1-6.9c1.6-2.2,4.7-2.7,6.9-1.1c7.9,5.6,11.6,15.4,9.4,24.8
				c-1.4,6.3-5.2,11.6-10.6,15C275.1-149.7,270.7-148.4,266.2-148.4z"/>
			<path class="st1" d="M228.6-98.8c-4.2,0-8.3-0.7-12.4-2c-10.5-3.5-16.8-10.5-17.1-10.8c-1.5-1.7-1.7-4.3-0.3-6.1
				c9-12.5,16.5-25.5,21.4-37.5c3.9-9.5,6.3-18.3,6.2-23.5c-0.1-9.9-7.7-11.1-11-11.2c-3-0.1-5.8,1-8,3.1c-2.2,2.1-3.4,4.8-3.5,7.8
				c-0.1,2.2,0.5,4.4,1.8,6.3c1.5,2.3,0.8,5.3-1.5,6.8c-2.3,1.5-5.3,0.8-6.8-1.5c-2.3-3.5-3.4-7.6-3.3-11.8
				c0.1-5.6,2.5-10.8,6.5-14.7c4.1-3.9,9.4-5.9,15-5.8c5.8,0.1,10.8,2.1,14.5,5.6c3.9,3.8,6.1,9.1,6.1,15.3c0.1,6.7-2.4,16.4-7,27.4
				c-4.8,11.6-11.7,23.9-20,35.9c2.3,1.8,5.9,4.1,10.4,5.6c10.7,3.4,21.8,0.6,33-8.4c2.1-1.7,5.2-1.4,6.9,0.7
				c1.7,2.1,1.4,5.2-0.7,6.9c-7.7,6.2-15.5,10-23.4,11.4C233.1-99,230.8-98.8,228.6-98.8z"/>
			<path class="st1" d="M231-76.4c-1.3,0-2.6,0-3.9-0.1c-2.7-0.2-4.8-2.5-4.6-5.2c0.2-2.7,2.5-4.8,5.2-4.6c1.1,0.1,2.3,0.1,3.4,0.1
				c10.6,0,21-2.9,30-8.3c8.8-5.3,16-12.8,20.9-21.8c1.3-2.4,4.3-3.2,6.7-1.9c2.4,1.3,3.2,4.3,1.9,6.7
				c-5.8,10.5-14.2,19.3-24.5,25.5C255.6-79.7,243.4-76.4,231-76.4z"/>
		</g>
		<g>
			<path class="st1" d="M169.1-123.7c-1.8,0-3.6-0.2-5.4-0.6c-6.3-1.4-11.6-5.2-15-10.6c-3.4-5.4-4.5-11.9-3.1-18.1
				c0.6-2.6,3.2-4.3,5.9-3.7c2.6,0.6,4.3,3.2,3.7,5.9c-1.7,7.6,3.1,15.2,10.7,17c1.1,0.2,2.1,0.4,3.1,0.4c6.5,0,12.3-4.5,13.8-11.1
				c1.3-5.6-0.9-11.3-5.6-14.7c-2.2-1.6-2.7-4.7-1.1-6.9c1.6-2.2,4.7-2.7,6.9-1.1c7.9,5.6,11.6,15.4,9.4,24.8
				c-1.4,6.3-5.2,11.6-10.6,15C178-125,173.6-123.7,169.1-123.7z"/>
			<path class="st1" d="M131.5-74.1c-4.2,0-8.3-0.7-12.4-2C108.6-79.7,102.3-86.7,102-87c-1.5-1.7-1.7-4.3-0.3-6.1
				c9-12.5,16.5-25.5,21.4-37.5c3.9-9.5,6.3-18.3,6.2-23.5c-0.1-9.9-7.7-11.1-11-11.2c-3-0.1-5.8,1-8,3.1c-2.2,2.1-3.4,4.8-3.5,7.8
				c-0.1,2.2,0.5,4.4,1.8,6.3c1.5,2.3,0.8,5.3-1.5,6.8c-2.3,1.5-5.3,0.8-6.8-1.5c-2.3-3.5-3.4-7.6-3.3-11.8
				c0.1-5.6,2.5-10.8,6.5-14.7c4.1-3.9,9.4-5.9,15-5.8c5.8,0.1,10.8,2.1,14.5,5.6c3.9,3.8,6.1,9.1,6.1,15.3c0.1,6.7-2.4,16.4-7,27.4
				c-4.8,11.6-11.7,23.9-20,35.9c2.3,1.8,5.9,4.1,10.4,5.6c10.7,3.4,21.8,0.6,33-8.4c2.1-1.7,5.2-1.4,6.9,0.7
				c1.7,2.1,1.4,5.2-0.7,6.9c-7.7,6.2-15.5,10-23.4,11.4C136-74.3,133.8-74.1,131.5-74.1z"/>
			<path class="st1" d="M134-51.7c-1.3,0-2.6,0-3.9-0.1c-2.7-0.2-4.8-2.5-4.6-5.2c0.2-2.7,2.5-4.8,5.2-4.6c1.1,0.1,2.3,0.1,3.4,0.1
				c10.6,0,21-2.9,30-8.3c8.8-5.3,16-12.8,20.9-21.8c1.3-2.4,4.3-3.2,6.7-1.9c2.4,1.3,3.2,4.3,1.9,6.7
				c-5.8,10.5-14.2,19.3-24.5,25.5C158.5-55,146.4-51.7,134-51.7z"/>
		</g>
		<g>
			<path class="st1" d="M72.1-99c-1.8,0-3.6-0.2-5.4-0.6c-6.3-1.4-11.6-5.2-15-10.6c-3.4-5.4-4.5-11.9-3.1-18.1
				c0.6-2.6,3.2-4.3,5.9-3.7c2.6,0.6,4.3,3.2,3.7,5.9c-1.7,7.6,3.1,15.2,10.7,17c1.1,0.2,2.1,0.4,3.1,0.4c6.5,0,12.3-4.5,13.8-11.1
				c1.3-5.6-0.9-11.3-5.6-14.7c-2.2-1.6-2.7-4.7-1.1-6.9c1.6-2.2,4.7-2.7,6.9-1.1c7.9,5.6,11.6,15.4,9.4,24.8
				c-1.4,6.3-5.2,11.6-10.6,15C80.9-100.3,76.5-99,72.1-99z"/>
			<path class="st1" d="M34.4-49.4c-4.2,0-8.3-0.7-12.4-2C11.5-55,5.2-62,5-62.3c-1.5-1.7-1.7-4.3-0.3-6.1
				c9-12.5,16.5-25.5,21.4-37.5c3.9-9.5,6.3-18.3,6.2-23.5c-0.1-9.9-7.7-11.1-11-11.2c-3-0.1-5.8,1-8,3.1c-2.2,2.1-3.4,4.8-3.5,7.8
				c-0.1,2.2,0.5,4.4,1.8,6.3c1.5,2.3,0.8,5.3-1.5,6.8c-2.3,1.5-5.3,0.8-6.8-1.5C1-121.7-0.1-125.8,0-130c0.1-5.6,2.5-10.8,6.5-14.7
				c4.1-3.9,9.4-5.9,15-5.8c5.8,0.1,10.8,2.1,14.5,5.6c3.9,3.8,6.1,9.1,6.1,15.3c0.1,6.7-2.4,16.4-7,27.4
				c-4.8,11.6-11.7,23.9-20,35.9c2.3,1.8,5.9,4.1,10.4,5.6c10.7,3.4,21.8,0.6,33-8.4c2.1-1.7,5.2-1.4,6.9,0.7
				c1.7,2.1,1.4,5.2-0.7,6.9C57-55.2,49.1-51.4,41.2-50C39-49.6,36.7-49.4,34.4-49.4z"/>
		</g>
		<g>
			<path class="st2" d="M481.3-261.9C481.3-261.9,481.3-261.8,481.3-261.9c0,0.1,0,0.1,0,0.1C481.2-261.8,481.2-261.9,481.3-261.9
				C481.2-261.9,481.2-261.9,481.3-261.9z"/>
			<path class="st2" d="M476.9-259.3C476.9-259.2,476.9-259.2,476.9-259.3c0,0.1,0,0.1,0,0.1C476.8-259.2,476.8-259.2,476.9-259.3
				C476.8-259.3,476.8-259.3,476.9-259.3z"/>
			<path class="st1" d="M460.3-321.4c-1.8,0-3.6-0.2-5.4-0.6c-6.3-1.4-11.6-5.2-15-10.6c-3.4-5.4-4.5-11.9-3.1-18.1
				c0.6-2.6,3.2-4.3,5.9-3.7c2.6,0.6,4.3,3.2,3.7,5.9c-1.7,7.6,3.1,15.2,10.7,17c1.1,0.2,2.1,0.4,3.1,0.4c6.5,0,12.3-4.5,13.8-11.1
				c1.3-5.6-0.9-11.3-5.6-14.7c-2.2-1.6-2.7-4.7-1.1-6.9c1.6-2.2,4.7-2.7,6.9-1.1c7.9,5.6,11.6,15.4,9.4,24.8
				c-1.4,6.3-5.2,11.6-10.6,15C469.2-322.7,464.8-321.4,460.3-321.4z"/>
			<path class="st1" d="M422.7-271.8c-4.2,0-8.3-0.7-12.4-2c-10.5-3.5-16.8-10.5-17.1-10.8c-1.5-1.7-1.7-4.3-0.3-6.1
				c9-12.5,16.5-25.5,21.4-37.5c3.9-9.5,6.3-18.3,6.2-23.5c-0.1-9.9-7.7-11.1-11-11.2c-3-0.1-5.8,1-8,3.1c-2.2,2.1-3.4,4.8-3.5,7.8
				c-0.1,2.2,0.5,4.4,1.8,6.3c1.5,2.3,0.8,5.3-1.5,6.8c-2.3,1.5-5.3,0.8-6.8-1.5c-2.3-3.5-3.4-7.6-3.3-11.8
				c0.1-5.6,2.5-10.8,6.5-14.7c4.1-3.9,9.4-5.9,15-5.8c5.8,0.1,10.8,2.1,14.5,5.6c3.9,3.8,6.1,9.1,6.1,15.3c0.1,6.7-2.4,16.4-7,27.4
				c-4.8,11.6-11.7,23.9-20,35.9c2.3,1.8,5.9,4.1,10.4,5.6c10.7,3.4,21.8,0.6,33-8.4c2.1-1.7,5.2-1.4,6.9,0.7
				c1.7,2.1,1.4,5.2-0.7,6.9c-7.7,6.2-15.5,10-23.4,11.4C427.2-272,424.9-271.8,422.7-271.8z"/>
			<path class="st1" d="M425.2-249.3c-1.3,0-2.6,0-3.9-0.1c-2.7-0.2-4.8-2.5-4.6-5.2c0.2-2.7,2.5-4.8,5.2-4.6
				c1.1,0.1,2.3,0.1,3.4,0.1c10.6,0,21-2.9,30-8.3c8.8-5.3,16-12.8,20.9-21.8c1.3-2.4,4.3-3.2,6.7-1.9c2.4,1.3,3.2,4.3,1.9,6.7
				c-5.8,10.5-14.2,19.3-24.5,25.5C449.7-252.7,437.6-249.3,425.2-249.3z"/>
		</g>
		<g>
			<path class="st2" d="M384.2-237.2C384.2-237.2,384.2-237.1,384.2-237.2c0,0.1,0,0.1,0,0.1C384.2-237.1,384.1-237.1,384.2-237.2
				C384.2-237.2,384.2-237.2,384.2-237.2z"/>
			<path class="st2" d="M379.8-234.6C379.8-234.5,379.8-234.5,379.8-234.6c0,0.1,0,0.1,0,0.1C379.8-234.5,379.7-234.5,379.8-234.6
				C379.7-234.5,379.8-234.5,379.8-234.6z"/>
			<path class="st1" d="M363.3-296.7c-1.8,0-3.6-0.2-5.4-0.6c-6.3-1.4-11.6-5.2-15-10.6c-3.4-5.4-4.5-11.9-3.1-18.1
				c0.6-2.6,3.2-4.3,5.9-3.7c2.6,0.6,4.3,3.2,3.7,5.9c-1.7,7.6,3.1,15.2,10.7,17c1.1,0.2,2.1,0.4,3.1,0.4c6.5,0,12.3-4.5,13.8-11.1
				c1.3-5.6-0.9-11.3-5.6-14.7c-2.2-1.6-2.7-4.7-1.1-6.9c1.6-2.2,4.7-2.7,6.9-1.1c7.9,5.6,11.6,15.4,9.4,24.8
				c-1.4,6.3-5.2,11.6-10.6,15C372.1-297.9,367.7-296.7,363.3-296.7z"/>
			<path class="st1" d="M325.6-247.1c-4.2,0-8.3-0.7-12.4-2c-10.5-3.5-16.8-10.5-17.1-10.8c-1.5-1.7-1.7-4.3-0.3-6.1
				c9-12.5,16.5-25.5,21.4-37.5c3.9-9.5,6.3-18.3,6.2-23.5c-0.1-9.9-7.7-11.1-11-11.2c-3-0.1-5.8,1-8,3.1c-2.2,2.1-3.4,4.8-3.5,7.8
				c-0.1,2.2,0.5,4.4,1.8,6.3c1.5,2.3,0.8,5.3-1.5,6.8c-2.3,1.5-5.3,0.8-6.8-1.5c-2.3-3.5-3.4-7.6-3.3-11.8
				c0.1-5.6,2.5-10.8,6.5-14.7c4.1-3.9,9.4-5.9,15-5.8c5.8,0.1,10.8,2.1,14.5,5.6c3.9,3.8,6.1,9.1,6.1,15.3c0.1,6.7-2.4,16.4-7,27.4
				c-4.8,11.6-11.7,23.9-20,35.9c2.3,1.8,5.9,4.1,10.4,5.6c10.7,3.4,21.8,0.6,33-8.4c2.1-1.7,5.2-1.4,6.9,0.7
				c1.7,2.1,1.4,5.2-0.7,6.9c-7.7,6.2-15.5,10-23.4,11.4C330.2-247.3,327.9-247.1,325.6-247.1z"/>
			<path class="st1" d="M328.1-224.6c-1.3,0-2.6,0-3.9-0.1c-2.7-0.2-4.8-2.5-4.6-5.2c0.2-2.7,2.5-4.8,5.2-4.6
				c1.1,0.1,2.3,0.1,3.4,0.1c10.6,0,21-2.9,30-8.3c8.8-5.3,16-12.8,20.9-21.8c1.3-2.4,4.3-3.2,6.7-1.9c2.4,1.3,3.2,4.3,1.9,6.7
				c-5.8,10.5-14.2,19.3-24.5,25.5C352.6-228,340.5-224.6,328.1-224.6z"/>
		</g>
		<g>
			<path class="st2" d="M287.1-212.5C287.1-212.5,287.2-212.4,287.1-212.5c0,0.1,0,0.1,0,0.1C287.1-212.4,287.1-212.4,287.1-212.5
				C287.1-212.5,287.1-212.5,287.1-212.5z"/>
			<path class="st2" d="M282.7-209.8C282.7-209.8,282.8-209.8,282.7-209.8c0,0.1,0,0.1,0,0.1C282.7-209.7,282.7-209.8,282.7-209.8
				C282.7-209.8,282.7-209.8,282.7-209.8z"/>
			<path class="st1" d="M266.2-272c-1.8,0-3.6-0.2-5.4-0.6c-6.3-1.4-11.6-5.2-15-10.6c-3.4-5.4-4.5-11.9-3.1-18.1
				c0.6-2.6,3.2-4.3,5.9-3.7c2.6,0.6,4.3,3.2,3.7,5.9c-1.7,7.6,3.1,15.2,10.7,17c1.1,0.2,2.1,0.4,3.1,0.4c6.5,0,12.3-4.5,13.8-11.1
				c1.3-5.6-0.9-11.3-5.6-14.7c-2.2-1.6-2.7-4.7-1.1-6.9c1.6-2.2,4.7-2.7,6.9-1.1c7.9,5.6,11.6,15.4,9.4,24.8
				c-1.4,6.3-5.2,11.6-10.6,15C275.1-273.2,270.7-272,266.2-272z"/>
			<path class="st1" d="M228.6-222.4c-4.2,0-8.3-0.7-12.4-2c-10.5-3.5-16.8-10.5-17.1-10.8c-1.5-1.7-1.7-4.3-0.3-6.1
				c9-12.5,16.5-25.5,21.4-37.5c3.9-9.5,6.3-18.3,6.2-23.5c-0.1-9.9-7.7-11.1-11-11.2c-3-0.1-5.8,1-8,3.1c-2.2,2.1-3.4,4.8-3.5,7.8
				c-0.1,2.2,0.5,4.4,1.8,6.3c1.5,2.3,0.8,5.3-1.5,6.8c-2.3,1.5-5.3,0.8-6.8-1.5c-2.3-3.5-3.4-7.6-3.3-11.8
				c0.1-5.6,2.5-10.8,6.5-14.7c4.1-3.9,9.4-5.9,15-5.8c5.8,0.1,10.8,2.1,14.5,5.6c3.9,3.8,6.1,9.1,6.1,15.3c0.1,6.7-2.4,16.4-7,27.4
				c-4.8,11.6-11.7,23.9-20,35.9c2.3,1.8,5.9,4.1,10.4,5.6c10.7,3.4,21.8,0.6,33-8.4c2.1-1.7,5.2-1.4,6.9,0.7
				c1.7,2.1,1.4,5.2-0.7,6.9c-7.7,6.2-15.5,10-23.4,11.4C233.1-222.6,230.8-222.4,228.6-222.4z"/>
			<path class="st1" d="M231-199.9c-1.3,0-2.6,0-3.9-0.1c-2.7-0.2-4.8-2.5-4.6-5.2c0.2-2.7,2.5-4.8,5.2-4.6c1.1,0.1,2.3,0.1,3.4,0.1
				c10.6,0,21-2.9,30-8.3c8.8-5.3,16-12.8,20.9-21.8c1.3-2.4,4.3-3.2,6.7-1.9c2.4,1.3,3.2,4.3,1.9,6.7
				c-5.8,10.5-14.2,19.3-24.5,25.5C255.6-203.3,243.4-199.9,231-199.9z"/>
		</g>
		<g>
			<path class="st2" d="M190.1-187.8C190.1-187.7,190.1-187.7,190.1-187.8c0,0.1,0,0.1,0,0.1C190-187.7,190-187.7,190.1-187.8
				C190-187.8,190-187.8,190.1-187.8z"/>
			<path class="st2" d="M185.7-185.1C185.7-185.1,185.7-185.1,185.7-185.1c0,0.1,0,0.1,0,0.1C185.6-185,185.6-185.1,185.7-185.1
				C185.6-185.1,185.6-185.1,185.7-185.1z"/>
			<path class="st1" d="M169.1-247.3c-1.8,0-3.6-0.2-5.4-0.6c-6.3-1.4-11.6-5.2-15-10.6c-3.4-5.4-4.5-11.9-3.1-18.1
				c0.6-2.6,3.2-4.3,5.9-3.7c2.6,0.6,4.3,3.2,3.7,5.9c-1.7,7.6,3.1,15.2,10.7,17c1.1,0.2,2.1,0.4,3.1,0.4c6.5,0,12.3-4.5,13.8-11.1
				c1.3-5.6-0.9-11.3-5.6-14.7c-2.2-1.6-2.7-4.7-1.1-6.9c1.6-2.2,4.7-2.7,6.9-1.1c7.9,5.6,11.6,15.4,9.4,24.8
				c-1.4,6.3-5.2,11.6-10.6,15C178-248.5,173.6-247.3,169.1-247.3z"/>
			<path class="st1" d="M131.5-197.7c-4.2,0-8.3-0.7-12.4-2c-10.5-3.5-16.8-10.5-17.1-10.8c-1.5-1.7-1.7-4.3-0.3-6.1
				c9-12.5,16.5-25.5,21.4-37.5c3.9-9.5,6.3-18.3,6.2-23.5c-0.1-9.9-7.7-11.1-11-11.2c-3-0.1-5.8,1-8,3.1c-2.2,2.1-3.4,4.8-3.5,7.8
				c-0.1,2.2,0.5,4.4,1.8,6.3c1.5,2.3,0.8,5.3-1.5,6.8c-2.3,1.5-5.3,0.8-6.8-1.5c-2.3-3.5-3.4-7.6-3.3-11.8
				c0.1-5.6,2.5-10.8,6.5-14.7c4.1-3.9,9.4-5.9,15-5.8c5.8,0.1,10.8,2.1,14.5,5.6c3.9,3.8,6.1,9.1,6.1,15.3c0.1,6.7-2.4,16.4-7,27.4
				c-4.8,11.6-11.7,23.9-20,35.9c2.3,1.8,5.9,4.1,10.4,5.6c10.7,3.4,21.8,0.6,33-8.4c2.1-1.7,5.2-1.4,6.9,0.7
				c1.7,2.1,1.4,5.2-0.7,6.9c-7.7,6.2-15.5,10-23.4,11.4C136-197.9,133.8-197.7,131.5-197.7z"/>
			<path class="st1" d="M134-175.2c-1.3,0-2.6,0-3.9-0.1c-2.7-0.2-4.8-2.5-4.6-5.2c0.2-2.7,2.5-4.8,5.2-4.6c1.1,0.1,2.3,0.1,3.4,0.1
				c10.6,0,21-2.9,30-8.3c8.8-5.3,16-12.8,20.9-21.8c1.3-2.4,4.3-3.2,6.7-1.9c2.4,1.3,3.2,4.3,1.9,6.7
				c-5.8,10.5-14.2,19.3-24.5,25.5C158.5-178.6,146.4-175.2,134-175.2z"/>
		</g>
		<g>
			<path class="st2" d="M93-163.1C93-163,93-163,93-163.1c0,0.1,0,0.1,0,0.1C93-163,93-163,93-163.1C93-163,93-163.1,93-163.1z"/>
			<path class="st2" d="M88.6-160.4C88.6-160.4,88.6-160.4,88.6-160.4c0,0.1,0,0.1,0,0.1C88.6-160.3,88.5-160.4,88.6-160.4
				C88.5-160.4,88.6-160.4,88.6-160.4z"/>
			<path class="st1" d="M72.1-222.6c-1.8,0-3.6-0.2-5.4-0.6c-6.3-1.4-11.6-5.2-15-10.6c-3.4-5.4-4.5-11.9-3.1-18.1
				c0.6-2.6,3.2-4.3,5.9-3.7c2.6,0.6,4.3,3.2,3.7,5.9c-1.7,7.6,3.1,15.2,10.7,17c1.1,0.2,2.1,0.4,3.1,0.4c6.5,0,12.3-4.5,13.8-11.1
				c1.3-5.6-0.9-11.3-5.6-14.7c-2.2-1.6-2.7-4.7-1.1-6.9c1.6-2.2,4.7-2.7,6.9-1.1c7.9,5.6,11.6,15.4,9.4,24.8
				c-1.4,6.3-5.2,11.6-10.6,15C80.9-223.8,76.5-222.6,72.1-222.6z"/>
			<path class="st1" d="M34.4-173c-4.2,0-8.3-0.7-12.4-2C11.5-178.6,5.2-185.5,5-185.8c-1.5-1.7-1.7-4.3-0.3-6.1
				c9-12.5,16.5-25.5,21.4-37.5c3.9-9.5,6.3-18.3,6.2-23.5c-0.1-9.9-7.7-11.1-11-11.2c-3-0.1-5.8,1-8,3.1c-2.2,2.1-3.4,4.8-3.5,7.8
				c-0.1,2.2,0.5,4.4,1.8,6.3c1.5,2.3,0.8,5.3-1.5,6.8c-2.3,1.5-5.3,0.8-6.8-1.5c-2.3-3.5-3.4-7.6-3.3-11.8
				c0.1-5.6,2.5-10.8,6.5-14.7c4.1-3.9,9.4-5.9,15-5.8c5.8,0.1,10.8,2.1,14.5,5.6c3.9,3.8,6.1,9.1,6.1,15.3c0.1,6.7-2.4,16.4-7,27.4
				c-4.8,11.6-11.7,23.9-20,35.9c2.3,1.8,5.9,4.1,10.4,5.6c10.7,3.4,21.8,0.6,33-8.4c2.1-1.7,5.2-1.4,6.9,0.7
				c1.7,2.1,1.4,5.2-0.7,6.9c-7.7,6.2-15.5,10-23.4,11.4C39-173.2,36.7-173,34.4-173z"/>
			<path class="st1" d="M36.9-150.5c-1.3,0-2.6,0-3.9-0.1c-2.7-0.2-4.8-2.5-4.6-5.2c0.2-2.7,2.5-4.8,5.2-4.6
				c1.1,0.1,2.3,0.1,3.4,0.1c10.6,0,21-2.9,30-8.3c8.8-5.3,16-12.8,20.9-21.8c1.3-2.4,4.3-3.2,6.7-1.9c2.4,1.3,3.2,4.3,1.9,6.7
				c-5.8,10.5-14.2,19.3-24.5,25.5C61.4-153.9,49.3-150.5,36.9-150.5z"/>
		</g>
		<g>
			<path class="st2" d="M481.3-385.4C481.3-385.4,481.3-385.4,481.3-385.4c0,0.1,0,0.1,0,0.1C481.2-385.4,481.2-385.4,481.3-385.4
				C481.2-385.4,481.2-385.4,481.3-385.4z"/>
			<path class="st2" d="M476.9-382.8C476.9-382.8,476.9-382.8,476.9-382.8c0,0.1,0,0.1,0,0.1C476.8-382.7,476.8-382.8,476.9-382.8
				C476.8-382.8,476.8-382.8,476.9-382.8z"/>
			<path class="st1" d="M460.3-445c-1.8,0-3.6-0.2-5.4-0.6c-6.3-1.4-11.6-5.2-15-10.6c-3.4-5.4-4.5-11.9-3.1-18.1
				c0.6-2.6,3.2-4.3,5.9-3.7c2.6,0.6,4.3,3.2,3.7,5.9c-1.7,7.6,3.1,15.2,10.7,17c1.1,0.2,2.1,0.4,3.1,0.4c6.5,0,12.3-4.5,13.8-11.1
				c1.3-5.6-0.9-11.3-5.6-14.7c-2.2-1.6-2.7-4.7-1.1-6.9c1.6-2.2,4.7-2.7,6.9-1.1c7.9,5.6,11.6,15.4,9.4,24.8
				c-1.4,6.3-5.2,11.6-10.6,15C469.2-446.2,464.8-445,460.3-445z"/>
			<path class="st1" d="M422.7-395.4c-4.2,0-8.3-0.7-12.4-2c-10.5-3.5-16.8-10.5-17.1-10.8c-1.5-1.7-1.7-4.3-0.3-6.1
				c9-12.5,16.5-25.5,21.4-37.5c3.9-9.5,6.3-18.3,6.2-23.5c-0.1-9.9-7.7-11.1-11-11.2c-3-0.1-5.8,1-8,3.1c-2.2,2.1-3.4,4.8-3.5,7.8
				c-0.1,2.2,0.5,4.4,1.8,6.3c1.5,2.3,0.8,5.3-1.5,6.8c-2.3,1.5-5.3,0.8-6.8-1.5c-2.3-3.5-3.4-7.6-3.3-11.8
				c0.1-5.6,2.5-10.8,6.5-14.7c4.1-3.9,9.4-5.9,15-5.8c5.8,0.1,10.8,2.1,14.5,5.6c3.9,3.8,6.1,9.1,6.1,15.3c0.1,6.7-2.4,16.4-7,27.4
				c-4.8,11.6-11.7,23.9-20,35.9c2.3,1.8,5.9,4.1,10.4,5.6c10.7,3.4,21.8,0.6,33-8.4c2.1-1.7,5.2-1.4,6.9,0.7
				c1.7,2.1,1.4,5.2-0.7,6.9c-7.7,6.2-15.5,10-23.4,11.4C427.2-395.6,424.9-395.4,422.7-395.4z"/>
			<path class="st1" d="M425.2-372.9c-1.3,0-2.6,0-3.9-0.1c-2.7-0.2-4.8-2.5-4.6-5.2c0.2-2.7,2.5-4.8,5.2-4.6
				c1.1,0.1,2.3,0.1,3.4,0.1c10.6,0,21-2.9,30-8.3c8.8-5.3,16-12.8,20.9-21.8c1.3-2.4,4.3-3.2,6.7-1.9c2.4,1.3,3.2,4.3,1.9,6.7
				c-5.8,10.5-14.2,19.3-24.5,25.5C449.7-376.3,437.6-372.9,425.2-372.9z"/>
		</g>
		<g>
			<path class="st2" d="M384.2-360.7C384.2-360.7,384.2-360.7,384.2-360.7c0,0.1,0,0.1,0,0.1C384.2-360.7,384.1-360.7,384.2-360.7
				C384.2-360.7,384.2-360.7,384.2-360.7z"/>
			<path class="st2" d="M379.8-358.1C379.8-358.1,379.8-358.1,379.8-358.1c0,0.1,0,0.1,0,0.1C379.8-358,379.7-358.1,379.8-358.1
				C379.7-358.1,379.8-358.1,379.8-358.1z"/>
			<path class="st1" d="M363.3-420.2c-1.8,0-3.6-0.2-5.4-0.6c-6.3-1.4-11.6-5.2-15-10.6c-3.4-5.4-4.5-11.9-3.1-18.1
				c0.6-2.6,3.2-4.3,5.9-3.7c2.6,0.6,4.3,3.2,3.7,5.9c-1.7,7.6,3.1,15.2,10.7,17c1.1,0.2,2.1,0.4,3.1,0.4c6.5,0,12.3-4.5,13.8-11.1
				c1.3-5.6-0.9-11.3-5.6-14.7c-2.2-1.6-2.7-4.7-1.1-6.9c1.6-2.2,4.7-2.7,6.9-1.1c7.9,5.6,11.6,15.4,9.4,24.8
				c-1.4,6.3-5.2,11.6-10.6,15C372.1-421.5,367.7-420.2,363.3-420.2z"/>
			<path class="st1" d="M325.6-370.7c-4.2,0-8.3-0.7-12.4-2c-10.5-3.5-16.8-10.5-17.1-10.8c-1.5-1.7-1.7-4.3-0.3-6.1
				c9-12.5,16.5-25.5,21.4-37.5c3.9-9.5,6.3-18.3,6.2-23.5c-0.1-9.9-7.7-11.1-11-11.2c-3-0.1-5.8,1-8,3.1c-2.2,2.1-3.4,4.8-3.5,7.8
				c-0.1,2.2,0.5,4.4,1.8,6.3c1.5,2.3,0.8,5.3-1.5,6.8c-2.3,1.5-5.3,0.8-6.8-1.5c-2.3-3.5-3.4-7.6-3.3-11.8
				c0.1-5.6,2.5-10.8,6.5-14.7c4.1-3.9,9.4-5.9,15-5.8c5.8,0.1,10.8,2.1,14.5,5.6c3.9,3.8,6.1,9.1,6.1,15.3c0.1,6.7-2.4,16.4-7,27.4
				c-4.8,11.6-11.7,23.9-20,35.9c2.3,1.8,5.9,4.1,10.4,5.6c10.7,3.4,21.8,0.6,33-8.4c2.1-1.7,5.2-1.4,6.9,0.7
				c1.7,2.1,1.4,5.2-0.7,6.9c-7.7,6.2-15.5,10-23.4,11.4C330.2-370.9,327.9-370.7,325.6-370.7z"/>
			<path class="st1" d="M328.1-348.2c-1.3,0-2.6,0-3.9-0.1c-2.7-0.2-4.8-2.5-4.6-5.2c0.2-2.7,2.5-4.8,5.2-4.6
				c1.1,0.1,2.3,0.1,3.4,0.1c10.6,0,21-2.9,30-8.3c8.8-5.3,16-12.8,20.9-21.8c1.3-2.4,4.3-3.2,6.7-1.9c2.4,1.3,3.2,4.3,1.9,6.7
				c-5.8,10.5-14.2,19.3-24.5,25.5C352.6-351.6,340.5-348.2,328.1-348.2z"/>
		</g>
		<g>
			<path class="st2" d="M287.1-336C287.1-336,287.2-336,287.1-336c0,0.1,0,0.1,0,0.1C287.1-335.9,287.1-336,287.1-336
				C287.1-336,287.1-336,287.1-336z"/>
			<path class="st2" d="M282.7-333.4C282.7-333.4,282.8-333.3,282.7-333.4c0,0.1,0,0.1,0,0.1C282.7-333.3,282.7-333.3,282.7-333.4
				C282.7-333.4,282.7-333.4,282.7-333.4z"/>
			<path class="st1" d="M266.2-395.5c-1.8,0-3.6-0.2-5.4-0.6c-6.3-1.4-11.6-5.2-15-10.6c-3.4-5.4-4.5-11.9-3.1-18.1
				c0.6-2.6,3.2-4.3,5.9-3.7c2.6,0.6,4.3,3.2,3.7,5.9c-1.7,7.6,3.1,15.2,10.7,17c1.1,0.2,2.1,0.4,3.1,0.4c6.5,0,12.3-4.5,13.8-11.1
				c1.3-5.6-0.9-11.3-5.6-14.7c-2.2-1.6-2.7-4.7-1.1-6.9c1.6-2.2,4.7-2.7,6.9-1.1c7.9,5.6,11.6,15.4,9.4,24.8
				c-1.4,6.3-5.2,11.6-10.6,15C275.1-396.8,270.7-395.5,266.2-395.5z"/>
			<path class="st1" d="M228.6-345.9c-4.2,0-8.3-0.7-12.4-2c-10.5-3.5-16.8-10.5-17.1-10.8c-1.5-1.7-1.7-4.3-0.3-6.1
				c9-12.5,16.5-25.5,21.4-37.5c3.9-9.5,6.3-18.3,6.2-23.5c-0.1-9.9-7.7-11.1-11-11.2c-3-0.1-5.8,1-8,3.1c-2.2,2.1-3.4,4.8-3.5,7.8
				c-0.1,2.2,0.5,4.4,1.8,6.3c1.5,2.3,0.8,5.3-1.5,6.8c-2.3,1.5-5.3,0.8-6.8-1.5c-2.3-3.5-3.4-7.6-3.3-11.8
				c0.1-5.6,2.5-10.8,6.5-14.7c4.1-3.9,9.4-5.9,15-5.8c5.8,0.1,10.8,2.1,14.5,5.6c3.9,3.8,6.1,9.1,6.1,15.3c0.1,6.7-2.4,16.4-7,27.4
				c-4.8,11.6-11.7,23.9-20,35.9c2.3,1.8,5.9,4.1,10.4,5.6c10.7,3.4,21.8,0.6,33-8.4c2.1-1.7,5.2-1.4,6.9,0.7
				c1.7,2.1,1.4,5.2-0.7,6.9c-7.7,6.2-15.5,10-23.4,11.4C233.1-346.1,230.8-345.9,228.6-345.9z"/>
			<path class="st1" d="M231-323.5c-1.3,0-2.6,0-3.9-0.1c-2.7-0.2-4.8-2.5-4.6-5.2c0.2-2.7,2.5-4.8,5.2-4.6c1.1,0.1,2.3,0.1,3.4,0.1
				c10.6,0,21-2.9,30-8.3c8.8-5.3,16-12.8,20.9-21.8c1.3-2.4,4.3-3.2,6.7-1.9c2.4,1.3,3.2,4.3,1.9,6.7
				c-5.8,10.5-14.2,19.3-24.5,25.5C255.6-326.8,243.4-323.5,231-323.5z"/>
		</g>
		<g>
			<path class="st2" d="M190.1-311.3C190.1-311.3,190.1-311.3,190.1-311.3c0,0.1,0,0.1,0,0.1C190-311.2,190-311.3,190.1-311.3
				C190-311.3,190-311.3,190.1-311.3z"/>
			<path class="st2" d="M185.7-308.7C185.7-308.7,185.7-308.6,185.7-308.7c0,0.1,0,0.1,0,0.1C185.6-308.6,185.6-308.6,185.7-308.7
				C185.6-308.7,185.6-308.7,185.7-308.7z"/>
			<path class="st1" d="M169.1-370.8c-1.8,0-3.6-0.2-5.4-0.6c-6.3-1.4-11.6-5.2-15-10.6c-3.4-5.4-4.5-11.9-3.1-18.1
				c0.6-2.6,3.2-4.3,5.9-3.7c2.6,0.6,4.3,3.2,3.7,5.9c-1.7,7.6,3.1,15.2,10.7,17c1.1,0.2,2.1,0.4,3.1,0.4c6.5,0,12.3-4.5,13.8-11.1
				c1.3-5.6-0.9-11.3-5.6-14.7c-2.2-1.6-2.7-4.7-1.1-6.9c1.6-2.2,4.7-2.7,6.9-1.1c7.9,5.6,11.6,15.4,9.4,24.8
				c-1.4,6.3-5.2,11.6-10.6,15C178-372.1,173.6-370.8,169.1-370.8z"/>
			<path class="st1" d="M131.5-321.2c-4.2,0-8.3-0.7-12.4-2c-10.5-3.5-16.8-10.5-17.1-10.8c-1.5-1.7-1.7-4.3-0.3-6.1
				c9-12.5,16.5-25.5,21.4-37.5c3.9-9.5,6.3-18.3,6.2-23.5c-0.1-9.9-7.7-11.1-11-11.2c-3-0.1-5.8,1-8,3.1c-2.2,2.1-3.4,4.8-3.5,7.8
				c-0.1,2.2,0.5,4.4,1.8,6.3c1.5,2.3,0.8,5.3-1.5,6.8c-2.3,1.5-5.3,0.8-6.8-1.5c-2.3-3.5-3.4-7.6-3.3-11.8
				c0.1-5.6,2.5-10.8,6.5-14.7c4.1-3.9,9.4-5.9,15-5.8c5.8,0.1,10.8,2.1,14.5,5.6c3.9,3.8,6.1,9.1,6.1,15.3c0.1,6.7-2.4,16.4-7,27.4
				c-4.8,11.6-11.7,23.9-20,35.9c2.3,1.8,5.9,4.1,10.4,5.6c10.7,3.4,21.8,0.6,33-8.4c2.1-1.7,5.2-1.4,6.9,0.7
				c1.7,2.1,1.4,5.2-0.7,6.9c-7.7,6.2-15.5,10-23.4,11.4C136-321.4,133.8-321.2,131.5-321.2z"/>
			<path class="st1" d="M134-298.8c-1.3,0-2.6,0-3.9-0.1c-2.7-0.2-4.8-2.5-4.6-5.2c0.2-2.7,2.5-4.8,5.2-4.6c1.1,0.1,2.3,0.1,3.4,0.1
				c10.6,0,21-2.9,30-8.3c8.8-5.3,16-12.8,20.9-21.8c1.3-2.4,4.3-3.2,6.7-1.9c2.4,1.3,3.2,4.3,1.9,6.7
				c-5.8,10.5-14.2,19.3-24.5,25.5C158.5-302.1,146.4-298.8,134-298.8z"/>
		</g>
		<g>
			<path class="st2" d="M93-286.6C93-286.6,93-286.6,93-286.6c0,0.1,0,0.1,0,0.1C93-286.5,93-286.6,93-286.6
				C93-286.6,93-286.6,93-286.6z"/>
			<path class="st2" d="M88.6-284C88.6-283.9,88.6-283.9,88.6-284c0,0.1,0,0.1,0,0.1C88.6-283.9,88.5-283.9,88.6-284
				C88.5-284,88.6-284,88.6-284z"/>
			<path class="st1" d="M72.1-346.1c-1.8,0-3.6-0.2-5.4-0.6c-6.3-1.4-11.6-5.2-15-10.6c-3.4-5.4-4.5-11.9-3.1-18.1
				c0.6-2.6,3.2-4.3,5.9-3.7c2.6,0.6,4.3,3.2,3.7,5.9c-1.7,7.6,3.1,15.2,10.7,17c1.1,0.2,2.1,0.4,3.1,0.4c6.5,0,12.3-4.5,13.8-11.1
				c1.3-5.6-0.9-11.3-5.6-14.7c-2.2-1.6-2.7-4.7-1.1-6.9c1.6-2.2,4.7-2.7,6.9-1.1c7.9,5.6,11.6,15.4,9.4,24.8
				c-1.4,6.3-5.2,11.6-10.6,15C80.9-347.4,76.5-346.1,72.1-346.1z"/>
			<path class="st1" d="M34.4-296.5c-4.2,0-8.3-0.7-12.4-2C11.5-302.1,5.2-309.1,5-309.4c-1.5-1.7-1.7-4.3-0.3-6.1
				c9-12.5,16.5-25.5,21.4-37.5c3.9-9.5,6.3-18.3,6.2-23.5c-0.1-9.9-7.7-11.1-11-11.2c-3-0.1-5.8,1-8,3.1c-2.2,2.1-3.4,4.8-3.5,7.8
				c-0.1,2.2,0.5,4.4,1.8,6.3c1.5,2.3,0.8,5.3-1.5,6.8c-2.3,1.5-5.3,0.8-6.8-1.5c-2.3-3.5-3.4-7.6-3.3-11.8
				c0.1-5.6,2.5-10.8,6.5-14.7c4.1-3.9,9.4-5.9,15-5.8c5.8,0.1,10.8,2.1,14.5,5.6c3.9,3.8,6.1,9.1,6.1,15.3c0.1,6.7-2.4,16.4-7,27.4
				c-4.8,11.6-11.7,23.9-20,35.9c2.3,1.8,5.9,4.1,10.4,5.6c10.7,3.4,21.8,0.6,33-8.4c2.1-1.7,5.2-1.4,6.9,0.7
				c1.7,2.1,1.4,5.2-0.7,6.9c-7.7,6.2-15.5,10-23.4,11.4C39-296.7,36.7-296.5,34.4-296.5z"/>
			<path class="st1" d="M36.9-274.1c-1.3,0-2.6,0-3.9-0.1c-2.7-0.2-4.8-2.5-4.6-5.2c0.2-2.7,2.5-4.8,5.2-4.6
				c1.1,0.1,2.3,0.1,3.4,0.1c10.6,0,21-2.9,30-8.3c8.8-5.3,16-12.8,20.9-21.8c1.3-2.4,4.3-3.2,6.7-1.9c2.4,1.3,3.2,4.3,1.9,6.7
				C90.7-298.8,82.2-290,72-283.8C61.4-277.4,49.3-274.1,36.9-274.1z"/>
		</g>
		<g>
			<path class="st2" d="M190.1-434.9C190.1-434.8,190.1-434.8,190.1-434.9c0,0.1,0,0.1,0,0.1C190-434.8,190-434.8,190.1-434.9
				C190-434.9,190-434.9,190.1-434.9z"/>
			<path class="st2" d="M185.7-432.2C185.7-432.2,185.7-432.2,185.7-432.2c0,0.1,0,0.1,0,0.1C185.6-432.1,185.6-432.2,185.7-432.2
				C185.6-432.2,185.6-432.2,185.7-432.2z"/>
			<path class="st1" d="M131.5-444.8c-4.2,0-8.3-0.7-12.4-2c-10.5-3.5-16.8-10.5-17.1-10.8c-1.5-1.7-1.7-4.3-0.3-6.1
				c9-12.5,16.5-25.5,21.4-37.5c3.9-9.5,6.3-18.3,6.2-23.5c-0.1-9.9-7.7-11.1-11-11.2c-3-0.1-5.8,1-8,3.1c-2.2,2.1-3.4,4.8-3.5,7.8
				c-0.1,2.2,0.5,4.4,1.8,6.3c1.5,2.3,0.8,5.3-1.5,6.8c-2.3,1.5-5.3,0.8-6.8-1.5c-2.3-3.5-3.4-7.6-3.3-11.8
				c0.1-5.6,2.5-10.8,6.5-14.7c4.1-3.9,9.4-5.9,15-5.8c5.8,0.1,10.8,2.1,14.5,5.6c3.9,3.8,6.1,9.1,6.1,15.3c0.1,6.7-2.4,16.4-7,27.4
				c-4.8,11.6-11.7,23.9-20,35.9c2.3,1.8,5.9,4.1,10.4,5.6c10.7,3.4,21.8,0.6,33-8.4c2.1-1.7,5.2-1.4,6.9,0.7
				c1.7,2.1,1.4,5.2-0.7,6.9c-7.7,6.2-15.5,10-23.4,11.4C136-445,133.8-444.8,131.5-444.8z"/>
			<path class="st1" d="M134-422.3c-1.3,0-2.6,0-3.9-0.1c-2.7-0.2-4.8-2.5-4.6-5.2c0.2-2.7,2.5-4.8,5.2-4.6c1.1,0.1,2.3,0.1,3.4,0.1
				c10.6,0,21-2.9,30-8.3c8.8-5.3,16-12.8,20.9-21.8c1.3-2.4,4.3-3.2,6.7-1.9c2.4,1.3,3.2,4.3,1.9,6.7
				c-5.8,10.5-14.2,19.3-24.5,25.5C158.5-425.7,146.4-422.3,134-422.3z"/>
		</g>
		<g>
			<path class="st2" d="M93-410.2C93-410.1,93-410.1,93-410.2c0,0.1,0,0.1,0,0.1C93-410.1,93-410.1,93-410.2
				C93-410.2,93-410.2,93-410.2z"/>
			<path class="st2" d="M88.6-407.5C88.6-407.5,88.6-407.5,88.6-407.5c0,0.1,0,0.1,0,0.1C88.6-407.4,88.5-407.5,88.6-407.5
				C88.5-407.5,88.6-407.5,88.6-407.5z"/>
			<path class="st1" d="M34.4-420.1c-4.2,0-8.3-0.7-12.4-2C11.5-425.7,5.2-432.6,5-432.9c-1.5-1.7-1.7-4.3-0.3-6.1
				c9-12.5,16.5-25.5,21.4-37.5c3.9-9.5,6.3-18.3,6.2-23.5c-0.1-9.9-7.7-11.1-11-11.2c-3-0.1-5.8,1-8,3.1c-2.2,2.1-3.4,4.8-3.5,7.8
				c-0.1,2.2,0.5,4.4,1.8,6.3c1.5,2.3,0.8,5.3-1.5,6.8c-2.3,1.5-5.3,0.8-6.8-1.5c-2.3-3.5-3.4-7.6-3.3-11.8
				c0.1-5.6,2.5-10.8,6.5-14.7c4.1-3.9,9.4-5.9,15-5.8c5.8,0.1,10.8,2.1,14.5,5.6c3.9,3.8,6.1,9.1,6.1,15.3c0.1,6.7-2.4,16.4-7,27.4
				c-4.8,11.6-11.7,23.9-20,35.9c2.3,1.8,5.9,4.1,10.4,5.6c10.7,3.4,21.8,0.6,33-8.4c2.1-1.7,5.2-1.4,6.9,0.7
				c1.7,2.1,1.4,5.2-0.7,6.9c-7.7,6.2-15.5,10-23.4,11.4C39-420.3,36.7-420.1,34.4-420.1z"/>
			<path class="st1" d="M36.9-397.6c-1.3,0-2.6,0-3.9-0.1c-2.7-0.2-4.8-2.5-4.6-5.2c0.2-2.7,2.5-4.8,5.2-4.6
				c1.1,0.1,2.3,0.1,3.4,0.1c10.6,0,21-2.9,30-8.3c8.8-5.3,16-12.8,20.9-21.8c1.3-2.4,4.3-3.2,6.7-1.9c2.4,1.3,3.2,4.3,1.9,6.7
				c-5.8,10.5-14.2,19.3-24.5,25.5C61.4-401,49.3-397.6,36.9-397.6z"/>
		</g>
	</g>
</pattern>
<pattern  y="-216.5" width="485.3" height="370.7" patternUnits="userSpaceOnUse" id="Nouveau_motif_2" viewBox="0 -447 485.3 370.7" style="overflow:visible;">
	<g>
		<rect x="0" y="-447" class="st0" width="485.3" height="370.7"/>
		<g>
			<path class="st2" d="M460.3-74.3c-1.8,0-3.6-0.2-5.4-0.6c-6.3-1.4-11.6-5.2-15-10.6c-3.4-5.4-4.5-11.9-3.1-18.1
				c0.6-2.6,3.2-4.3,5.9-3.7c2.6,0.6,4.3,3.2,3.7,5.9c-1.7,7.6,3.1,15.2,10.7,17c1.1,0.2,2.1,0.4,3.1,0.4c6.5,0,12.3-4.5,13.8-11.1
				c1.3-5.6-0.9-11.3-5.6-14.7c-2.2-1.6-2.7-4.7-1.1-6.9c1.6-2.2,4.7-2.7,6.9-1.1c7.9,5.6,11.6,15.4,9.4,24.8
				c-1.4,6.3-5.2,11.6-10.6,15C469.2-75.6,464.8-74.3,460.3-74.3z"/>
			<path class="st2" d="M422.7-24.7c-4.2,0-8.3-0.7-12.4-2c-10.5-3.5-16.8-10.5-17.1-10.8c-1.5-1.7-1.7-4.3-0.3-6.1
				c9-12.5,16.5-25.5,21.4-37.5c3.9-9.5,6.3-18.3,6.2-23.5c-0.1-9.9-7.7-11.1-11-11.2c-3-0.1-5.8,1-8,3.1c-2.2,2.1-3.4,4.8-3.5,7.8
				c-0.1,2.2,0.5,4.4,1.8,6.3c1.5,2.3,0.8,5.3-1.5,6.8c-2.3,1.5-5.3,0.8-6.8-1.5c-2.3-3.5-3.4-7.6-3.3-11.8
				c0.1-5.6,2.5-10.8,6.5-14.7c4.1-3.9,9.4-5.9,15-5.8c5.8,0.1,10.8,2.1,14.5,5.6c3.9,3.8,6.1,9.1,6.1,15.3c0.1,6.7-2.4,16.4-7,27.4
				c-4.8,11.6-11.7,23.9-20,35.9c2.3,1.8,5.9,4.1,10.4,5.6c10.7,3.4,21.8,0.6,33-8.4c2.1-1.7,5.2-1.4,6.9,0.7
				c1.7,2.1,1.4,5.2-0.7,6.9c-7.7,6.2-15.5,10-23.4,11.4C427.2-24.9,424.9-24.7,422.7-24.7z"/>
		</g>
		<g>
			<path class="st2" d="M363.3-49.6c-1.8,0-3.6-0.2-5.4-0.6c-6.3-1.4-11.6-5.2-15-10.6c-3.4-5.4-4.5-11.9-3.1-18.1
				c0.6-2.6,3.2-4.3,5.9-3.7c2.6,0.6,4.3,3.2,3.7,5.9c-1.7,7.6,3.1,15.2,10.7,17c1.1,0.2,2.1,0.4,3.1,0.4c6.5,0,12.3-4.5,13.8-11.1
				c1.3-5.6-0.9-11.3-5.6-14.7c-2.2-1.6-2.7-4.7-1.1-6.9c1.6-2.2,4.7-2.7,6.9-1.1c7.9,5.6,11.6,15.4,9.4,24.8
				c-1.4,6.3-5.2,11.6-10.6,15C372.1-50.8,367.7-49.6,363.3-49.6z"/>
			<path class="st2" d="M325.6,0c-4.2,0-8.3-0.7-12.4-2c-10.5-3.5-16.8-10.5-17.1-10.8c-1.5-1.7-1.7-4.3-0.3-6.1
				c9-12.5,16.5-25.5,21.4-37.5c3.9-9.5,6.3-18.3,6.2-23.5c-0.1-9.9-7.7-11.1-11-11.2c-3-0.1-5.8,1-8,3.1c-2.2,2.1-3.4,4.8-3.5,7.8
				c-0.1,2.2,0.5,4.4,1.8,6.3c1.5,2.3,0.8,5.3-1.5,6.8c-2.3,1.5-5.3,0.8-6.8-1.5c-2.3-3.5-3.4-7.6-3.3-11.8
				c0.1-5.6,2.5-10.8,6.5-14.7c4.1-3.9,9.4-5.9,15-5.8c5.8,0.1,10.8,2.1,14.5,5.6c3.9,3.8,6.1,9.1,6.1,15.3c0.1,6.7-2.4,16.4-7,27.4
				c-4.8,11.6-11.7,23.9-20,35.9c2.3,1.8,5.9,4.1,10.4,5.6c10.7,3.4,21.8,0.6,33-8.4c2.1-1.7,5.2-1.4,6.9,0.7
				c1.7,2.1,1.4,5.2-0.7,6.9c-7.7,6.2-15.5,10-23.4,11.4C330.2-0.2,327.9,0,325.6,0z"/>
		</g>
		<g>
			<path class="st2" d="M481.3-138.3C481.3-138.3,481.3-138.3,481.3-138.3c0,0.1,0,0.1,0,0.1C481.2-138.3,481.2-138.3,481.3-138.3
				C481.2-138.3,481.2-138.3,481.3-138.3z"/>
			<path class="st2" d="M476.9-135.7C476.9-135.7,476.9-135.7,476.9-135.7c0,0.1,0,0.1,0,0.1C476.8-135.6,476.8-135.7,476.9-135.7
				C476.8-135.7,476.8-135.7,476.9-135.7z"/>
			<path class="st2" d="M460.3-197.8c-1.8,0-3.6-0.2-5.4-0.6c-6.3-1.4-11.6-5.2-15-10.6c-3.4-5.4-4.5-11.9-3.1-18.1
				c0.6-2.6,3.2-4.3,5.9-3.7c2.6,0.6,4.3,3.2,3.7,5.9c-1.7,7.6,3.1,15.2,10.7,17c1.1,0.2,2.1,0.4,3.1,0.4c6.5,0,12.3-4.5,13.8-11.1
				c1.3-5.6-0.9-11.3-5.6-14.7c-2.2-1.6-2.7-4.7-1.1-6.9c1.6-2.2,4.7-2.7,6.9-1.1c7.9,5.6,11.6,15.4,9.4,24.8
				c-1.4,6.3-5.2,11.6-10.6,15C469.2-199.1,464.8-197.8,460.3-197.8z"/>
			<path class="st2" d="M422.7-148.3c-4.2,0-8.3-0.7-12.4-2c-10.5-3.5-16.8-10.5-17.1-10.8c-1.5-1.7-1.7-4.3-0.3-6.1
				c9-12.5,16.5-25.5,21.4-37.5c3.9-9.5,6.3-18.3,6.2-23.5c-0.1-9.9-7.7-11.1-11-11.2c-3-0.1-5.8,1-8,3.1c-2.2,2.1-3.4,4.8-3.5,7.8
				c-0.1,2.2,0.5,4.4,1.8,6.3c1.5,2.3,0.8,5.3-1.5,6.8c-2.3,1.5-5.3,0.8-6.8-1.5c-2.3-3.5-3.4-7.6-3.3-11.8
				c0.1-5.6,2.5-10.8,6.5-14.7c4.1-3.9,9.4-5.9,15-5.8c5.8,0.1,10.8,2.1,14.5,5.6c3.9,3.8,6.1,9.1,6.1,15.3c0.1,6.7-2.4,16.4-7,27.4
				c-4.8,11.6-11.7,23.9-20,35.9c2.3,1.8,5.9,4.1,10.4,5.6c10.7,3.4,21.8,0.6,33-8.4c2.1-1.7,5.2-1.4,6.9,0.7
				c1.7,2.1,1.4,5.2-0.7,6.9c-7.7,6.2-15.5,10-23.4,11.4C427.2-148.5,424.9-148.3,422.7-148.3z"/>
			<path class="st2" d="M425.2-125.8c-1.3,0-2.6,0-3.9-0.1c-2.7-0.2-4.8-2.5-4.6-5.2c0.2-2.7,2.5-4.8,5.2-4.6
				c1.1,0.1,2.3,0.1,3.4,0.1c10.6,0,21-2.9,30-8.3c8.8-5.3,16-12.8,20.9-21.8c1.3-2.4,4.3-3.2,6.7-1.9c2.4,1.3,3.2,4.3,1.9,6.7
				c-5.8,10.5-14.2,19.3-24.5,25.5C449.7-129.2,437.6-125.8,425.2-125.8z"/>
		</g>
		<g>
			<path class="st2" d="M384.2-113.6C384.2-113.6,384.2-113.6,384.2-113.6c0,0.1,0,0.1,0,0.1C384.2-113.6,384.1-113.6,384.2-113.6
				C384.2-113.6,384.2-113.6,384.2-113.6z"/>
			<path class="st2" d="M379.8-111C379.8-111,379.8-110.9,379.8-111c0,0.1,0,0.1,0,0.1C379.8-110.9,379.7-110.9,379.8-111
				C379.7-111,379.8-111,379.8-111z"/>
			<path class="st2" d="M363.3-173.1c-1.8,0-3.6-0.2-5.4-0.6c-6.3-1.4-11.6-5.2-15-10.6c-3.4-5.4-4.5-11.9-3.1-18.1
				c0.6-2.6,3.2-4.3,5.9-3.7c2.6,0.6,4.3,3.2,3.7,5.9c-1.7,7.6,3.1,15.2,10.7,17c1.1,0.2,2.1,0.4,3.1,0.4c6.5,0,12.3-4.5,13.8-11.1
				c1.3-5.6-0.9-11.3-5.6-14.7c-2.2-1.6-2.7-4.7-1.1-6.9c1.6-2.2,4.7-2.7,6.9-1.1c7.9,5.6,11.6,15.4,9.4,24.8
				c-1.4,6.3-5.2,11.6-10.6,15C372.1-174.4,367.7-173.1,363.3-173.1z"/>
			<path class="st2" d="M325.6-123.6c-4.2,0-8.3-0.7-12.4-2c-10.5-3.5-16.8-10.5-17.1-10.8c-1.5-1.7-1.7-4.3-0.3-6.1
				c9-12.5,16.5-25.5,21.4-37.5c3.9-9.5,6.3-18.3,6.2-23.5c-0.1-9.9-7.7-11.1-11-11.2c-3-0.1-5.8,1-8,3.1c-2.2,2.1-3.4,4.8-3.5,7.8
				c-0.1,2.2,0.5,4.4,1.8,6.3c1.5,2.3,0.8,5.3-1.5,6.8c-2.3,1.5-5.3,0.8-6.8-1.5c-2.3-3.5-3.4-7.6-3.3-11.8
				c0.1-5.6,2.5-10.8,6.5-14.7c4.1-3.9,9.4-5.9,15-5.8c5.8,0.1,10.8,2.1,14.5,5.6c3.9,3.8,6.1,9.1,6.1,15.3c0.1,6.7-2.4,16.4-7,27.4
				c-4.8,11.6-11.7,23.9-20,35.9c2.3,1.8,5.9,4.1,10.4,5.6c10.7,3.4,21.8,0.6,33-8.4c2.1-1.7,5.2-1.4,6.9,0.7
				c1.7,2.1,1.4,5.2-0.7,6.9c-7.7,6.2-15.5,10-23.4,11.4C330.2-123.8,327.9-123.6,325.6-123.6z"/>
			<path class="st2" d="M328.1-101.1c-1.3,0-2.6,0-3.9-0.1c-2.7-0.2-4.8-2.5-4.6-5.2c0.2-2.7,2.5-4.8,5.2-4.6
				c1.1,0.1,2.3,0.1,3.4,0.1c10.6,0,21-2.9,30-8.3c8.8-5.3,16-12.8,20.9-21.8c1.3-2.4,4.3-3.2,6.7-1.9c2.4,1.3,3.2,4.3,1.9,6.7
				c-5.8,10.5-14.2,19.3-24.5,25.5C352.6-104.5,340.5-101.1,328.1-101.1z"/>
		</g>
		<g>
			<path class="st2" d="M287.1-88.9C287.1-88.9,287.2-88.9,287.1-88.9c0,0.1,0,0.1,0,0.1C287.1-88.8,287.1-88.9,287.1-88.9
				C287.1-88.9,287.1-88.9,287.1-88.9z"/>
			<path class="st2" d="M282.7-86.3C282.7-86.3,282.8-86.2,282.7-86.3c0,0.1,0,0.1,0,0.1C282.7-86.2,282.7-86.2,282.7-86.3
				C282.7-86.3,282.7-86.3,282.7-86.3z"/>
			<path class="st2" d="M266.2-148.4c-1.8,0-3.6-0.2-5.4-0.6c-6.3-1.4-11.6-5.2-15-10.6c-3.4-5.4-4.5-11.9-3.1-18.1
				c0.6-2.6,3.2-4.3,5.9-3.7c2.6,0.6,4.3,3.2,3.7,5.9c-1.7,7.6,3.1,15.2,10.7,17c1.1,0.2,2.1,0.4,3.1,0.4c6.5,0,12.3-4.5,13.8-11.1
				c1.3-5.6-0.9-11.3-5.6-14.7c-2.2-1.6-2.7-4.7-1.1-6.9c1.6-2.2,4.7-2.7,6.9-1.1c7.9,5.6,11.6,15.4,9.4,24.8
				c-1.4,6.3-5.2,11.6-10.6,15C275.1-149.7,270.7-148.4,266.2-148.4z"/>
			<path class="st2" d="M228.6-98.8c-4.2,0-8.3-0.7-12.4-2c-10.5-3.5-16.8-10.5-17.1-10.8c-1.5-1.7-1.7-4.3-0.3-6.1
				c9-12.5,16.5-25.5,21.4-37.5c3.9-9.5,6.3-18.3,6.2-23.5c-0.1-9.9-7.7-11.1-11-11.2c-3-0.1-5.8,1-8,3.1c-2.2,2.1-3.4,4.8-3.5,7.8
				c-0.1,2.2,0.5,4.4,1.8,6.3c1.5,2.3,0.8,5.3-1.5,6.8c-2.3,1.5-5.3,0.8-6.8-1.5c-2.3-3.5-3.4-7.6-3.3-11.8
				c0.1-5.6,2.5-10.8,6.5-14.7c4.1-3.9,9.4-5.9,15-5.8c5.8,0.1,10.8,2.1,14.5,5.6c3.9,3.8,6.1,9.1,6.1,15.3c0.1,6.7-2.4,16.4-7,27.4
				c-4.8,11.6-11.7,23.9-20,35.9c2.3,1.8,5.9,4.1,10.4,5.6c10.7,3.4,21.8,0.6,33-8.4c2.1-1.7,5.2-1.4,6.9,0.7
				c1.7,2.1,1.4,5.2-0.7,6.9c-7.7,6.2-15.5,10-23.4,11.4C233.1-99,230.8-98.8,228.6-98.8z"/>
			<path class="st2" d="M231-76.4c-1.3,0-2.6,0-3.9-0.1c-2.7-0.2-4.8-2.5-4.6-5.2c0.2-2.7,2.5-4.8,5.2-4.6c1.1,0.1,2.3,0.1,3.4,0.1
				c10.6,0,21-2.9,30-8.3c8.8-5.3,16-12.8,20.9-21.8c1.3-2.4,4.3-3.2,6.7-1.9c2.4,1.3,3.2,4.3,1.9,6.7
				c-5.8,10.5-14.2,19.3-24.5,25.5C255.6-79.7,243.4-76.4,231-76.4z"/>
		</g>
		<g>
			<path class="st2" d="M169.1-123.7c-1.8,0-3.6-0.2-5.4-0.6c-6.3-1.4-11.6-5.2-15-10.6c-3.4-5.4-4.5-11.9-3.1-18.1
				c0.6-2.6,3.2-4.3,5.9-3.7c2.6,0.6,4.3,3.2,3.7,5.9c-1.7,7.6,3.1,15.2,10.7,17c1.1,0.2,2.1,0.4,3.1,0.4c6.5,0,12.3-4.5,13.8-11.1
				c1.3-5.6-0.9-11.3-5.6-14.7c-2.2-1.6-2.7-4.7-1.1-6.9c1.6-2.2,4.7-2.7,6.9-1.1c7.9,5.6,11.6,15.4,9.4,24.8
				c-1.4,6.3-5.2,11.6-10.6,15C178-125,173.6-123.7,169.1-123.7z"/>
			<path class="st2" d="M131.5-74.1c-4.2,0-8.3-0.7-12.4-2C108.6-79.7,102.3-86.7,102-87c-1.5-1.7-1.7-4.3-0.3-6.1
				c9-12.5,16.5-25.5,21.4-37.5c3.9-9.5,6.3-18.3,6.2-23.5c-0.1-9.9-7.7-11.1-11-11.2c-3-0.1-5.8,1-8,3.1c-2.2,2.1-3.4,4.8-3.5,7.8
				c-0.1,2.2,0.5,4.4,1.8,6.3c1.5,2.3,0.8,5.3-1.5,6.8c-2.3,1.5-5.3,0.8-6.8-1.5c-2.3-3.5-3.4-7.6-3.3-11.8
				c0.1-5.6,2.5-10.8,6.5-14.7c4.1-3.9,9.4-5.9,15-5.8c5.8,0.1,10.8,2.1,14.5,5.6c3.9,3.8,6.1,9.1,6.1,15.3c0.1,6.7-2.4,16.4-7,27.4
				c-4.8,11.6-11.7,23.9-20,35.9c2.3,1.8,5.9,4.1,10.4,5.6c10.7,3.4,21.8,0.6,33-8.4c2.1-1.7,5.2-1.4,6.9,0.7
				c1.7,2.1,1.4,5.2-0.7,6.9c-7.7,6.2-15.5,10-23.4,11.4C136-74.3,133.8-74.1,131.5-74.1z"/>
			<path class="st2" d="M134-51.7c-1.3,0-2.6,0-3.9-0.1c-2.7-0.2-4.8-2.5-4.6-5.2c0.2-2.7,2.5-4.8,5.2-4.6c1.1,0.1,2.3,0.1,3.4,0.1
				c10.6,0,21-2.9,30-8.3c8.8-5.3,16-12.8,20.9-21.8c1.3-2.4,4.3-3.2,6.7-1.9c2.4,1.3,3.2,4.3,1.9,6.7
				c-5.8,10.5-14.2,19.3-24.5,25.5C158.5-55,146.4-51.7,134-51.7z"/>
		</g>
		<g>
			<path class="st2" d="M72.1-99c-1.8,0-3.6-0.2-5.4-0.6c-6.3-1.4-11.6-5.2-15-10.6c-3.4-5.4-4.5-11.9-3.1-18.1
				c0.6-2.6,3.2-4.3,5.9-3.7c2.6,0.6,4.3,3.2,3.7,5.9c-1.7,7.6,3.1,15.2,10.7,17c1.1,0.2,2.1,0.4,3.1,0.4c6.5,0,12.3-4.5,13.8-11.1
				c1.3-5.6-0.9-11.3-5.6-14.7c-2.2-1.6-2.7-4.7-1.1-6.9c1.6-2.2,4.7-2.7,6.9-1.1c7.9,5.6,11.6,15.4,9.4,24.8
				c-1.4,6.3-5.2,11.6-10.6,15C80.9-100.3,76.5-99,72.1-99z"/>
			<path class="st2" d="M34.4-49.4c-4.2,0-8.3-0.7-12.4-2C11.5-55,5.2-62,5-62.3c-1.5-1.7-1.7-4.3-0.3-6.1
				c9-12.5,16.5-25.5,21.4-37.5c3.9-9.5,6.3-18.3,6.2-23.5c-0.1-9.9-7.7-11.1-11-11.2c-3-0.1-5.8,1-8,3.1c-2.2,2.1-3.4,4.8-3.5,7.8
				c-0.1,2.2,0.5,4.4,1.8,6.3c1.5,2.3,0.8,5.3-1.5,6.8c-2.3,1.5-5.3,0.8-6.8-1.5C1-121.7-0.1-125.8,0-130c0.1-5.6,2.5-10.8,6.5-14.7
				c4.1-3.9,9.4-5.9,15-5.8c5.8,0.1,10.8,2.1,14.5,5.6c3.9,3.8,6.1,9.1,6.1,15.3c0.1,6.7-2.4,16.4-7,27.4
				c-4.8,11.6-11.7,23.9-20,35.9c2.3,1.8,5.9,4.1,10.4,5.6c10.7,3.4,21.8,0.6,33-8.4c2.1-1.7,5.2-1.4,6.9,0.7
				c1.7,2.1,1.4,5.2-0.7,6.9C57-55.2,49.1-51.4,41.2-50C39-49.6,36.7-49.4,34.4-49.4z"/>
		</g>
		<g>
			<path class="st2" d="M481.3-261.9C481.3-261.9,481.3-261.8,481.3-261.9c0,0.1,0,0.1,0,0.1C481.2-261.8,481.2-261.9,481.3-261.9
				C481.2-261.9,481.2-261.9,481.3-261.9z"/>
			<path class="st2" d="M476.9-259.3C476.9-259.2,476.9-259.2,476.9-259.3c0,0.1,0,0.1,0,0.1C476.8-259.2,476.8-259.2,476.9-259.3
				C476.8-259.3,476.8-259.3,476.9-259.3z"/>
			<path class="st2" d="M460.3-321.4c-1.8,0-3.6-0.2-5.4-0.6c-6.3-1.4-11.6-5.2-15-10.6c-3.4-5.4-4.5-11.9-3.1-18.1
				c0.6-2.6,3.2-4.3,5.9-3.7c2.6,0.6,4.3,3.2,3.7,5.9c-1.7,7.6,3.1,15.2,10.7,17c1.1,0.2,2.1,0.4,3.1,0.4c6.5,0,12.3-4.5,13.8-11.1
				c1.3-5.6-0.9-11.3-5.6-14.7c-2.2-1.6-2.7-4.7-1.1-6.9c1.6-2.2,4.7-2.7,6.9-1.1c7.9,5.6,11.6,15.4,9.4,24.8
				c-1.4,6.3-5.2,11.6-10.6,15C469.2-322.7,464.8-321.4,460.3-321.4z"/>
			<path class="st2" d="M422.7-271.8c-4.2,0-8.3-0.7-12.4-2c-10.5-3.5-16.8-10.5-17.1-10.8c-1.5-1.7-1.7-4.3-0.3-6.1
				c9-12.5,16.5-25.5,21.4-37.5c3.9-9.5,6.3-18.3,6.2-23.5c-0.1-9.9-7.7-11.1-11-11.2c-3-0.1-5.8,1-8,3.1c-2.2,2.1-3.4,4.8-3.5,7.8
				c-0.1,2.2,0.5,4.4,1.8,6.3c1.5,2.3,0.8,5.3-1.5,6.8c-2.3,1.5-5.3,0.8-6.8-1.5c-2.3-3.5-3.4-7.6-3.3-11.8
				c0.1-5.6,2.5-10.8,6.5-14.7c4.1-3.9,9.4-5.9,15-5.8c5.8,0.1,10.8,2.1,14.5,5.6c3.9,3.8,6.1,9.1,6.1,15.3c0.1,6.7-2.4,16.4-7,27.4
				c-4.8,11.6-11.7,23.9-20,35.9c2.3,1.8,5.9,4.1,10.4,5.6c10.7,3.4,21.8,0.6,33-8.4c2.1-1.7,5.2-1.4,6.9,0.7
				c1.7,2.1,1.4,5.2-0.7,6.9c-7.7,6.2-15.5,10-23.4,11.4C427.2-272,424.9-271.8,422.7-271.8z"/>
			<path class="st2" d="M425.2-249.3c-1.3,0-2.6,0-3.9-0.1c-2.7-0.2-4.8-2.5-4.6-5.2c0.2-2.7,2.5-4.8,5.2-4.6
				c1.1,0.1,2.3,0.1,3.4,0.1c10.6,0,21-2.9,30-8.3c8.8-5.3,16-12.8,20.9-21.8c1.3-2.4,4.3-3.2,6.7-1.9c2.4,1.3,3.2,4.3,1.9,6.7
				c-5.8,10.5-14.2,19.3-24.5,25.5C449.7-252.7,437.6-249.3,425.2-249.3z"/>
		</g>
		<g>
			<path class="st2" d="M384.2-237.2C384.2-237.2,384.2-237.1,384.2-237.2c0,0.1,0,0.1,0,0.1C384.2-237.1,384.1-237.1,384.2-237.2
				C384.2-237.2,384.2-237.2,384.2-237.2z"/>
			<path class="st2" d="M379.8-234.6C379.8-234.5,379.8-234.5,379.8-234.6c0,0.1,0,0.1,0,0.1C379.8-234.5,379.7-234.5,379.8-234.6
				C379.7-234.5,379.8-234.5,379.8-234.6z"/>
			<path class="st2" d="M363.3-296.7c-1.8,0-3.6-0.2-5.4-0.6c-6.3-1.4-11.6-5.2-15-10.6c-3.4-5.4-4.5-11.9-3.1-18.1
				c0.6-2.6,3.2-4.3,5.9-3.7c2.6,0.6,4.3,3.2,3.7,5.9c-1.7,7.6,3.1,15.2,10.7,17c1.1,0.2,2.1,0.4,3.1,0.4c6.5,0,12.3-4.5,13.8-11.1
				c1.3-5.6-0.9-11.3-5.6-14.7c-2.2-1.6-2.7-4.7-1.1-6.9c1.6-2.2,4.7-2.7,6.9-1.1c7.9,5.6,11.6,15.4,9.4,24.8
				c-1.4,6.3-5.2,11.6-10.6,15C372.1-297.9,367.7-296.7,363.3-296.7z"/>
			<path class="st2" d="M325.6-247.1c-4.2,0-8.3-0.7-12.4-2c-10.5-3.5-16.8-10.5-17.1-10.8c-1.5-1.7-1.7-4.3-0.3-6.1
				c9-12.5,16.5-25.5,21.4-37.5c3.9-9.5,6.3-18.3,6.2-23.5c-0.1-9.9-7.7-11.1-11-11.2c-3-0.1-5.8,1-8,3.1c-2.2,2.1-3.4,4.8-3.5,7.8
				c-0.1,2.2,0.5,4.4,1.8,6.3c1.5,2.3,0.8,5.3-1.5,6.8c-2.3,1.5-5.3,0.8-6.8-1.5c-2.3-3.5-3.4-7.6-3.3-11.8
				c0.1-5.6,2.5-10.8,6.5-14.7c4.1-3.9,9.4-5.9,15-5.8c5.8,0.1,10.8,2.1,14.5,5.6c3.9,3.8,6.1,9.1,6.1,15.3c0.1,6.7-2.4,16.4-7,27.4
				c-4.8,11.6-11.7,23.9-20,35.9c2.3,1.8,5.9,4.1,10.4,5.6c10.7,3.4,21.8,0.6,33-8.4c2.1-1.7,5.2-1.4,6.9,0.7
				c1.7,2.1,1.4,5.2-0.7,6.9c-7.7,6.2-15.5,10-23.4,11.4C330.2-247.3,327.9-247.1,325.6-247.1z"/>
			<path class="st2" d="M328.1-224.6c-1.3,0-2.6,0-3.9-0.1c-2.7-0.2-4.8-2.5-4.6-5.2c0.2-2.7,2.5-4.8,5.2-4.6
				c1.1,0.1,2.3,0.1,3.4,0.1c10.6,0,21-2.9,30-8.3c8.8-5.3,16-12.8,20.9-21.8c1.3-2.4,4.3-3.2,6.7-1.9c2.4,1.3,3.2,4.3,1.9,6.7
				c-5.8,10.5-14.2,19.3-24.5,25.5C352.6-228,340.5-224.6,328.1-224.6z"/>
		</g>
		<g>
			<path class="st2" d="M287.1-212.5C287.1-212.5,287.2-212.4,287.1-212.5c0,0.1,0,0.1,0,0.1C287.1-212.4,287.1-212.4,287.1-212.5
				C287.1-212.5,287.1-212.5,287.1-212.5z"/>
			<path class="st2" d="M282.7-209.8C282.7-209.8,282.8-209.8,282.7-209.8c0,0.1,0,0.1,0,0.1C282.7-209.7,282.7-209.8,282.7-209.8
				C282.7-209.8,282.7-209.8,282.7-209.8z"/>
			<path class="st2" d="M266.2-272c-1.8,0-3.6-0.2-5.4-0.6c-6.3-1.4-11.6-5.2-15-10.6c-3.4-5.4-4.5-11.9-3.1-18.1
				c0.6-2.6,3.2-4.3,5.9-3.7c2.6,0.6,4.3,3.2,3.7,5.9c-1.7,7.6,3.1,15.2,10.7,17c1.1,0.2,2.1,0.4,3.1,0.4c6.5,0,12.3-4.5,13.8-11.1
				c1.3-5.6-0.9-11.3-5.6-14.7c-2.2-1.6-2.7-4.7-1.1-6.9c1.6-2.2,4.7-2.7,6.9-1.1c7.9,5.6,11.6,15.4,9.4,24.8
				c-1.4,6.3-5.2,11.6-10.6,15C275.1-273.2,270.7-272,266.2-272z"/>
			<path class="st2" d="M228.6-222.4c-4.2,0-8.3-0.7-12.4-2c-10.5-3.5-16.8-10.5-17.1-10.8c-1.5-1.7-1.7-4.3-0.3-6.1
				c9-12.5,16.5-25.5,21.4-37.5c3.9-9.5,6.3-18.3,6.2-23.5c-0.1-9.9-7.7-11.1-11-11.2c-3-0.1-5.8,1-8,3.1c-2.2,2.1-3.4,4.8-3.5,7.8
				c-0.1,2.2,0.5,4.4,1.8,6.3c1.5,2.3,0.8,5.3-1.5,6.8c-2.3,1.5-5.3,0.8-6.8-1.5c-2.3-3.5-3.4-7.6-3.3-11.8
				c0.1-5.6,2.5-10.8,6.5-14.7c4.1-3.9,9.4-5.9,15-5.8c5.8,0.1,10.8,2.1,14.5,5.6c3.9,3.8,6.1,9.1,6.1,15.3c0.1,6.7-2.4,16.4-7,27.4
				c-4.8,11.6-11.7,23.9-20,35.9c2.3,1.8,5.9,4.1,10.4,5.6c10.7,3.4,21.8,0.6,33-8.4c2.1-1.7,5.2-1.4,6.9,0.7
				c1.7,2.1,1.4,5.2-0.7,6.9c-7.7,6.2-15.5,10-23.4,11.4C233.1-222.6,230.8-222.4,228.6-222.4z"/>
			<path class="st2" d="M231-199.9c-1.3,0-2.6,0-3.9-0.1c-2.7-0.2-4.8-2.5-4.6-5.2c0.2-2.7,2.5-4.8,5.2-4.6c1.1,0.1,2.3,0.1,3.4,0.1
				c10.6,0,21-2.9,30-8.3c8.8-5.3,16-12.8,20.9-21.8c1.3-2.4,4.3-3.2,6.7-1.9c2.4,1.3,3.2,4.3,1.9,6.7
				c-5.8,10.5-14.2,19.3-24.5,25.5C255.6-203.3,243.4-199.9,231-199.9z"/>
		</g>
		<g>
			<path class="st2" d="M190.1-187.8C190.1-187.7,190.1-187.7,190.1-187.8c0,0.1,0,0.1,0,0.1C190-187.7,190-187.7,190.1-187.8
				C190-187.8,190-187.8,190.1-187.8z"/>
			<path class="st2" d="M185.7-185.1C185.7-185.1,185.7-185.1,185.7-185.1c0,0.1,0,0.1,0,0.1C185.6-185,185.6-185.1,185.7-185.1
				C185.6-185.1,185.6-185.1,185.7-185.1z"/>
			<path class="st2" d="M169.1-247.3c-1.8,0-3.6-0.2-5.4-0.6c-6.3-1.4-11.6-5.2-15-10.6c-3.4-5.4-4.5-11.9-3.1-18.1
				c0.6-2.6,3.2-4.3,5.9-3.7c2.6,0.6,4.3,3.2,3.7,5.9c-1.7,7.6,3.1,15.2,10.7,17c1.1,0.2,2.1,0.4,3.1,0.4c6.5,0,12.3-4.5,13.8-11.1
				c1.3-5.6-0.9-11.3-5.6-14.7c-2.2-1.6-2.7-4.7-1.1-6.9c1.6-2.2,4.7-2.7,6.9-1.1c7.9,5.6,11.6,15.4,9.4,24.8
				c-1.4,6.3-5.2,11.6-10.6,15C178-248.5,173.6-247.3,169.1-247.3z"/>
			<path class="st2" d="M131.5-197.7c-4.2,0-8.3-0.7-12.4-2c-10.5-3.5-16.8-10.5-17.1-10.8c-1.5-1.7-1.7-4.3-0.3-6.1
				c9-12.5,16.5-25.5,21.4-37.5c3.9-9.5,6.3-18.3,6.2-23.5c-0.1-9.9-7.7-11.1-11-11.2c-3-0.1-5.8,1-8,3.1c-2.2,2.1-3.4,4.8-3.5,7.8
				c-0.1,2.2,0.5,4.4,1.8,6.3c1.5,2.3,0.8,5.3-1.5,6.8c-2.3,1.5-5.3,0.8-6.8-1.5c-2.3-3.5-3.4-7.6-3.3-11.8
				c0.1-5.6,2.5-10.8,6.5-14.7c4.1-3.9,9.4-5.9,15-5.8c5.8,0.1,10.8,2.1,14.5,5.6c3.9,3.8,6.1,9.1,6.1,15.3c0.1,6.7-2.4,16.4-7,27.4
				c-4.8,11.6-11.7,23.9-20,35.9c2.3,1.8,5.9,4.1,10.4,5.6c10.7,3.4,21.8,0.6,33-8.4c2.1-1.7,5.2-1.4,6.9,0.7
				c1.7,2.1,1.4,5.2-0.7,6.9c-7.7,6.2-15.5,10-23.4,11.4C136-197.9,133.8-197.7,131.5-197.7z"/>
			<path class="st2" d="M134-175.2c-1.3,0-2.6,0-3.9-0.1c-2.7-0.2-4.8-2.5-4.6-5.2c0.2-2.7,2.5-4.8,5.2-4.6c1.1,0.1,2.3,0.1,3.4,0.1
				c10.6,0,21-2.9,30-8.3c8.8-5.3,16-12.8,20.9-21.8c1.3-2.4,4.3-3.2,6.7-1.9c2.4,1.3,3.2,4.3,1.9,6.7
				c-5.8,10.5-14.2,19.3-24.5,25.5C158.5-178.6,146.4-175.2,134-175.2z"/>
		</g>
		<g>
			<path class="st2" d="M93-163.1C93-163,93-163,93-163.1c0,0.1,0,0.1,0,0.1C93-163,93-163,93-163.1C93-163,93-163.1,93-163.1z"/>
			<path class="st2" d="M88.6-160.4C88.6-160.4,88.6-160.4,88.6-160.4c0,0.1,0,0.1,0,0.1C88.6-160.3,88.5-160.4,88.6-160.4
				C88.5-160.4,88.6-160.4,88.6-160.4z"/>
			<path class="st2" d="M72.1-222.6c-1.8,0-3.6-0.2-5.4-0.6c-6.3-1.4-11.6-5.2-15-10.6c-3.4-5.4-4.5-11.9-3.1-18.1
				c0.6-2.6,3.2-4.3,5.9-3.7c2.6,0.6,4.3,3.2,3.7,5.9c-1.7,7.6,3.1,15.2,10.7,17c1.1,0.2,2.1,0.4,3.1,0.4c6.5,0,12.3-4.5,13.8-11.1
				c1.3-5.6-0.9-11.3-5.6-14.7c-2.2-1.6-2.7-4.7-1.1-6.9c1.6-2.2,4.7-2.7,6.9-1.1c7.9,5.6,11.6,15.4,9.4,24.8
				c-1.4,6.3-5.2,11.6-10.6,15C80.9-223.8,76.5-222.6,72.1-222.6z"/>
			<path class="st2" d="M34.4-173c-4.2,0-8.3-0.7-12.4-2C11.5-178.6,5.2-185.5,5-185.8c-1.5-1.7-1.7-4.3-0.3-6.1
				c9-12.5,16.5-25.5,21.4-37.5c3.9-9.5,6.3-18.3,6.2-23.5c-0.1-9.9-7.7-11.1-11-11.2c-3-0.1-5.8,1-8,3.1c-2.2,2.1-3.4,4.8-3.5,7.8
				c-0.1,2.2,0.5,4.4,1.8,6.3c1.5,2.3,0.8,5.3-1.5,6.8c-2.3,1.5-5.3,0.8-6.8-1.5c-2.3-3.5-3.4-7.6-3.3-11.8
				c0.1-5.6,2.5-10.8,6.5-14.7c4.1-3.9,9.4-5.9,15-5.8c5.8,0.1,10.8,2.1,14.5,5.6c3.9,3.8,6.1,9.1,6.1,15.3c0.1,6.7-2.4,16.4-7,27.4
				c-4.8,11.6-11.7,23.9-20,35.9c2.3,1.8,5.9,4.1,10.4,5.6c10.7,3.4,21.8,0.6,33-8.4c2.1-1.7,5.2-1.4,6.9,0.7
				c1.7,2.1,1.4,5.2-0.7,6.9c-7.7,6.2-15.5,10-23.4,11.4C39-173.2,36.7-173,34.4-173z"/>
			<path class="st2" d="M36.9-150.5c-1.3,0-2.6,0-3.9-0.1c-2.7-0.2-4.8-2.5-4.6-5.2c0.2-2.7,2.5-4.8,5.2-4.6
				c1.1,0.1,2.3,0.1,3.4,0.1c10.6,0,21-2.9,30-8.3c8.8-5.3,16-12.8,20.9-21.8c1.3-2.4,4.3-3.2,6.7-1.9c2.4,1.3,3.2,4.3,1.9,6.7
				c-5.8,10.5-14.2,19.3-24.5,25.5C61.4-153.9,49.3-150.5,36.9-150.5z"/>
		</g>
		<g>
			<path class="st2" d="M481.3-385.4C481.3-385.4,481.3-385.4,481.3-385.4c0,0.1,0,0.1,0,0.1C481.2-385.4,481.2-385.4,481.3-385.4
				C481.2-385.4,481.2-385.4,481.3-385.4z"/>
			<path class="st2" d="M476.9-382.8C476.9-382.8,476.9-382.8,476.9-382.8c0,0.1,0,0.1,0,0.1C476.8-382.7,476.8-382.8,476.9-382.8
				C476.8-382.8,476.8-382.8,476.9-382.8z"/>
			<path class="st2" d="M460.3-445c-1.8,0-3.6-0.2-5.4-0.6c-6.3-1.4-11.6-5.2-15-10.6c-3.4-5.4-4.5-11.9-3.1-18.1
				c0.6-2.6,3.2-4.3,5.9-3.7c2.6,0.6,4.3,3.2,3.7,5.9c-1.7,7.6,3.1,15.2,10.7,17c1.1,0.2,2.1,0.4,3.1,0.4c6.5,0,12.3-4.5,13.8-11.1
				c1.3-5.6-0.9-11.3-5.6-14.7c-2.2-1.6-2.7-4.7-1.1-6.9c1.6-2.2,4.7-2.7,6.9-1.1c7.9,5.6,11.6,15.4,9.4,24.8
				c-1.4,6.3-5.2,11.6-10.6,15C469.2-446.2,464.8-445,460.3-445z"/>
			<path class="st2" d="M422.7-395.4c-4.2,0-8.3-0.7-12.4-2c-10.5-3.5-16.8-10.5-17.1-10.8c-1.5-1.7-1.7-4.3-0.3-6.1
				c9-12.5,16.5-25.5,21.4-37.5c3.9-9.5,6.3-18.3,6.2-23.5c-0.1-9.9-7.7-11.1-11-11.2c-3-0.1-5.8,1-8,3.1c-2.2,2.1-3.4,4.8-3.5,7.8
				c-0.1,2.2,0.5,4.4,1.8,6.3c1.5,2.3,0.8,5.3-1.5,6.8c-2.3,1.5-5.3,0.8-6.8-1.5c-2.3-3.5-3.4-7.6-3.3-11.8
				c0.1-5.6,2.5-10.8,6.5-14.7c4.1-3.9,9.4-5.9,15-5.8c5.8,0.1,10.8,2.1,14.5,5.6c3.9,3.8,6.1,9.1,6.1,15.3c0.1,6.7-2.4,16.4-7,27.4
				c-4.8,11.6-11.7,23.9-20,35.9c2.3,1.8,5.9,4.1,10.4,5.6c10.7,3.4,21.8,0.6,33-8.4c2.1-1.7,5.2-1.4,6.9,0.7
				c1.7,2.1,1.4,5.2-0.7,6.9c-7.7,6.2-15.5,10-23.4,11.4C427.2-395.6,424.9-395.4,422.7-395.4z"/>
			<path class="st2" d="M425.2-372.9c-1.3,0-2.6,0-3.9-0.1c-2.7-0.2-4.8-2.5-4.6-5.2c0.2-2.7,2.5-4.8,5.2-4.6
				c1.1,0.1,2.3,0.1,3.4,0.1c10.6,0,21-2.9,30-8.3c8.8-5.3,16-12.8,20.9-21.8c1.3-2.4,4.3-3.2,6.7-1.9c2.4,1.3,3.2,4.3,1.9,6.7
				c-5.8,10.5-14.2,19.3-24.5,25.5C449.7-376.3,437.6-372.9,425.2-372.9z"/>
		</g>
		<g>
			<path class="st2" d="M384.2-360.7C384.2-360.7,384.2-360.7,384.2-360.7c0,0.1,0,0.1,0,0.1C384.2-360.7,384.1-360.7,384.2-360.7
				C384.2-360.7,384.2-360.7,384.2-360.7z"/>
			<path class="st2" d="M379.8-358.1C379.8-358.1,379.8-358.1,379.8-358.1c0,0.1,0,0.1,0,0.1C379.8-358,379.7-358.1,379.8-358.1
				C379.7-358.1,379.8-358.1,379.8-358.1z"/>
			<path class="st2" d="M363.3-420.2c-1.8,0-3.6-0.2-5.4-0.6c-6.3-1.4-11.6-5.2-15-10.6c-3.4-5.4-4.5-11.9-3.1-18.1
				c0.6-2.6,3.2-4.3,5.9-3.7c2.6,0.6,4.3,3.2,3.7,5.9c-1.7,7.6,3.1,15.2,10.7,17c1.1,0.2,2.1,0.4,3.1,0.4c6.5,0,12.3-4.5,13.8-11.1
				c1.3-5.6-0.9-11.3-5.6-14.7c-2.2-1.6-2.7-4.7-1.1-6.9c1.6-2.2,4.7-2.7,6.9-1.1c7.9,5.6,11.6,15.4,9.4,24.8
				c-1.4,6.3-5.2,11.6-10.6,15C372.1-421.5,367.7-420.2,363.3-420.2z"/>
			<path class="st2" d="M325.6-370.7c-4.2,0-8.3-0.7-12.4-2c-10.5-3.5-16.8-10.5-17.1-10.8c-1.5-1.7-1.7-4.3-0.3-6.1
				c9-12.5,16.5-25.5,21.4-37.5c3.9-9.5,6.3-18.3,6.2-23.5c-0.1-9.9-7.7-11.1-11-11.2c-3-0.1-5.8,1-8,3.1c-2.2,2.1-3.4,4.8-3.5,7.8
				c-0.1,2.2,0.5,4.4,1.8,6.3c1.5,2.3,0.8,5.3-1.5,6.8c-2.3,1.5-5.3,0.8-6.8-1.5c-2.3-3.5-3.4-7.6-3.3-11.8
				c0.1-5.6,2.5-10.8,6.5-14.7c4.1-3.9,9.4-5.9,15-5.8c5.8,0.1,10.8,2.1,14.5,5.6c3.9,3.8,6.1,9.1,6.1,15.3c0.1,6.7-2.4,16.4-7,27.4
				c-4.8,11.6-11.7,23.9-20,35.9c2.3,1.8,5.9,4.1,10.4,5.6c10.7,3.4,21.8,0.6,33-8.4c2.1-1.7,5.2-1.4,6.9,0.7
				c1.7,2.1,1.4,5.2-0.7,6.9c-7.7,6.2-15.5,10-23.4,11.4C330.2-370.9,327.9-370.7,325.6-370.7z"/>
			<path class="st2" d="M328.1-348.2c-1.3,0-2.6,0-3.9-0.1c-2.7-0.2-4.8-2.5-4.6-5.2c0.2-2.7,2.5-4.8,5.2-4.6
				c1.1,0.1,2.3,0.1,3.4,0.1c10.6,0,21-2.9,30-8.3c8.8-5.3,16-12.8,20.9-21.8c1.3-2.4,4.3-3.2,6.7-1.9c2.4,1.3,3.2,4.3,1.9,6.7
				c-5.8,10.5-14.2,19.3-24.5,25.5C352.6-351.6,340.5-348.2,328.1-348.2z"/>
		</g>
		<g>
			<path class="st2" d="M287.1-336C287.1-336,287.2-336,287.1-336c0,0.1,0,0.1,0,0.1C287.1-335.9,287.1-336,287.1-336
				C287.1-336,287.1-336,287.1-336z"/>
			<path class="st2" d="M282.7-333.4C282.7-333.4,282.8-333.3,282.7-333.4c0,0.1,0,0.1,0,0.1C282.7-333.3,282.7-333.3,282.7-333.4
				C282.7-333.4,282.7-333.4,282.7-333.4z"/>
			<path class="st2" d="M266.2-395.5c-1.8,0-3.6-0.2-5.4-0.6c-6.3-1.4-11.6-5.2-15-10.6c-3.4-5.4-4.5-11.9-3.1-18.1
				c0.6-2.6,3.2-4.3,5.9-3.7c2.6,0.6,4.3,3.2,3.7,5.9c-1.7,7.6,3.1,15.2,10.7,17c1.1,0.2,2.1,0.4,3.1,0.4c6.5,0,12.3-4.5,13.8-11.1
				c1.3-5.6-0.9-11.3-5.6-14.7c-2.2-1.6-2.7-4.7-1.1-6.9c1.6-2.2,4.7-2.7,6.9-1.1c7.9,5.6,11.6,15.4,9.4,24.8
				c-1.4,6.3-5.2,11.6-10.6,15C275.1-396.8,270.7-395.5,266.2-395.5z"/>
			<path class="st2" d="M228.6-345.9c-4.2,0-8.3-0.7-12.4-2c-10.5-3.5-16.8-10.5-17.1-10.8c-1.5-1.7-1.7-4.3-0.3-6.1
				c9-12.5,16.5-25.5,21.4-37.5c3.9-9.5,6.3-18.3,6.2-23.5c-0.1-9.9-7.7-11.1-11-11.2c-3-0.1-5.8,1-8,3.1c-2.2,2.1-3.4,4.8-3.5,7.8
				c-0.1,2.2,0.5,4.4,1.8,6.3c1.5,2.3,0.8,5.3-1.5,6.8c-2.3,1.5-5.3,0.8-6.8-1.5c-2.3-3.5-3.4-7.6-3.3-11.8
				c0.1-5.6,2.5-10.8,6.5-14.7c4.1-3.9,9.4-5.9,15-5.8c5.8,0.1,10.8,2.1,14.5,5.6c3.9,3.8,6.1,9.1,6.1,15.3c0.1,6.7-2.4,16.4-7,27.4
				c-4.8,11.6-11.7,23.9-20,35.9c2.3,1.8,5.9,4.1,10.4,5.6c10.7,3.4,21.8,0.6,33-8.4c2.1-1.7,5.2-1.4,6.9,0.7
				c1.7,2.1,1.4,5.2-0.7,6.9c-7.7,6.2-15.5,10-23.4,11.4C233.1-346.1,230.8-345.9,228.6-345.9z"/>
			<path class="st2" d="M231-323.5c-1.3,0-2.6,0-3.9-0.1c-2.7-0.2-4.8-2.5-4.6-5.2c0.2-2.7,2.5-4.8,5.2-4.6c1.1,0.1,2.3,0.1,3.4,0.1
				c10.6,0,21-2.9,30-8.3c8.8-5.3,16-12.8,20.9-21.8c1.3-2.4,4.3-3.2,6.7-1.9c2.4,1.3,3.2,4.3,1.9,6.7
				c-5.8,10.5-14.2,19.3-24.5,25.5C255.6-326.8,243.4-323.5,231-323.5z"/>
		</g>
		<g>
			<path class="st2" d="M190.1-311.3C190.1-311.3,190.1-311.3,190.1-311.3c0,0.1,0,0.1,0,0.1C190-311.2,190-311.3,190.1-311.3
				C190-311.3,190-311.3,190.1-311.3z"/>
			<path class="st2" d="M185.7-308.7C185.7-308.7,185.7-308.6,185.7-308.7c0,0.1,0,0.1,0,0.1C185.6-308.6,185.6-308.6,185.7-308.7
				C185.6-308.7,185.6-308.7,185.7-308.7z"/>
			<path class="st2" d="M169.1-370.8c-1.8,0-3.6-0.2-5.4-0.6c-6.3-1.4-11.6-5.2-15-10.6c-3.4-5.4-4.5-11.9-3.1-18.1
				c0.6-2.6,3.2-4.3,5.9-3.7c2.6,0.6,4.3,3.2,3.7,5.9c-1.7,7.6,3.1,15.2,10.7,17c1.1,0.2,2.1,0.4,3.1,0.4c6.5,0,12.3-4.5,13.8-11.1
				c1.3-5.6-0.9-11.3-5.6-14.7c-2.2-1.6-2.7-4.7-1.1-6.9c1.6-2.2,4.7-2.7,6.9-1.1c7.9,5.6,11.6,15.4,9.4,24.8
				c-1.4,6.3-5.2,11.6-10.6,15C178-372.1,173.6-370.8,169.1-370.8z"/>
			<path class="st2" d="M131.5-321.2c-4.2,0-8.3-0.7-12.4-2c-10.5-3.5-16.8-10.5-17.1-10.8c-1.5-1.7-1.7-4.3-0.3-6.1
				c9-12.5,16.5-25.5,21.4-37.5c3.9-9.5,6.3-18.3,6.2-23.5c-0.1-9.9-7.7-11.1-11-11.2c-3-0.1-5.8,1-8,3.1c-2.2,2.1-3.4,4.8-3.5,7.8
				c-0.1,2.2,0.5,4.4,1.8,6.3c1.5,2.3,0.8,5.3-1.5,6.8c-2.3,1.5-5.3,0.8-6.8-1.5c-2.3-3.5-3.4-7.6-3.3-11.8
				c0.1-5.6,2.5-10.8,6.5-14.7c4.1-3.9,9.4-5.9,15-5.8c5.8,0.1,10.8,2.1,14.5,5.6c3.9,3.8,6.1,9.1,6.1,15.3c0.1,6.7-2.4,16.4-7,27.4
				c-4.8,11.6-11.7,23.9-20,35.9c2.3,1.8,5.9,4.1,10.4,5.6c10.7,3.4,21.8,0.6,33-8.4c2.1-1.7,5.2-1.4,6.9,0.7
				c1.7,2.1,1.4,5.2-0.7,6.9c-7.7,6.2-15.5,10-23.4,11.4C136-321.4,133.8-321.2,131.5-321.2z"/>
			<path class="st2" d="M134-298.8c-1.3,0-2.6,0-3.9-0.1c-2.7-0.2-4.8-2.5-4.6-5.2c0.2-2.7,2.5-4.8,5.2-4.6c1.1,0.1,2.3,0.1,3.4,0.1
				c10.6,0,21-2.9,30-8.3c8.8-5.3,16-12.8,20.9-21.8c1.3-2.4,4.3-3.2,6.7-1.9c2.4,1.3,3.2,4.3,1.9,6.7
				c-5.8,10.5-14.2,19.3-24.5,25.5C158.5-302.1,146.4-298.8,134-298.8z"/>
		</g>
		<g>
			<path class="st2" d="M93-286.6C93-286.6,93-286.6,93-286.6c0,0.1,0,0.1,0,0.1C93-286.5,93-286.6,93-286.6
				C93-286.6,93-286.6,93-286.6z"/>
			<path class="st2" d="M88.6-284C88.6-283.9,88.6-283.9,88.6-284c0,0.1,0,0.1,0,0.1C88.6-283.9,88.5-283.9,88.6-284
				C88.5-284,88.6-284,88.6-284z"/>
			<path class="st2" d="M72.1-346.1c-1.8,0-3.6-0.2-5.4-0.6c-6.3-1.4-11.6-5.2-15-10.6c-3.4-5.4-4.5-11.9-3.1-18.1
				c0.6-2.6,3.2-4.3,5.9-3.7c2.6,0.6,4.3,3.2,3.7,5.9c-1.7,7.6,3.1,15.2,10.7,17c1.1,0.2,2.1,0.4,3.1,0.4c6.5,0,12.3-4.5,13.8-11.1
				c1.3-5.6-0.9-11.3-5.6-14.7c-2.2-1.6-2.7-4.7-1.1-6.9c1.6-2.2,4.7-2.7,6.9-1.1c7.9,5.6,11.6,15.4,9.4,24.8
				c-1.4,6.3-5.2,11.6-10.6,15C80.9-347.4,76.5-346.1,72.1-346.1z"/>
			<path class="st2" d="M34.4-296.5c-4.2,0-8.3-0.7-12.4-2C11.5-302.1,5.2-309.1,5-309.4c-1.5-1.7-1.7-4.3-0.3-6.1
				c9-12.5,16.5-25.5,21.4-37.5c3.9-9.5,6.3-18.3,6.2-23.5c-0.1-9.9-7.7-11.1-11-11.2c-3-0.1-5.8,1-8,3.1c-2.2,2.1-3.4,4.8-3.5,7.8
				c-0.1,2.2,0.5,4.4,1.8,6.3c1.5,2.3,0.8,5.3-1.5,6.8c-2.3,1.5-5.3,0.8-6.8-1.5c-2.3-3.5-3.4-7.6-3.3-11.8
				c0.1-5.6,2.5-10.8,6.5-14.7c4.1-3.9,9.4-5.9,15-5.8c5.8,0.1,10.8,2.1,14.5,5.6c3.9,3.8,6.1,9.1,6.1,15.3c0.1,6.7-2.4,16.4-7,27.4
				c-4.8,11.6-11.7,23.9-20,35.9c2.3,1.8,5.9,4.1,10.4,5.6c10.7,3.4,21.8,0.6,33-8.4c2.1-1.7,5.2-1.4,6.9,0.7
				c1.7,2.1,1.4,5.2-0.7,6.9c-7.7,6.2-15.5,10-23.4,11.4C39-296.7,36.7-296.5,34.4-296.5z"/>
			<path class="st2" d="M36.9-274.1c-1.3,0-2.6,0-3.9-0.1c-2.7-0.2-4.8-2.5-4.6-5.2c0.2-2.7,2.5-4.8,5.2-4.6
				c1.1,0.1,2.3,0.1,3.4,0.1c10.6,0,21-2.9,30-8.3c8.8-5.3,16-12.8,20.9-21.8c1.3-2.4,4.3-3.2,6.7-1.9c2.4,1.3,3.2,4.3,1.9,6.7
				C90.7-298.8,82.2-290,72-283.8C61.4-277.4,49.3-274.1,36.9-274.1z"/>
		</g>
		<g>
			<path class="st2" d="M190.1-434.9C190.1-434.8,190.1-434.8,190.1-434.9c0,0.1,0,0.1,0,0.1C190-434.8,190-434.8,190.1-434.9
				C190-434.9,190-434.9,190.1-434.9z"/>
			<path class="st2" d="M185.7-432.2C185.7-432.2,185.7-432.2,185.7-432.2c0,0.1,0,0.1,0,0.1C185.6-432.1,185.6-432.2,185.7-432.2
				C185.6-432.2,185.6-432.2,185.7-432.2z"/>
			<path class="st2" d="M131.5-444.8c-4.2,0-8.3-0.7-12.4-2c-10.5-3.5-16.8-10.5-17.1-10.8c-1.5-1.7-1.7-4.3-0.3-6.1
				c9-12.5,16.5-25.5,21.4-37.5c3.9-9.5,6.3-18.3,6.2-23.5c-0.1-9.9-7.7-11.1-11-11.2c-3-0.1-5.8,1-8,3.1c-2.2,2.1-3.4,4.8-3.5,7.8
				c-0.1,2.2,0.5,4.4,1.8,6.3c1.5,2.3,0.8,5.3-1.5,6.8c-2.3,1.5-5.3,0.8-6.8-1.5c-2.3-3.5-3.4-7.6-3.3-11.8
				c0.1-5.6,2.5-10.8,6.5-14.7c4.1-3.9,9.4-5.9,15-5.8c5.8,0.1,10.8,2.1,14.5,5.6c3.9,3.8,6.1,9.1,6.1,15.3c0.1,6.7-2.4,16.4-7,27.4
				c-4.8,11.6-11.7,23.9-20,35.9c2.3,1.8,5.9,4.1,10.4,5.6c10.7,3.4,21.8,0.6,33-8.4c2.1-1.7,5.2-1.4,6.9,0.7
				c1.7,2.1,1.4,5.2-0.7,6.9c-7.7,6.2-15.5,10-23.4,11.4C136-445,133.8-444.8,131.5-444.8z"/>
			<path class="st2" d="M134-422.3c-1.3,0-2.6,0-3.9-0.1c-2.7-0.2-4.8-2.5-4.6-5.2c0.2-2.7,2.5-4.8,5.2-4.6c1.1,0.1,2.3,0.1,3.4,0.1
				c10.6,0,21-2.9,30-8.3c8.8-5.3,16-12.8,20.9-21.8c1.3-2.4,4.3-3.2,6.7-1.9c2.4,1.3,3.2,4.3,1.9,6.7
				c-5.8,10.5-14.2,19.3-24.5,25.5C158.5-425.7,146.4-422.3,134-422.3z"/>
		</g>
		<g>
			<path class="st2" d="M93-410.2C93-410.1,93-410.1,93-410.2c0,0.1,0,0.1,0,0.1C93-410.1,93-410.1,93-410.2
				C93-410.2,93-410.2,93-410.2z"/>
			<path class="st2" d="M88.6-407.5C88.6-407.5,88.6-407.5,88.6-407.5c0,0.1,0,0.1,0,0.1C88.6-407.4,88.5-407.5,88.6-407.5
				C88.5-407.5,88.6-407.5,88.6-407.5z"/>
			<path class="st2" d="M34.4-420.1c-4.2,0-8.3-0.7-12.4-2C11.5-425.7,5.2-432.6,5-432.9c-1.5-1.7-1.7-4.3-0.3-6.1
				c9-12.5,16.5-25.5,21.4-37.5c3.9-9.5,6.3-18.3,6.2-23.5c-0.1-9.9-7.7-11.1-11-11.2c-3-0.1-5.8,1-8,3.1c-2.2,2.1-3.4,4.8-3.5,7.8
				c-0.1,2.2,0.5,4.4,1.8,6.3c1.5,2.3,0.8,5.3-1.5,6.8c-2.3,1.5-5.3,0.8-6.8-1.5c-2.3-3.5-3.4-7.6-3.3-11.8
				c0.1-5.6,2.5-10.8,6.5-14.7c4.1-3.9,9.4-5.9,15-5.8c5.8,0.1,10.8,2.1,14.5,5.6c3.9,3.8,6.1,9.1,6.1,15.3c0.1,6.7-2.4,16.4-7,27.4
				c-4.8,11.6-11.7,23.9-20,35.9c2.3,1.8,5.9,4.1,10.4,5.6c10.7,3.4,21.8,0.6,33-8.4c2.1-1.7,5.2-1.4,6.9,0.7
				c1.7,2.1,1.4,5.2-0.7,6.9c-7.7,6.2-15.5,10-23.4,11.4C39-420.3,36.7-420.1,34.4-420.1z"/>
			<path class="st2" d="M36.9-397.6c-1.3,0-2.6,0-3.9-0.1c-2.7-0.2-4.8-2.5-4.6-5.2c0.2-2.7,2.5-4.8,5.2-4.6
				c1.1,0.1,2.3,0.1,3.4,0.1c10.6,0,21-2.9,30-8.3c8.8-5.3,16-12.8,20.9-21.8c1.3-2.4,4.3-3.2,6.7-1.9c2.4,1.3,3.2,4.3,1.9,6.7
				c-5.8,10.5-14.2,19.3-24.5,25.5C61.4-401,49.3-397.6,36.9-397.6z"/>
		</g>
	</g>
</pattern>
<rect x="591.5" y="19" width="182.1" height="182.1"/>
<path class="st2" d="M630.1,88.2v14.8c0,3.8-3.1,7-7,7l0,0V88.2h-2.5c-3.1,0-5.6-2.5-5.6-5.6v0h17.7c3.1,0,5.6,2.5,5.6,5.6v0H630.1z
	"/>
<path class="st2" d="M661.4,96.7V110l0,0c-3.7,0-6.8-3-6.8-6.8v-4.7c0-2.5-1.4-4-3.7-4c-2.7,0-4.3,2.1-4.3,5V110h-6.8V81h1.3
	c3,0,5.5,2.5,5.5,5.5v5.9c1.5-2.5,3.9-3.8,7.1-3.8C658.3,88.6,661.4,91.8,661.4,96.7z"/>
<path class="st2" d="M684.8,96.3V110h-4.2c-1.3,0-2.4-1.1-2.4-2.4l0,0c-1.4,1.8-3.6,2.7-6.4,2.7c-4.5,0-7.2-2.7-7.2-6.6
	c0-4,2.9-6.3,8.1-6.4h5.5V97c0-2.1-1.4-3.3-4.1-3.3c-0.9,0-1.9,0.2-2.9,0.4c-2,0.6-4.2-0.5-5-2.4l-0.3-0.7c3.3-1.5,6.3-2.4,9.8-2.4
	C681.4,88.6,684.7,91.5,684.8,96.3z M678.1,102.9V101h-4.3c-2,0-3,0.7-3,2.3c0,1.5,1.1,2.5,3,2.5
	C675.9,105.8,677.7,104.6,678.1,102.9z"/>
<path class="st2" d="M711.1,96.7V110h-6.7V98.6c0-2.5-1.4-4-3.7-4c-2.5,0-4,1.8-4.3,4.3v4.4c0,3.7-3,6.8-6.8,6.8l0,0V88.9h6.8v3.4
	c1.5-2.5,3.9-3.7,7-3.8C708,88.6,711.1,91.8,711.1,96.7z"/>
<path class="st2" d="M722.8,104.3v5.7h-6.8V81h1.8c2.7,0,5,2.2,5,5v10.3l7-7.4h7.7l-7.7,8.1l8,13h-8l-4.6-8.1L722.8,104.3z"/>
<path class="st2" d="M663.8,147c-1.6,3.8-4.2,5.7-8.1,5.7c-2.3,0-4.3-0.7-6.1-2.1l2.8-4.6c1,0.8,1.8,1.1,2.8,1.1
	c1.2,0,2.1-0.5,2.6-1.7l0.5-1.1l-8.8-20.6h7l5.2,14l3.2-9.7c0.8-2.6,3.2-4.3,5.9-4.3h2.2L663.8,147z"/>
<path class="st2" d="M720,144.8h-6.8v-3.5c-1.4,2.5-3.8,3.8-6.8,3.8c-4.6,0-7.5-3.1-7.5-8v-13.3l0,0c3.7,0,6.8,3,6.8,6.8v4.6
	c0,2.5,1.4,4,3.5,4c2.6,0,4.1-2.1,4.1-5v-10.4h6.8V144.8z"/>
<path class="st2" d="M688.7,123.7c-0.7-0.3-1.5-0.3-2.2,0.1c-0.7,0.3-1.2,0.9-1.5,1.6c-0.6,1.5,0.2,3.2,1.7,3.7
	c2,0.8,3.4,2.7,3.5,4.8c0.1,2.5-1.6,4.8-4,5.4c-0.4,0.1-0.8,0.2-1.2,0.2c-3,0.1-5.5-2.2-5.6-5.2c0-0.8-0.4-1.5-0.9-2
	c-0.6-0.5-1.3-0.8-2.1-0.8c-0.8,0-1.5,0.4-2,0.9c-0.5,0.6-0.8,1.3-0.8,2.1c0.1,3,1.4,5.7,3.6,7.8c2.1,1.9,4.8,3,7.6,3
	c0.1,0,0.3,0,0.4,0c0.8,0,1.7-0.2,2.5-0.4c2-0.5,3.8-1.6,5.3-3.2c2-2.2,3.1-5,3-8C695.7,129.2,692.9,125.3,688.7,123.7z"/>
<rect x="403.5" y="19" width="182.1" height="182.1"/>
<path class="st1" d="M442.2,88.2v14.8c0,3.8-3.1,7-7,7l0,0V88.2h-2.5c-3.1,0-5.6-2.5-5.6-5.6v0h17.7c3.1,0,5.6,2.5,5.6,5.6v0H442.2z
	"/>
<path class="st1" d="M473.4,96.7V110l0,0c-3.7,0-6.8-3-6.8-6.8v-4.7c0-2.5-1.4-4-3.7-4c-2.7,0-4.3,2.1-4.3,5V110h-6.8V81h1.3
	c3,0,5.5,2.5,5.5,5.5v5.9c1.5-2.5,3.9-3.8,7.1-3.8C470.4,88.6,473.4,91.8,473.4,96.7z"/>
<path class="st1" d="M496.8,96.3V110h-4.2c-1.3,0-2.4-1.1-2.4-2.4l0,0c-1.4,1.8-3.6,2.7-6.4,2.7c-4.5,0-7.2-2.7-7.2-6.6
	c0-4,2.9-6.3,8.1-6.4h5.5V97c0-2.1-1.4-3.3-4.1-3.3c-0.9,0-1.9,0.2-2.9,0.4c-2,0.6-4.2-0.5-5-2.4l-0.3-0.7c3.3-1.5,6.3-2.4,9.8-2.4
	C493.4,88.6,496.8,91.5,496.8,96.3z M490.2,102.9V101h-4.3c-2,0-3,0.7-3,2.3c0,1.5,1.1,2.5,3,2.5
	C487.9,105.8,489.7,104.6,490.2,102.9z"/>
<path class="st1" d="M523.1,96.7V110h-6.7V98.6c0-2.5-1.4-4-3.7-4c-2.5,0-4,1.8-4.3,4.3v4.4c0,3.7-3,6.8-6.8,6.8l0,0V88.9h6.8v3.4
	c1.5-2.5,3.9-3.7,7-3.8C520.1,88.6,523.1,91.8,523.1,96.7z"/>
<path class="st1" d="M534.9,104.3v5.7h-6.8V81h1.8c2.7,0,5,2.2,5,5v10.3l7-7.4h7.7l-7.7,8.1l8,13h-8l-4.6-8.1L534.9,104.3z"/>
<path class="st1" d="M475.8,147c-1.6,3.8-4.2,5.7-8.1,5.7c-2.3,0-4.3-0.7-6.1-2.1l2.8-4.6c1,0.8,1.8,1.1,2.8,1.1
	c1.2,0,2.1-0.5,2.6-1.7l0.5-1.1l-8.8-20.6h7l5.2,14l3.2-9.7c0.8-2.6,3.2-4.3,5.9-4.3h2.2L475.8,147z"/>
<path class="st1" d="M532.1,144.8h-6.8v-3.5c-1.4,2.5-3.8,3.8-6.8,3.8c-4.6,0-7.5-3.1-7.5-8v-13.3l0,0c3.7,0,6.8,3,6.8,6.8v4.6
	c0,2.5,1.4,4,3.5,4c2.6,0,4.1-2.1,4.1-5v-10.4h6.8V144.8z"/>
<path class="st1" d="M500.8,123.7c-0.7-0.3-1.5-0.3-2.2,0.1c-0.7,0.3-1.2,0.9-1.5,1.6c-0.6,1.5,0.2,3.2,1.7,3.7
	c2,0.8,3.4,2.7,3.5,4.8c0.1,2.5-1.6,4.8-4,5.4c-0.4,0.1-0.8,0.2-1.2,0.2c-3,0.1-5.5-2.2-5.6-5.2c0-0.8-0.4-1.5-0.9-2
	c-0.6-0.5-1.3-0.8-2.1-0.8c-0.8,0-1.5,0.4-2,0.9c-0.5,0.6-0.8,1.3-0.8,2.1c0.1,3,1.4,5.7,3.6,7.8c2.1,1.9,4.8,3,7.6,3
	c0.1,0,0.3,0,0.4,0c0.8,0,1.7-0.2,2.5-0.4c2-0.5,3.8-1.6,5.3-3.2c2-2.2,3.1-5,3-8C507.8,129.2,505,125.3,500.8,123.7z"/>
<rect x="214.9" y="19" width="182.1" height="182.1"/>
<g>
	
		<pattern  id="SVGID_1_" xlink:href="#Nouveau_motif_2" patternTransform="matrix(3.427237e-04 0 0 3.427237e-04 -7460.1621 -7547.8306)">
	</pattern>
	<path class="st3" d="M253.6,88.2v14.8c0,3.8-3.1,7-7,7l0,0V88.2h-2.5c-3.1,0-5.6-2.5-5.6-5.6v0h17.7c3.1,0,5.6,2.5,5.6,5.6v0H253.6
		z"/>
	
		<pattern  id="SVGID_2_" xlink:href="#Nouveau_motif_2" patternTransform="matrix(3.427237e-04 0 0 3.427237e-04 -7460.1621 -7547.8306)">
	</pattern>
	<path class="st4" d="M284.8,96.7V110l0,0c-3.7,0-6.8-3-6.8-6.8v-4.7c0-2.5-1.4-4-3.7-4c-2.7,0-4.3,2.1-4.3,5V110h-6.8V81h1.3
		c3,0,5.5,2.5,5.5,5.5v5.9c1.5-2.5,3.9-3.8,7.1-3.8C281.7,88.6,284.8,91.8,284.8,96.7z"/>
	
		<pattern  id="SVGID_3_" xlink:href="#Nouveau_motif_2" patternTransform="matrix(3.427237e-04 0 0 3.427237e-04 -7460.1621 -7547.8306)">
	</pattern>
	<path class="st5" d="M308.2,96.3V110H304c-1.3,0-2.4-1.1-2.4-2.4l0,0c-1.4,1.8-3.6,2.7-6.4,2.7c-4.5,0-7.2-2.7-7.2-6.6
		c0-4,2.9-6.3,8.1-6.4h5.5V97c0-2.1-1.4-3.3-4.1-3.3c-0.9,0-1.9,0.2-2.9,0.4c-2,0.6-4.2-0.5-5-2.4l-0.3-0.7c3.3-1.5,6.3-2.4,9.8-2.4
		C304.8,88.6,308.2,91.5,308.2,96.3z M301.6,102.9V101h-4.3c-2,0-3,0.7-3,2.3c0,1.5,1.1,2.5,3,2.5
		C299.3,105.8,301.1,104.6,301.6,102.9z"/>
	
		<pattern  id="SVGID_4_" xlink:href="#Nouveau_motif_2" patternTransform="matrix(3.427237e-04 0 0 3.427237e-04 -7460.1621 -7547.8306)">
	</pattern>
	<path class="st6" d="M334.5,96.7V110h-6.7V98.6c0-2.5-1.4-4-3.7-4c-2.5,0-4,1.8-4.3,4.3v4.4c0,3.7-3,6.8-6.8,6.8l0,0V88.9h6.8v3.4
		c1.5-2.5,3.9-3.7,7-3.8C331.5,88.6,334.5,91.8,334.5,96.7z"/>
	
		<pattern  id="SVGID_5_" xlink:href="#Nouveau_motif_2" patternTransform="matrix(3.427237e-04 0 0 3.427237e-04 -7460.1621 -7547.8306)">
	</pattern>
	<path class="st7" d="M346.3,104.3v5.7h-6.8V81h1.8c2.7,0,5,2.2,5,5v10.3l7-7.4h7.7l-7.7,8.1l8,13h-8l-4.6-8.1L346.3,104.3z"/>
	
		<pattern  id="SVGID_6_" xlink:href="#Nouveau_motif_2" patternTransform="matrix(3.427237e-04 0 0 3.427237e-04 -7460.1621 -7547.8306)">
	</pattern>
	<path class="st8" d="M287.2,147c-1.6,3.8-4.2,5.7-8.1,5.7c-2.3,0-4.3-0.7-6.1-2.1l2.8-4.6c1,0.8,1.8,1.1,2.8,1.1
		c1.2,0,2.1-0.5,2.6-1.7l0.5-1.1l-8.8-20.6h7l5.2,14l3.2-9.7c0.8-2.6,3.2-4.3,5.9-4.3h2.2L287.2,147z"/>
	
		<pattern  id="SVGID_7_" xlink:href="#Nouveau_motif_2" patternTransform="matrix(3.427237e-04 0 0 3.427237e-04 -7460.1621 -7547.8306)">
	</pattern>
	<path class="st9" d="M343.5,144.8h-6.8v-3.5c-1.4,2.5-3.8,3.8-6.8,3.8c-4.6,0-7.5-3.1-7.5-8v-13.3l0,0c3.7,0,6.8,3,6.8,6.8v4.6
		c0,2.5,1.4,4,3.5,4c2.6,0,4.1-2.1,4.1-5v-10.4h6.8V144.8z"/>
	
		<pattern  id="SVGID_8_" xlink:href="#Nouveau_motif_2" patternTransform="matrix(1.851280e-02 0 0 1.851280e-02 -7244.4473 -7478.2017)">
	</pattern>
	<path class="st10" d="M312.2,123.7c-0.7-0.3-1.5-0.3-2.2,0.1c-0.7,0.3-1.2,0.9-1.5,1.6c-0.6,1.5,0.2,3.2,1.7,3.7
		c2,0.8,3.4,2.7,3.5,4.8c0.1,2.5-1.6,4.8-4,5.4c-0.4,0.1-0.8,0.2-1.2,0.2c-3,0.1-5.5-2.2-5.6-5.2c0-0.8-0.4-1.5-0.9-2
		c-0.6-0.5-1.3-0.8-2.1-0.8c-0.8,0-1.5,0.4-2,0.9c-0.5,0.6-0.8,1.3-0.8,2.1c0.1,3,1.4,5.7,3.6,7.8c2.1,1.9,4.8,3,7.6,3
		c0.1,0,0.3,0,0.4,0c0.8,0,1.7-0.2,2.5-0.4c2-0.5,3.8-1.6,5.3-3.2c2-2.2,3.1-5,3-8C319.2,129.2,316.4,125.3,312.2,123.7z"/>
</g>
<rect x="591.5" y="207.9" width="182.1" height="182.1"/>
<path class="st2" d="M630.1,277.2V292c0,3.8-3.1,7-7,7l0,0v-21.8h-2.5c-3.1,0-5.6-2.5-5.6-5.6l0,0h17.7c3.1,0,5.6,2.5,5.6,5.6l0,0
	H630.1z"/>
<path class="st2" d="M661.4,285.6v13.3l0,0c-3.7,0-6.8-3-6.8-6.8v-4.7c0-2.5-1.4-4-3.7-4c-2.7,0-4.3,2.1-4.3,5v10.4h-6.8v-29h1.3
	c3,0,5.5,2.5,5.5,5.5v5.9c1.5-2.5,3.9-3.8,7.1-3.8C658.3,277.5,661.4,280.7,661.4,285.6z"/>
<path class="st2" d="M684.8,285.2v13.8h-4.2c-1.3,0-2.4-1.1-2.4-2.4l0,0c-1.4,1.8-3.6,2.7-6.4,2.7c-4.5,0-7.2-2.7-7.2-6.6
	c0-4,2.9-6.3,8.1-6.4h5.5v-0.3c0-2.1-1.4-3.3-4.1-3.3c-0.9,0-1.9,0.2-2.9,0.4c-2,0.6-4.2-0.5-5-2.4l-0.3-0.7
	c3.3-1.5,6.3-2.4,9.8-2.4C681.4,277.5,684.7,280.4,684.8,285.2z M678.1,291.8v-1.9h-4.3c-2,0-3,0.7-3,2.3c0,1.5,1.1,2.5,3,2.5
	C675.9,294.7,677.7,293.5,678.1,291.8z"/>
<path class="st2" d="M711.1,285.6v13.3h-6.7v-11.4c0-2.5-1.4-4-3.7-4c-2.5,0-4,1.8-4.3,4.3v4.4c0,3.7-3,6.8-6.8,6.8l0,0v-21.1h6.8
	v3.4c1.5-2.5,3.9-3.7,7-3.8C708,277.5,711.1,280.7,711.1,285.6z"/>
<path class="st2" d="M722.8,293.2v5.7h-6.8v-29h1.8c2.7,0,5,2.2,5,5v10.3l7-7.4h7.7l-7.7,8.1l8,13h-8l-4.6-8.1L722.8,293.2z"/>
<path class="st2" d="M663.8,335.9c-1.6,3.8-4.2,5.7-8.1,5.7c-2.3,0-4.3-0.7-6.1-2.1l2.8-4.6c1,0.8,1.8,1.1,2.8,1.1
	c1.2,0,2.1-0.5,2.6-1.7l0.5-1.1l-8.8-20.6h7l5.2,14l3.2-9.7c0.8-2.6,3.2-4.3,5.9-4.3h2.2L663.8,335.9z"/>
<path class="st2" d="M720,333.7h-6.8v-3.5c-1.4,2.5-3.8,3.8-6.8,3.8c-4.6,0-7.5-3.1-7.5-8v-13.3l0,0c3.7,0,6.8,3,6.8,6.8v4.6
	c0,2.5,1.4,4,3.5,4c2.6,0,4.1-2.1,4.1-5v-10.4h6.8V333.7z"/>
<pattern  id="SVGID_9_" xlink:href="#Nouveau_motif_2" patternTransform="matrix(9.256399e-03 0 0 9.256399e-03 -7751.5269 -7301.3813)">
</pattern>
<path class="st11" d="M688.7,312.6c-0.7-0.3-1.5-0.3-2.2,0.1c-0.7,0.3-1.2,0.9-1.5,1.6c-0.6,1.5,0.2,3.2,1.7,3.7
	c2,0.8,3.4,2.7,3.5,4.8c0.1,2.5-1.6,4.8-4,5.4c-0.4,0.1-0.8,0.2-1.2,0.2c-3,0.1-5.5-2.2-5.6-5.2c0-0.8-0.4-1.5-0.9-2
	c-0.6-0.5-1.3-0.8-2.1-0.8c-0.8,0-1.5,0.4-2,0.9c-0.5,0.6-0.8,1.3-0.8,2.1c0.1,3,1.4,5.7,3.6,7.8c2.1,1.9,4.8,3,7.6,3
	c0.1,0,0.3,0,0.4,0c0.8,0,1.7-0.2,2.5-0.4c2-0.5,3.8-1.6,5.3-3.2c2-2.2,3.1-5,3-8C695.7,318.1,692.9,314.2,688.7,312.6z"/>
<rect x="780.2" y="19" width="182.1" height="182.1"/>
<path class="st2" d="M818.8,88.2v14.8c0,3.8-3.1,7-7,7l0,0V88.2h-2.5c-3.1,0-5.6-2.5-5.6-5.6v0h17.7c3.1,0,5.6,2.5,5.6,5.6v0H818.8z
	"/>
<path class="st2" d="M850,96.7V110l0,0c-3.7,0-6.8-3-6.8-6.8v-4.7c0-2.5-1.4-4-3.7-4c-2.7,0-4.3,2.1-4.3,5V110h-6.8V81h1.3
	c3,0,5.5,2.5,5.5,5.5v5.9c1.5-2.5,3.9-3.8,7.1-3.8C847,88.6,850,91.8,850,96.7z"/>
<path class="st2" d="M873.4,96.3V110h-4.2c-1.3,0-2.4-1.1-2.4-2.4l0,0c-1.4,1.8-3.6,2.7-6.4,2.7c-4.5,0-7.2-2.7-7.2-6.6
	c0-4,2.9-6.3,8.1-6.4h5.5V97c0-2.1-1.4-3.3-4.1-3.3c-0.9,0-1.9,0.2-2.9,0.4c-2,0.6-4.2-0.5-5-2.4l-0.3-0.7c3.3-1.5,6.3-2.4,9.8-2.4
	C870,88.6,873.4,91.5,873.4,96.3z M866.8,102.9V101h-4.3c-2,0-3,0.7-3,2.3c0,1.5,1.1,2.5,3,2.5C864.6,105.8,866.4,104.6,866.8,102.9
	z"/>
<path class="st2" d="M899.7,96.7V110H893V98.6c0-2.5-1.4-4-3.7-4c-2.5,0-4,1.8-4.3,4.3v4.4c0,3.7-3,6.8-6.8,6.8l0,0V88.9h6.8v3.4
	c1.5-2.5,3.9-3.7,7-3.8C896.7,88.6,899.7,91.8,899.7,96.7z"/>
<path class="st2" d="M911.5,104.3v5.7h-6.8V81h1.8c2.7,0,5,2.2,5,5v10.3l7-7.4h7.7l-7.7,8.1l8,13h-8l-4.6-8.1L911.5,104.3z"/>
<path class="st2" d="M852.5,147c-1.6,3.8-4.2,5.7-8.1,5.7c-2.3,0-4.3-0.7-6.1-2.1l2.8-4.6c1,0.8,1.8,1.1,2.8,1.1
	c1.2,0,2.1-0.5,2.6-1.7l0.5-1.1l-8.8-20.6h7l5.2,14l3.2-9.7c0.8-2.6,3.2-4.3,5.9-4.3h2.2L852.5,147z"/>
<path class="st2" d="M908.7,144.8h-6.8v-3.5c-1.4,2.5-3.8,3.8-6.8,3.8c-4.6,0-7.5-3.1-7.5-8v-13.3l0,0c3.7,0,6.8,3,6.8,6.8v4.6
	c0,2.5,1.4,4,3.5,4c2.6,0,4.1-2.1,4.1-5v-10.4h6.8V144.8z"/>
<path class="st1" d="M877.4,123.7c-0.7-0.3-1.5-0.3-2.2,0.1c-0.7,0.3-1.2,0.9-1.5,1.6c-0.6,1.5,0.2,3.2,1.7,3.7
	c2,0.8,3.4,2.7,3.5,4.8c0.1,2.5-1.6,4.8-4,5.4c-0.4,0.1-0.8,0.2-1.2,0.2c-3,0.1-5.5-2.2-5.6-5.2c0-0.8-0.4-1.5-0.9-2
	c-0.6-0.5-1.3-0.8-2.1-0.8c-0.8,0-1.5,0.4-2,0.9c-0.5,0.6-0.8,1.3-0.8,2.1c0.1,3,1.4,5.7,3.6,7.8c2.1,1.9,4.8,3,7.6,3
	c0.1,0,0.3,0,0.4,0c0.8,0,1.7-0.2,2.5-0.4c2-0.5,3.8-1.6,5.3-3.2c2-2.2,3.1-5,3-8C884.4,129.2,881.6,125.3,877.4,123.7z"/>
<rect x="780.2" y="207.9" width="182.1" height="182.1"/>
<path class="st2" d="M818.8,277.2V292c0,3.8-3.1,7-7,7l0,0v-21.8h-2.5c-3.1,0-5.6-2.5-5.6-5.6l0,0h17.7c3.1,0,5.6,2.5,5.6,5.6l0,0
	H818.8z"/>
<path class="st2" d="M850,285.6v13.3l0,0c-3.7,0-6.8-3-6.8-6.8v-4.7c0-2.5-1.4-4-3.7-4c-2.7,0-4.3,2.1-4.3,5v10.4h-6.8v-29h1.3
	c3,0,5.5,2.5,5.5,5.5v5.9c1.5-2.5,3.9-3.8,7.1-3.8C847,277.5,850,280.7,850,285.6z"/>
<path class="st2" d="M873.4,285.2v13.8h-4.2c-1.3,0-2.4-1.1-2.4-2.4l0,0c-1.4,1.8-3.6,2.7-6.4,2.7c-4.5,0-7.2-2.7-7.2-6.6
	c0-4,2.9-6.3,8.1-6.4h5.5v-0.3c0-2.1-1.4-3.3-4.1-3.3c-0.9,0-1.9,0.2-2.9,0.4c-2,0.6-4.2-0.5-5-2.4l-0.3-0.7
	c3.3-1.5,6.3-2.4,9.8-2.4C870,277.5,873.4,280.4,873.4,285.2z M866.8,291.8v-1.9h-4.3c-2,0-3,0.7-3,2.3c0,1.5,1.1,2.5,3,2.5
	C864.6,294.7,866.4,293.5,866.8,291.8z"/>
<path class="st2" d="M899.7,285.6v13.3H893v-11.4c0-2.5-1.4-4-3.7-4c-2.5,0-4,1.8-4.3,4.3v4.4c0,3.7-3,6.8-6.8,6.8l0,0v-21.1h6.8
	v3.4c1.5-2.5,3.9-3.7,7-3.8C896.7,277.5,899.7,280.7,899.7,285.6z"/>
<path class="st2" d="M911.5,293.2v5.7h-6.8v-29h1.8c2.7,0,5,2.2,5,5v10.3l7-7.4h7.7l-7.7,8.1l8,13h-8l-4.6-8.1L911.5,293.2z"/>
<path class="st2" d="M852.5,335.9c-1.6,3.8-4.2,5.7-8.1,5.7c-2.3,0-4.3-0.7-6.1-2.1l2.8-4.6c1,0.8,1.8,1.1,2.8,1.1
	c1.2,0,2.1-0.5,2.6-1.7l0.5-1.1l-8.8-20.6h7l5.2,14l3.2-9.7c0.8-2.6,3.2-4.3,5.9-4.3h2.2L852.5,335.9z"/>
<path class="st2" d="M908.7,333.7h-6.8v-3.5c-1.4,2.5-3.8,3.8-6.8,3.8c-4.6,0-7.5-3.1-7.5-8v-13.3l0,0c3.7,0,6.8,3,6.8,6.8v4.6
	c0,2.5,1.4,4,3.5,4c2.6,0,4.1-2.1,4.1-5v-10.4h6.8V333.7z"/>
<pattern  id="SVGID_10_" xlink:href="#Nouveau_motif" patternTransform="matrix(2.206651e-02 0 0 2.206651e-02 -7326.1582 -7064.4312)">
</pattern>
<path class="st12" d="M877.4,312.6c-0.7-0.3-1.5-0.3-2.2,0.1c-0.7,0.3-1.2,0.9-1.5,1.6c-0.6,1.5,0.2,3.2,1.7,3.7
	c2,0.8,3.4,2.7,3.5,4.8c0.1,2.5-1.6,4.8-4,5.4c-0.4,0.1-0.8,0.2-1.2,0.2c-3,0.1-5.5-2.2-5.6-5.2c0-0.8-0.4-1.5-0.9-2
	c-0.6-0.5-1.3-0.8-2.1-0.8c-0.8,0-1.5,0.4-2,0.9c-0.5,0.6-0.8,1.3-0.8,2.1c0.1,3,1.4,5.7,3.6,7.8c2.1,1.9,4.8,3,7.6,3
	c0.1,0,0.3,0,0.4,0c0.8,0,1.7-0.2,2.5-0.4c2-0.5,3.8-1.6,5.3-3.2c2-2.2,3.1-5,3-8C884.4,318.1,881.6,314.2,877.4,312.6z"/>
<rect x="966.6" y="19" width="182.1" height="182.1"/>
<g>
	<path class="st1" d="M1005.3,88.2v14.8c0,3.8-3.1,7-7,7l0,0V88.2h-2.5c-3.1,0-5.6-2.5-5.6-5.6v0h17.7c3.1,0,5.6,2.5,5.6,5.6v0
		H1005.3z"/>
	<path class="st1" d="M1036.5,96.7V110l0,0c-3.7,0-6.8-3-6.8-6.8v-4.7c0-2.5-1.4-4-3.7-4c-2.7,0-4.3,2.1-4.3,5V110h-6.8V81h1.3
		c3,0,5.5,2.5,5.5,5.5v5.9c1.5-2.5,3.9-3.8,7.1-3.8C1033.4,88.6,1036.5,91.8,1036.5,96.7z"/>
	<path class="st1" d="M1059.9,96.3V110h-4.2c-1.3,0-2.4-1.1-2.4-2.4l0,0c-1.4,1.8-3.6,2.7-6.4,2.7c-4.5,0-7.2-2.7-7.2-6.6
		c0-4,2.9-6.3,8.1-6.4h5.5V97c0-2.1-1.4-3.3-4.1-3.3c-0.9,0-1.9,0.2-2.9,0.4c-2,0.6-4.2-0.5-5-2.4l-0.3-0.7c3.3-1.5,6.3-2.4,9.8-2.4
		C1056.5,88.6,1059.9,91.5,1059.9,96.3z M1053.3,102.9V101h-4.3c-2,0-3,0.7-3,2.3c0,1.5,1.1,2.5,3,2.5
		C1051,105.8,1052.8,104.6,1053.3,102.9z"/>
	<path class="st1" d="M1086.2,96.7V110h-6.7V98.6c0-2.5-1.4-4-3.7-4c-2.5,0-4,1.8-4.3,4.3v4.4c0,3.7-3,6.8-6.8,6.8l0,0V88.9h6.8v3.4
		c1.5-2.5,3.9-3.7,7-3.8C1083.2,88.6,1086.2,91.8,1086.2,96.7z"/>
	<path class="st1" d="M1098,104.3v5.7h-6.8V81h1.8c2.7,0,5,2.2,5,5v10.3l7-7.4h7.7l-7.7,8.1l8,13h-8l-4.6-8.1L1098,104.3z"/>
	<path class="st1" d="M1038.9,147c-1.6,3.8-4.2,5.7-8.1,5.7c-2.3,0-4.3-0.7-6.1-2.1l2.8-4.6c1,0.8,1.8,1.1,2.8,1.1
		c1.2,0,2.1-0.5,2.6-1.7l0.5-1.1l-8.8-20.6h7l5.2,14l3.2-9.7c0.8-2.6,3.2-4.3,5.9-4.3h2.2L1038.9,147z"/>
	<path class="st1" d="M1095.2,144.8h-6.8v-3.5c-1.4,2.5-3.8,3.8-6.8,3.8c-4.6,0-7.5-3.1-7.5-8v-13.3l0,0c3.7,0,6.8,3,6.8,6.8v4.6
		c0,2.5,1.4,4,3.5,4c2.6,0,4.1-2.1,4.1-5v-10.4h6.8V144.8z"/>
</g>
<path class="st2" d="M1063.9,123.7c-0.7-0.3-1.5-0.3-2.2,0.1c-0.7,0.3-1.2,0.9-1.5,1.6c-0.6,1.5,0.2,3.2,1.7,3.7
	c2,0.8,3.4,2.7,3.5,4.8c0.1,2.5-1.6,4.8-4,5.4c-0.4,0.1-0.8,0.2-1.2,0.2c-3,0.1-5.5-2.2-5.6-5.2c0-0.8-0.4-1.5-0.9-2
	c-0.6-0.5-1.3-0.8-2.1-0.8c-0.8,0-1.5,0.4-2,0.9c-0.5,0.6-0.8,1.3-0.8,2.1c0.1,3,1.4,5.7,3.6,7.8c2.1,1.9,4.8,3,7.6,3
	c0.1,0,0.3,0,0.4,0c0.8,0,1.7-0.2,2.5-0.4c2-0.5,3.8-1.6,5.3-3.2c2-2.2,3.1-5,3-8C1070.9,129.2,1068,125.3,1063.9,123.7z"/>
<rect x="966.6" y="207.9" width="182.1" height="182.1"/>
<path class="st1" d="M1005.3,277.2V292c0,3.8-3.1,7-7,7l0,0v-21.8h-2.5c-3.1,0-5.6-2.5-5.6-5.6l0,0h17.7c3.1,0,5.6,2.5,5.6,5.6l0,0
	H1005.3z"/>
<path class="st1" d="M1036.5,285.6v13.3l0,0c-3.7,0-6.8-3-6.8-6.8v-4.7c0-2.5-1.4-4-3.7-4c-2.7,0-4.3,2.1-4.3,5v10.4h-6.8v-29h1.3
	c3,0,5.5,2.5,5.5,5.5v5.9c1.5-2.5,3.9-3.8,7.1-3.8C1033.4,277.5,1036.5,280.7,1036.5,285.6z"/>
<path class="st1" d="M1059.9,285.2v13.8h-4.2c-1.3,0-2.4-1.1-2.4-2.4l0,0c-1.4,1.8-3.6,2.7-6.4,2.7c-4.5,0-7.2-2.7-7.2-6.6
	c0-4,2.9-6.3,8.1-6.4h5.5v-0.3c0-2.1-1.4-3.3-4.1-3.3c-0.9,0-1.9,0.2-2.9,0.4c-2,0.6-4.2-0.5-5-2.4l-0.3-0.7
	c3.3-1.5,6.3-2.4,9.8-2.4C1056.5,277.5,1059.9,280.4,1059.9,285.2z M1053.3,291.8v-1.9h-4.3c-2,0-3,0.7-3,2.3c0,1.5,1.1,2.5,3,2.5
	C1051,294.7,1052.8,293.5,1053.3,291.8z"/>
<path class="st1" d="M1086.2,285.6v13.3h-6.7v-11.4c0-2.5-1.4-4-3.7-4c-2.5,0-4,1.8-4.3,4.3v4.4c0,3.7-3,6.8-6.8,6.8l0,0v-21.1h6.8
	v3.4c1.5-2.5,3.9-3.7,7-3.8C1083.2,277.5,1086.2,280.7,1086.2,285.6z"/>
<path class="st1" d="M1098,293.2v5.7h-6.8v-29h1.8c2.7,0,5,2.2,5,5v10.3l7-7.4h7.7l-7.7,8.1l8,13h-8l-4.6-8.1L1098,293.2z"/>
<path class="st1" d="M1038.9,335.9c-1.6,3.8-4.2,5.7-8.1,5.7c-2.3,0-4.3-0.7-6.1-2.1l2.8-4.6c1,0.8,1.8,1.1,2.8,1.1
	c1.2,0,2.1-0.5,2.6-1.7l0.5-1.1l-8.8-20.6h7l5.2,14l3.2-9.7c0.8-2.6,3.2-4.3,5.9-4.3h2.2L1038.9,335.9z"/>
<path class="st1" d="M1095.2,333.7h-6.8v-3.5c-1.4,2.5-3.8,3.8-6.8,3.8c-4.6,0-7.5-3.1-7.5-8v-13.3l0,0c3.7,0,6.8,3,6.8,6.8v4.6
	c0,2.5,1.4,4,3.5,4c2.6,0,4.1-2.1,4.1-5v-10.4h6.8V333.7z"/>
<pattern  id="SVGID_11_" xlink:href="#Nouveau_motif_2" patternTransform="matrix(1.851280e-02 0 0 1.851280e-02 -7244.4473 -7478.2017)">
</pattern>
<path class="st13" d="M1063.9,312.6c-0.7-0.3-1.5-0.3-2.2,0.1c-0.7,0.3-1.2,0.9-1.5,1.6c-0.6,1.5,0.2,3.2,1.7,3.7
	c2,0.8,3.4,2.7,3.5,4.8c0.1,2.5-1.6,4.8-4,5.4c-0.4,0.1-0.8,0.2-1.2,0.2c-3,0.1-5.5-2.2-5.6-5.2c0-0.8-0.4-1.5-0.9-2
	c-0.6-0.5-1.3-0.8-2.1-0.8c-0.8,0-1.5,0.4-2,0.9c-0.5,0.6-0.8,1.3-0.8,2.1c0.1,3,1.4,5.7,3.6,7.8c2.1,1.9,4.8,3,7.6,3
	c0.1,0,0.3,0,0.4,0c0.8,0,1.7-0.2,2.5-0.4c2-0.5,3.8-1.6,5.3-3.2c2-2.2,3.1-5,3-8C1070.9,318.1,1068,314.2,1063.9,312.6z"/>
<rect x="403.5" y="207.9" width="182.1" height="182.1"/>
<path class="st1" d="M442.2,277.2V292c0,3.8-3.1,7-7,7l0,0v-21.8h-2.5c-3.1,0-5.6-2.5-5.6-5.6l0,0h17.7c3.1,0,5.6,2.5,5.6,5.6l0,0
	H442.2z"/>
<path class="st1" d="M473.4,285.6v13.3l0,0c-3.7,0-6.8-3-6.8-6.8v-4.7c0-2.5-1.4-4-3.7-4c-2.7,0-4.3,2.1-4.3,5v10.4h-6.8v-29h1.3
	c3,0,5.5,2.5,5.5,5.5v5.9c1.5-2.5,3.9-3.8,7.1-3.8C470.4,277.5,473.4,280.7,473.4,285.6z"/>
<path class="st1" d="M496.8,285.2v13.8h-4.2c-1.3,0-2.4-1.1-2.4-2.4l0,0c-1.4,1.8-3.6,2.7-6.4,2.7c-4.5,0-7.2-2.7-7.2-6.6
	c0-4,2.9-6.3,8.1-6.4h5.5v-0.3c0-2.1-1.4-3.3-4.1-3.3c-0.9,0-1.9,0.2-2.9,0.4c-2,0.6-4.2-0.5-5-2.4l-0.3-0.7
	c3.3-1.5,6.3-2.4,9.8-2.4C493.4,277.5,496.8,280.4,496.8,285.2z M490.2,291.8v-1.9h-4.3c-2,0-3,0.7-3,2.3c0,1.5,1.1,2.5,3,2.5
	C487.9,294.7,489.7,293.5,490.2,291.8z"/>
<path class="st1" d="M523.1,285.6v13.3h-6.7v-11.4c0-2.5-1.4-4-3.7-4c-2.5,0-4,1.8-4.3,4.3v4.4c0,3.7-3,6.8-6.8,6.8l0,0v-21.1h6.8
	v3.4c1.5-2.5,3.9-3.7,7-3.8C520.1,277.5,523.1,280.7,523.1,285.6z"/>
<path class="st1" d="M534.9,293.2v5.7h-6.8v-29h1.8c2.7,0,5,2.2,5,5v10.3l7-7.4h7.7l-7.7,8.1l8,13h-8l-4.6-8.1L534.9,293.2z"/>
<path class="st1" d="M475.8,335.9c-1.6,3.8-4.2,5.7-8.1,5.7c-2.3,0-4.3-0.7-6.1-2.1l2.8-4.6c1,0.8,1.8,1.1,2.8,1.1
	c1.2,0,2.1-0.5,2.6-1.7l0.5-1.1l-8.8-20.6h7l5.2,14l3.2-9.7c0.8-2.6,3.2-4.3,5.9-4.3h2.2L475.8,335.9z"/>
<path class="st1" d="M532.1,333.7h-6.8v-3.5c-1.4,2.5-3.8,3.8-6.8,3.8c-4.6,0-7.5-3.1-7.5-8v-13.3l0,0c3.7,0,6.8,3,6.8,6.8v4.6
	c0,2.5,1.4,4,3.5,4c2.6,0,4.1-2.1,4.1-5v-10.4h6.8V333.7z"/>
<pattern  id="SVGID_12_" xlink:href="#Nouveau_motif" patternTransform="matrix(1.103325e-02 0 0 1.103325e-02 -7411.0327 -7515.8335)">
</pattern>
<path class="st14" d="M500.8,312.6c-0.7-0.3-1.5-0.3-2.2,0.1c-0.7,0.3-1.2,0.9-1.5,1.6c-0.6,1.5,0.2,3.2,1.7,3.7
	c2,0.8,3.4,2.7,3.5,4.8c0.1,2.5-1.6,4.8-4,5.4c-0.4,0.1-0.8,0.2-1.2,0.2c-3,0.1-5.5-2.2-5.6-5.2c0-0.8-0.4-1.5-0.9-2
	c-0.6-0.5-1.3-0.8-2.1-0.8c-0.8,0-1.5,0.4-2,0.9c-0.5,0.6-0.8,1.3-0.8,2.1c0.1,3,1.4,5.7,3.6,7.8c2.1,1.9,4.8,3,7.6,3
	c0.1,0,0.3,0,0.4,0c0.8,0,1.7-0.2,2.5-0.4c2-0.5,3.8-1.6,5.3-3.2c2-2.2,3.1-5,3-8C507.8,318.1,505,314.2,500.8,312.6z"/>
<rect x="214.9" y="207.9" width="182.1" height="182.1"/>
<g>
	
		<pattern  id="SVGID_13_" xlink:href="#Nouveau_motif_2" patternTransform="matrix(9.256399e-03 0 0 9.256399e-03 -7748.4517 -7301.3813)">
	</pattern>
	<path class="st15" d="M253.6,277.2V292c0,3.8-3.1,7-7,7l0,0v-21.8h-2.5c-3.1,0-5.6-2.5-5.6-5.6l0,0h17.7c3.1,0,5.6,2.5,5.6,5.6l0,0
		H253.6z"/>
	
		<pattern  id="SVGID_14_" xlink:href="#Nouveau_motif_2" patternTransform="matrix(9.256399e-03 0 0 9.256399e-03 -7748.4517 -7301.3813)">
	</pattern>
	<path class="st16" d="M284.8,285.6v13.3l0,0c-3.7,0-6.8-3-6.8-6.8v-4.7c0-2.5-1.4-4-3.7-4c-2.7,0-4.3,2.1-4.3,5v10.4h-6.8v-29h1.3
		c3,0,5.5,2.5,5.5,5.5v5.9c1.5-2.5,3.9-3.8,7.1-3.8C281.7,277.5,284.8,280.7,284.8,285.6z"/>
	
		<pattern  id="SVGID_15_" xlink:href="#Nouveau_motif_2" patternTransform="matrix(9.256399e-03 0 0 9.256399e-03 -7748.4517 -7301.3813)">
	</pattern>
	<path class="st17" d="M308.2,285.2v13.8H304c-1.3,0-2.4-1.1-2.4-2.4l0,0c-1.4,1.8-3.6,2.7-6.4,2.7c-4.5,0-7.2-2.7-7.2-6.6
		c0-4,2.9-6.3,8.1-6.4h5.5v-0.3c0-2.1-1.4-3.3-4.1-3.3c-0.9,0-1.9,0.2-2.9,0.4c-2,0.6-4.2-0.5-5-2.4l-0.3-0.7
		c3.3-1.5,6.3-2.4,9.8-2.4C304.8,277.5,308.2,280.4,308.2,285.2z M301.6,291.8v-1.9h-4.3c-2,0-3,0.7-3,2.3c0,1.5,1.1,2.5,3,2.5
		C299.3,294.7,301.1,293.5,301.6,291.8z"/>
	
		<pattern  id="SVGID_16_" xlink:href="#Nouveau_motif_2" patternTransform="matrix(9.256399e-03 0 0 9.256399e-03 -7748.4517 -7301.3813)">
	</pattern>
	<path class="st18" d="M334.5,285.6v13.3h-6.7v-11.4c0-2.5-1.4-4-3.7-4c-2.5,0-4,1.8-4.3,4.3v4.4c0,3.7-3,6.8-6.8,6.8l0,0v-21.1h6.8
		v3.4c1.5-2.5,3.9-3.7,7-3.8C331.5,277.5,334.5,280.7,334.5,285.6z"/>
	
		<pattern  id="SVGID_17_" xlink:href="#Nouveau_motif_2" patternTransform="matrix(9.256399e-03 0 0 9.256399e-03 -7748.4517 -7301.3813)">
	</pattern>
	<path class="st19" d="M346.3,293.2v5.7h-6.8v-29h1.8c2.7,0,5,2.2,5,5v10.3l7-7.4h7.7l-7.7,8.1l8,13h-8l-4.6-8.1L346.3,293.2z"/>
	
		<pattern  id="SVGID_18_" xlink:href="#Nouveau_motif_2" patternTransform="matrix(9.256399e-03 0 0 9.256399e-03 -7748.4517 -7301.3813)">
	</pattern>
	<path class="st20" d="M287.2,335.9c-1.6,3.8-4.2,5.7-8.1,5.7c-2.3,0-4.3-0.7-6.1-2.1l2.8-4.6c1,0.8,1.8,1.1,2.8,1.1
		c1.2,0,2.1-0.5,2.6-1.7l0.5-1.1l-8.8-20.6h7l5.2,14l3.2-9.7c0.8-2.6,3.2-4.3,5.9-4.3h2.2L287.2,335.9z"/>
	
		<pattern  id="SVGID_19_" xlink:href="#Nouveau_motif_2" patternTransform="matrix(9.256399e-03 0 0 9.256399e-03 -7748.4517 -7301.3813)">
	</pattern>
	<path class="st21" d="M343.5,333.7h-6.8v-3.5c-1.4,2.5-3.8,3.8-6.8,3.8c-4.6,0-7.5-3.1-7.5-8v-13.3l0,0c3.7,0,6.8,3,6.8,6.8v4.6
		c0,2.5,1.4,4,3.5,4c2.6,0,4.1-2.1,4.1-5v-10.4h6.8V333.7z"/>
	<path class="st2" d="M312.2,312.6c-0.7-0.3-1.5-0.3-2.2,0.1c-0.7,0.3-1.2,0.9-1.5,1.6c-0.6,1.5,0.2,3.2,1.7,3.7
		c2,0.8,3.4,2.7,3.5,4.8c0.1,2.5-1.6,4.8-4,5.4c-0.4,0.1-0.8,0.2-1.2,0.2c-3,0.1-5.5-2.2-5.6-5.2c0-0.8-0.4-1.5-0.9-2
		c-0.6-0.5-1.3-0.8-2.1-0.8c-0.8,0-1.5,0.4-2,0.9c-0.5,0.6-0.8,1.3-0.8,2.1c0.1,3,1.4,5.7,3.6,7.8c2.1,1.9,4.8,3,7.6,3
		c0.1,0,0.3,0,0.4,0c0.8,0,1.7-0.2,2.5-0.4c2-0.5,3.8-1.6,5.3-3.2c2-2.2,3.1-5,3-8C319.2,318.1,316.4,314.2,312.2,312.6z"/>
</g>
<rect x="27.9" y="19" width="182.1" height="182.1"/>
<g>
	
		<pattern  id="SVGID_20_" xlink:href="#Nouveau_motif" patternTransform="matrix(3.427237e-04 0 0 3.427237e-04 -7461.8853 -7547.8306)">
	</pattern>
	<path class="st22" d="M66.5,88.2v14.8c0,3.8-3.1,7-7,7h0V88.2H57c-3.1,0-5.6-2.5-5.6-5.6v0h17.7c3.1,0,5.6,2.5,5.6,5.6v0H66.5z"/>
	
		<pattern  id="SVGID_21_" xlink:href="#Nouveau_motif" patternTransform="matrix(3.427237e-04 0 0 3.427237e-04 -7461.8853 -7547.8306)">
	</pattern>
	<path class="st23" d="M97.7,96.7V110h0c-3.7,0-6.8-3-6.8-6.8v-4.7c0-2.5-1.4-4-3.7-4c-2.7,0-4.3,2.1-4.3,5V110h-6.8V81h1.3
		c3,0,5.5,2.5,5.5,5.5v5.9c1.5-2.5,3.9-3.8,7.1-3.8C94.7,88.6,97.7,91.8,97.7,96.7z"/>
	
		<pattern  id="SVGID_22_" xlink:href="#Nouveau_motif" patternTransform="matrix(3.427237e-04 0 0 3.427237e-04 -7461.8853 -7547.8306)">
	</pattern>
	<path class="st24" d="M121.1,96.3V110h-4.2c-1.3,0-2.4-1.1-2.4-2.4l0,0c-1.4,1.8-3.6,2.7-6.4,2.7c-4.5,0-7.2-2.7-7.2-6.6
		c0-4,2.9-6.3,8.1-6.4h5.5V97c0-2.1-1.4-3.3-4.1-3.3c-0.9,0-1.9,0.2-2.9,0.4c-2,0.6-4.2-0.5-5-2.4l-0.3-0.7c3.3-1.5,6.3-2.4,9.8-2.4
		C117.7,88.6,121.1,91.5,121.1,96.3z M114.5,102.9V101h-4.3c-2,0-3,0.7-3,2.3c0,1.5,1.1,2.5,3,2.5
		C112.3,105.8,114.1,104.6,114.5,102.9z"/>
	
		<pattern  id="SVGID_23_" xlink:href="#Nouveau_motif" patternTransform="matrix(3.427237e-04 0 0 3.427237e-04 -7461.8853 -7547.8306)">
	</pattern>
	<path class="st25" d="M147.4,96.7V110h-6.7V98.6c0-2.5-1.4-4-3.7-4c-2.5,0-4,1.8-4.3,4.3v4.4c0,3.7-3,6.8-6.8,6.8h0V88.9h6.8v3.4
		c1.5-2.5,3.9-3.7,7-3.8C144.4,88.6,147.4,91.8,147.4,96.7z"/>
	
		<pattern  id="SVGID_24_" xlink:href="#Nouveau_motif" patternTransform="matrix(3.427237e-04 0 0 3.427237e-04 -7461.8853 -7547.8306)">
	</pattern>
	<path class="st26" d="M159.2,104.3v5.7h-6.8V81h1.8c2.7,0,5,2.2,5,5v10.3l7-7.4h7.7l-7.7,8.1l8,13h-8l-4.6-8.1L159.2,104.3z"/>
	
		<pattern  id="SVGID_25_" xlink:href="#Nouveau_motif" patternTransform="matrix(3.427237e-04 0 0 3.427237e-04 -7461.8853 -7547.8306)">
	</pattern>
	<path class="st27" d="M100.2,147c-1.6,3.8-4.2,5.7-8.1,5.7c-2.3,0-4.3-0.7-6.1-2.1l2.8-4.6c1,0.8,1.8,1.1,2.8,1.1
		c1.2,0,2.1-0.5,2.6-1.7l0.5-1.1l-8.8-20.6h7l5.2,14l3.2-9.7c0.8-2.6,3.2-4.3,5.9-4.3h2.2L100.2,147z"/>
	
		<pattern  id="SVGID_26_" xlink:href="#Nouveau_motif" patternTransform="matrix(3.427237e-04 0 0 3.427237e-04 -7461.8853 -7547.8306)">
	</pattern>
	<path class="st28" d="M156.4,144.8h-6.8v-3.5c-1.4,2.5-3.8,3.8-6.8,3.8c-4.6,0-7.5-3.1-7.5-8v-13.3h0c3.7,0,6.8,3,6.8,6.8v4.6
		c0,2.5,1.4,4,3.5,4c2.6,0,4.1-2.1,4.1-5v-10.4h6.8V144.8z"/>
	
		<pattern  id="SVGID_27_" xlink:href="#Nouveau_motif" patternTransform="matrix(1.851280e-02 0 0 1.851280e-02 -7337.54 -7478.2017)">
	</pattern>
	<path class="st29" d="M125.1,123.7c-0.7-0.3-1.5-0.3-2.2,0.1c-0.7,0.3-1.2,0.9-1.5,1.6c-0.6,1.5,0.2,3.2,1.7,3.7
		c2,0.8,3.4,2.7,3.5,4.8c0.1,2.5-1.6,4.8-4,5.4c-0.4,0.1-0.8,0.2-1.2,0.2c-3,0.1-5.5-2.2-5.6-5.2c0-0.8-0.4-1.5-0.9-2
		c-0.6-0.5-1.3-0.8-2.1-0.8c-0.8,0-1.5,0.4-2,0.9c-0.5,0.6-0.8,1.3-0.8,2.1c0.1,3,1.4,5.7,3.6,7.8c2.1,1.9,4.8,3,7.6,3
		c0.1,0,0.3,0,0.4,0c0.8,0,1.7-0.2,2.5-0.4c2-0.5,3.8-1.6,5.3-3.2c2-2.2,3.1-5,3-8C132.1,129.2,129.3,125.3,125.1,123.7z"/>
</g>
<rect x="27.9" y="207.9" width="182.1" height="182.1"/>
<g>
	
		<pattern  id="SVGID_28_" xlink:href="#Nouveau_motif" patternTransform="matrix(3.427237e-04 0 0 3.427237e-04 -7461.8853 -7547.8306)">
	</pattern>
	<path class="st30" d="M66.5,277.2V292c0,3.8-3.1,7-7,7h0v-21.8H57c-3.1,0-5.6-2.5-5.6-5.6l0,0h17.7c3.1,0,5.6,2.5,5.6,5.6l0,0H66.5
		z"/>
	
		<pattern  id="SVGID_29_" xlink:href="#Nouveau_motif" patternTransform="matrix(3.427237e-04 0 0 3.427237e-04 -7461.8853 -7547.8306)">
	</pattern>
	<path class="st31" d="M97.7,285.6v13.3h0c-3.7,0-6.8-3-6.8-6.8v-4.7c0-2.5-1.4-4-3.7-4c-2.7,0-4.3,2.1-4.3,5v10.4h-6.8v-29h1.3
		c3,0,5.5,2.5,5.5,5.5v5.9c1.5-2.5,3.9-3.8,7.1-3.8C94.7,277.5,97.7,280.7,97.7,285.6z"/>
	
		<pattern  id="SVGID_30_" xlink:href="#Nouveau_motif" patternTransform="matrix(3.427237e-04 0 0 3.427237e-04 -7461.8853 -7547.8306)">
	</pattern>
	<path class="st32" d="M121.1,285.2v13.8h-4.2c-1.3,0-2.4-1.1-2.4-2.4l0,0c-1.4,1.8-3.6,2.7-6.4,2.7c-4.5,0-7.2-2.7-7.2-6.6
		c0-4,2.9-6.3,8.1-6.4h5.5v-0.3c0-2.1-1.4-3.3-4.1-3.3c-0.9,0-1.9,0.2-2.9,0.4c-2,0.6-4.2-0.5-5-2.4l-0.3-0.7
		c3.3-1.5,6.3-2.4,9.8-2.4C117.7,277.5,121.1,280.4,121.1,285.2z M114.5,291.8v-1.9h-4.3c-2,0-3,0.7-3,2.3c0,1.5,1.1,2.5,3,2.5
		C112.3,294.7,114.1,293.5,114.5,291.8z"/>
	
		<pattern  id="SVGID_31_" xlink:href="#Nouveau_motif" patternTransform="matrix(3.427237e-04 0 0 3.427237e-04 -7461.8853 -7547.8306)">
	</pattern>
	<path class="st33" d="M147.4,285.6v13.3h-6.7v-11.4c0-2.5-1.4-4-3.7-4c-2.5,0-4,1.8-4.3,4.3v4.4c0,3.7-3,6.8-6.8,6.8h0v-21.1h6.8
		v3.4c1.5-2.5,3.9-3.7,7-3.8C144.4,277.5,147.4,280.7,147.4,285.6z"/>
	
		<pattern  id="SVGID_32_" xlink:href="#Nouveau_motif" patternTransform="matrix(3.427237e-04 0 0 3.427237e-04 -7461.8853 -7547.8306)">
	</pattern>
	<path class="st34" d="M159.2,293.2v5.7h-6.8v-29h1.8c2.7,0,5,2.2,5,5v10.3l7-7.4h7.7l-7.7,8.1l8,13h-8l-4.6-8.1L159.2,293.2z"/>
	
		<pattern  id="SVGID_33_" xlink:href="#Nouveau_motif" patternTransform="matrix(3.427237e-04 0 0 3.427237e-04 -7461.8853 -7547.8306)">
	</pattern>
	<path class="st35" d="M100.2,335.9c-1.6,3.8-4.2,5.7-8.1,5.7c-2.3,0-4.3-0.7-6.1-2.1l2.8-4.6c1,0.8,1.8,1.1,2.8,1.1
		c1.2,0,2.1-0.5,2.6-1.7l0.5-1.1l-8.8-20.6h7l5.2,14l3.2-9.7c0.8-2.6,3.2-4.3,5.9-4.3h2.2L100.2,335.9z"/>
	
		<pattern  id="SVGID_34_" xlink:href="#Nouveau_motif" patternTransform="matrix(3.427237e-04 0 0 3.427237e-04 -7461.8853 -7547.8306)">
	</pattern>
	<path class="st36" d="M156.4,333.7h-6.8v-3.5c-1.4,2.5-3.8,3.8-6.8,3.8c-4.6,0-7.5-3.1-7.5-8v-13.3h0c3.7,0,6.8,3,6.8,6.8v4.6
		c0,2.5,1.4,4,3.5,4c2.6,0,4.1-2.1,4.1-5v-10.4h6.8V333.7z"/>
	<path class="st1" d="M125.1,312.6c-0.7-0.3-1.5-0.3-2.2,0.1c-0.7,0.3-1.2,0.9-1.5,1.6c-0.6,1.5,0.2,3.2,1.7,3.7
		c2,0.8,3.4,2.7,3.5,4.8c0.1,2.5-1.6,4.8-4,5.4c-0.4,0.1-0.8,0.2-1.2,0.2c-3,0.1-5.5-2.2-5.6-5.2c0-0.8-0.4-1.5-0.9-2
		c-0.6-0.5-1.3-0.8-2.1-0.8c-0.8,0-1.5,0.4-2,0.9c-0.5,0.6-0.8,1.3-0.8,2.1c0.1,3,1.4,5.7,3.6,7.8c2.1,1.9,4.8,3,7.6,3
		c0.1,0,0.3,0,0.4,0c0.8,0,1.7-0.2,2.5-0.4c2-0.5,3.8-1.6,5.3-3.2c2-2.2,3.1-5,3-8C132.1,318.1,129.3,314.2,125.1,312.6z"/>
</g>
</svg>
